<svg width="41" height="50" viewBox="0 0 41 50" fill="none" xmlns="http://www.w3.org/2000/svg">
<g clip-path="url(#clip0)">
<path d="M8.69591 15.4375H7.06787V26.6206H7.10758V38.3305C7.10758 39.2219 7.82233 39.9513 8.69591 39.9513H12.0711V47.1636C12.0711 48.7438 13.3418 50.0404 14.8904 50.0404C16.439 50.0404 17.7097 48.7438 17.7097 47.1636V39.9108H22.9512V47.1231C22.9512 48.7033 24.2219 49.9999 25.7705 49.9999C27.3191 49.9999 28.5898 48.7033 28.5898 47.1231V39.9108H31.965C32.8386 39.9108 33.5533 39.1814 33.5533 38.29V26.5801H33.593V15.4375H31.965H8.69591Z" fill="black"/>
<path d="M37.8818 14.5054C36.3332 14.5054 35.0625 15.802 35.0625 17.3822V30.3482C35.0625 31.9284 36.3332 33.225 37.8818 33.225C39.4304 33.225 40.7011 31.9284 40.7011 30.3482V17.3822C40.7408 15.802 39.4701 14.5054 37.8818 14.5054Z" fill="black"/>
<path d="M2.81929 14.5054C1.27067 14.5054 0 15.802 0 17.3822V30.3482C0 31.9284 1.27067 33.225 2.81929 33.225C4.36792 33.225 5.63858 31.9284 5.63858 30.3482V17.3822C5.63858 15.802 4.40762 14.5054 2.81929 14.5054Z" fill="black"/>
<path d="M26.7632 3.64642L29.0266 0.364406C29.0663 0.283369 28.9869 0.161813 28.8678 0.0807759C28.7486 -0.000261389 28.6295 -0.04078 28.5898 0.0402572L26.2073 3.4033C24.619 2.75501 22.6733 2.39034 20.3305 2.34982C17.9877 2.34982 16.042 2.71449 14.4536 3.36279L12.1506 -0.000261389C12.1108 -0.0812987 11.952 -0.04078 11.8329 0.0402572C11.7138 0.121295 11.6343 0.283369 11.6741 0.323888L13.9374 3.56538C7.38555 6.52324 7.18701 13.7761 7.18701 13.7761H33.5533C33.5533 13.8166 33.2754 6.6448 26.7632 3.64642ZM14.5728 9.56214C13.6992 9.56214 12.9844 8.8328 12.9844 7.94139C12.9844 7.04998 13.6992 6.32065 14.5728 6.32065C15.4463 6.32065 16.1611 7.04998 16.1611 7.94139C16.1611 8.87332 15.4463 9.56214 14.5728 9.56214ZM26.1279 9.56214C25.2543 9.56214 24.5395 8.8328 24.5395 7.94139C24.5395 7.04998 25.2543 6.32065 26.1279 6.32065C27.0015 6.32065 27.7162 7.04998 27.7162 7.94139C27.7162 8.87332 27.0412 9.56214 26.1279 9.56214Z" fill="black"/>
</g>
<defs>
<clipPath id="clip0">
<rect width="40.7407" height="50" fill="white"/>
</clipPath>
</defs>
</svg>
