<?xml version="1.0" standalone="no"?>
<!DOCTYPE svg PUBLIC "-//W3C//DTD SVG 20010904//EN"
 "http://www.w3.org/TR/2001/REC-SVG-20010904/DTD/svg10.dtd">
<svg version="1.0"
    xmlns="http://www.w3.org/2000/svg" width="512.000000pt" height="512.000000pt" viewBox="0 0 512.000000 512.000000" preserveAspectRatio="xMidYMid meet">

    <g transform="translate(0.000000,512.000000) scale(0.100000,-0.100000)" fill="blue" stroke="none">
        <path d="M2460 5104 c-266 -72 -495 -460 -640 -1086 -15 -65 -29 -121 -32
-123 -2 -2 -46 9 -98 26 -280 89 -570 141 -785 141 -177 0 -277 -17 -380 -66
-91 -44 -144 -91 -183 -164 -149 -278 50 -677 591 -1189 l87 -81 -183 -184
c-245 -246 -361 -397 -457 -593 -63 -128 -84 -208 -84 -316 0 -80 3 -93 37
-162 44 -90 93 -135 192 -183 104 -49 203 -66 380 -66 215 0 505 52 785 141
60 19 97 26 101 20 3 -6 16 -56 28 -112 29 -132 92 -344 142 -475 196 -514
482 -730 777 -586 225 110 433 498 557 1039 15 66 30 125 34 131 4 8 34 3 101
-18 300 -91 572 -140 785 -140 177 0 276 17 380 66 91 44 144 91 183 164 149
279 -48 674 -596 1193 l-83 79 83 79 c474 449 686 805 638 1072 -24 133 -101
228 -235 290 -229 104 -670 74 -1155 -80 -52 -17 -96 -28 -98 -26 -3 2 -20 68
-39 147 -107 450 -252 769 -425 934 -76 73 -134 108 -213 128 -72 19 -123 19
-195 0z m198 -174 c145 -64 309 -349 426 -740 38 -129 91 -348 85 -354 -2 -2
-72 -31 -155 -65 -84 -33 -220 -91 -303 -130 l-151 -69 -151 69 c-83 39 -219
97 -303 130 -83 34 -153 62 -155 64 -6 7 48 233 85 355 102 337 240 602 367
702 53 42 132 70 177 62 19 -3 54 -14 78 -24z m-1494 -1051 c72 -11 185 -34
251 -50 125 -31 345 -97 345 -103 0 -2 -11 -80 -24 -173 -13 -92 -30 -235 -37
-318 -6 -82 -15 -155 -18 -162 -3 -6 -74 -60 -156 -119 -83 -58 -201 -147
-263 -196 l-112 -90 -100 92 c-290 267 -517 572 -575 774 -26 89 -18 183 21
238 35 50 128 102 208 116 96 18 321 13 460 -9z m3241 10 c91 -16 183 -65 219
-117 58 -82 45 -215 -36 -376 -90 -178 -297 -432 -519 -637 l-99 -91 -132 104
c-73 58 -193 147 -266 198 -82 58 -134 102 -137 114 -2 12 -9 84 -15 161 -7
77 -23 216 -36 308 -13 93 -24 171 -24 173 0 5 213 70 330 100 262 66 552 92
715 63z m-2334 -278 c186 -75 299 -125 299 -131 0 -3 -57 -36 -128 -75 -70
-38 -184 -104 -254 -147 -71 -43 -129 -78 -131 -78 -7 0 47 442 58 478 3 6 6
12 8 12 3 0 69 -26 148 -59z m1146 -27 c17 -107 43 -336 43 -373 l0 -31 -137
83 c-76 46 -191 113 -255 148 -65 35 -118 66 -118 69 0 11 429 190 445 186 5
-1 15 -38 22 -82z m-531 -259 c152 -80 313 -173 470 -272 l121 -76 7 -96 c8
-124 8 -518 0 -642 l-7 -97 -139 -87 c-137 -85 -405 -238 -521 -297 l-58 -29
-126 67 c-162 85 -285 156 -454 262 l-136 84 -7 97 c-8 124 -8 518 0 641 l7
96 47 31 c139 92 647 383 669 383 2 0 59 -29 127 -65z m-1016 -765 l0 -300
-93 67 c-127 93 -297 226 -297 234 0 8 371 294 388 298 1 1 2 -134 2 -299z
m2065 87 c55 -43 100 -82 100 -87 0 -10 -156 -133 -292 -233 l-93 -67 0 300 0
300 93 -67 c50 -37 137 -103 192 -146z m-2452 -300 c73 -57 192 -146 265 -197
82 -58 134 -102 137 -114 2 -12 9 -84 15 -161 7 -77 23 -216 36 -308 13 -93
24 -170 24 -172 0 -7 -253 -82 -365 -109 -259 -61 -522 -83 -680 -55 -91 16
-183 65 -219 117 -99 141 4 406 286 739 69 80 353 363 365 363 2 0 64 -47 136
-103z m2849 -49 c356 -351 537 -640 526 -838 -3 -57 -9 -77 -34 -112 -36 -52
-128 -101 -219 -117 -158 -28 -421 -6 -680 55 -112 27 -365 102 -365 109 0 2
11 79 24 172 13 92 29 231 36 308 6 77 13 149 15 161 3 13 58 58 147 121 79
56 197 144 263 196 66 53 123 96 126 96 4 1 76 -68 161 -151z m-2144 -436 c70
-43 184 -109 254 -147 71 -39 128 -72 128 -75 0 -14 -441 -193 -451 -183 -10
12 -71 483 -62 483 2 0 60 -35 131 -78z m1263 -66 c-19 -165 -44 -330 -51
-339 -9 -10 -450 169 -450 183 0 3 60 38 133 77 72 40 186 106 252 146 139 86
133 90 116 -67z m-535 -320 c87 -40 224 -99 304 -130 79 -32 146 -59 148 -61
7 -6 -47 -230 -84 -355 -102 -340 -247 -615 -376 -709 -24 -18 -67 -39 -95
-47 -48 -14 -58 -14 -107 0 -171 50 -338 319 -470 756 -31 103 -86 325 -86
347 0 5 75 40 168 77 126 50 433 187 438 195 0 1 72 -32 160 -73z"/>
        <path d="M2525 2963 c-125 -13 -232 -77 -300 -178 -179 -270 11 -627 335 -627
85 0 155 21 225 67 235 157 235 513 0 670 -76 50 -176 76 -260 68z m161 -199
c30 -18 60 -48 79 -78 27 -44 30 -58 30 -126 0 -68 -3 -82 -30 -126 -100 -161
-342 -149 -421 21 -57 121 -10 260 108 320 74 37 164 33 234 -11z"/>
    </g>
</svg>
