<svg  viewBox="0 0 117 32" fill="none" xmlns="http://www.w3.org/2000/svg">
<g clip-path="url(#clip0_14_8)">
<path d="M115.793 9.7667C114.99 7.87946 113.899 6.23633 112.52 4.8383C111.141 3.44088 109.519 2.34219 107.656 1.54421C105.793 0.747078 103.802 0.347412 101.681 0.347412C100.247 0.347412 98.8714 0.529669 97.5544 0.8921C96.2374 1.25674 95.0087 1.76884 93.8714 2.43271C92.7336 3.09645 91.7003 3.89811 90.7728 4.83793C89.8453 5.77824 89.0496 6.82071 88.3879 7.96569C87.7257 9.11141 87.2115 10.3565 86.8443 11.6986C86.5801 12.6661 86.4148 13.6637 86.3413 14.6885H94.9159C94.9928 14.1097 95.1193 13.5468 95.3093 13.0018C95.6283 12.0859 96.0806 11.2805 96.6653 10.5843C97.251 9.88992 97.9583 9.3407 98.793 8.93834C99.6271 8.53512 100.567 8.33351 101.611 8.33351C102.625 8.33351 103.54 8.53512 104.359 8.93834C105.177 9.34058 105.87 9.89016 106.439 10.5843C107.008 11.2809 107.445 12.0863 107.749 13.0018C108.053 13.9182 108.205 14.8814 108.205 15.8929C108.205 16.9356 108.053 17.9107 107.749 18.819C107.445 19.7274 107.008 20.5135 106.439 21.1773C105.87 21.841 105.178 22.3663 104.359 22.753C103.54 23.1406 102.624 23.3326 101.611 23.3326C100.566 23.3326 99.6271 23.1406 98.793 22.753C97.9587 22.3663 97.2509 21.841 96.6653 21.1773C96.0806 20.5135 95.6285 19.7274 95.3093 18.819C95.0995 18.2229 94.9659 17.5949 94.8938 16.9407H86.3281C86.3954 18.0194 86.5667 19.0645 86.8443 20.075C87.2112 21.4105 87.7254 22.6545 88.3879 23.8081C89.0501 24.961 89.8458 26.0075 90.7728 26.9475C91.7006 27.8876 92.7336 28.6932 93.8714 29.3646C95.0087 30.0356 96.237 30.5533 97.5544 30.9164C98.8713 31.2801 100.247 31.4615 101.681 31.4615C103.099 31.4615 104.46 31.2801 105.762 30.9164C107.064 30.5533 108.283 30.036 109.421 29.3646C110.559 28.6932 111.592 27.8871 112.519 26.9475C113.447 26.0075 114.241 24.961 114.904 23.8081C115.567 22.6545 116.081 21.411 116.448 20.075C116.813 18.7404 116.997 17.3461 116.997 15.8929C116.998 13.6969 116.596 11.655 115.793 9.7667Z" fill="#FBAA19"/>
<path d="M18.7248 15.9044C18.7248 17.5834 17.3815 18.9441 15.7252 18.9441C14.0681 18.9441 12.7256 17.5834 12.7256 15.9044C12.7256 14.2256 14.0681 12.8644 15.7252 12.8644C17.3814 12.8644 18.7248 14.2256 18.7248 15.9044Z" fill="#FBAA19"/>
<path d="M104.646 15.9044C104.646 17.5834 103.303 18.9441 101.646 18.9441C99.9895 18.9441 98.647 17.5834 98.647 15.9044C98.647 14.2256 99.9895 12.8644 101.646 12.8644C103.303 12.8644 104.646 14.2256 104.646 15.9044Z" fill="#2B348F"/>
<path d="M87.9209 26.0509L85.3023 22.0466C85.0681 21.6831 84.8426 21.4464 84.6234 21.3355C84.4061 21.2255 84.1646 21.1698 83.8993 21.1698C83.7901 21.1698 83.6379 21.1886 83.4442 21.2284C83.2476 21.2673 83.0414 21.3666 82.8235 21.5242C82.1217 22.0145 81.3822 22.4169 80.603 22.7328C79.8225 23.049 78.989 23.2064 78.1005 23.2064C77.1179 23.2064 76.2145 23.014 75.3873 22.6261C74.5616 22.2397 73.8563 21.7142 73.271 21.0506C72.6875 20.387 72.231 19.6009 71.9035 18.6925C71.703 18.1347 71.5713 17.5486 71.4936 16.9402H62.9446C63.0173 17.9738 63.1844 18.9774 63.4512 19.9483C63.8164 21.2839 64.3271 22.5282 64.9822 23.6815C65.6373 24.8346 66.4316 25.881 67.3674 26.8207C68.3019 27.7608 69.3309 28.5665 70.4535 29.2377C71.5767 29.9089 72.7878 30.4261 74.0907 30.79C75.3913 31.1533 76.7431 31.3347 78.1469 31.3347C79.8455 31.3347 81.4555 31.0621 82.9753 30.517C84.4958 29.972 85.8943 29.2491 87.1727 28.3489C87.4372 28.1746 87.6835 27.9738 87.9092 27.7443C88.1354 27.5155 88.2489 27.2197 88.2489 26.8556C88.2489 26.7612 88.213 26.6348 88.144 26.476C88.0725 26.3195 87.9984 26.178 87.9209 26.0509Z" fill="#2B348F"/>
<path d="M71.4848 14.6885C71.5605 14.0653 71.6953 13.46 71.9033 12.8753C72.2307 11.9595 72.6872 11.1541 73.2708 10.4582C73.8561 9.76388 74.5614 9.2143 75.3871 8.81206C76.2143 8.40884 77.1177 8.2076 78.1003 8.2076C78.9891 8.2076 79.8271 8.3536 80.6132 8.64609C81.4002 8.93797 82.1367 9.31314 82.8233 9.77123C83.0723 9.94553 83.299 10.0679 83.5013 10.1386C83.7028 10.2098 83.8749 10.2451 84.0162 10.2451C84.6387 10.2451 85.1693 9.85856 85.6054 9.08422L87.6874 5.50535C87.8743 5.20612 87.967 4.91314 87.967 4.62824C87.967 4.21767 87.8656 3.8752 87.6636 3.59741C87.4601 3.32145 87.1877 3.08028 86.8445 2.87537L86.9154 2.94579C85.6532 2.04553 84.2993 1.36624 82.8577 0.908512C81.4164 0.450911 79.8451 0.221252 78.1467 0.221252C76.7433 0.221252 75.3911 0.403754 74.0905 0.766308C72.7878 1.13058 71.5767 1.64268 70.4533 2.30643C69.3311 2.97066 68.3017 3.77232 67.3672 4.71214C66.4314 5.65196 65.6371 6.69492 64.982 7.83965C64.3269 8.98537 63.8164 10.2302 63.451 11.5724C63.1761 12.58 63.0036 13.6187 62.9348 14.6884L71.4848 14.6885Z" fill="#2B348F"/>
<path d="M61.7091 14.6885V2.52005C61.7091 1.96752 61.5614 1.52462 61.2649 1.19355C60.9686 0.861614 60.4856 0.695892 59.8149 0.695892H54.5311C54.2969 0.695892 54.0899 0.718919 53.9107 0.766198C53.7315 0.814335 53.5404 0.900686 53.3383 1.02746C53.1356 1.16929 52.9832 1.37495 52.8819 1.64404C52.7805 1.91241 52.7302 2.18175 52.7302 2.45036V14.6879H61.7091V14.6885Z" fill="#2B348F"/>
<path d="M42.3016 14.6889V2.38054C42.3016 1.7157 42.1762 1.26887 41.9278 1.04007C41.6783 0.811271 41.2176 0.696381 40.5487 0.696381H35.1466C34.585 0.696381 34.177 0.850098 33.9191 1.15766C33.662 1.46644 33.5332 1.92061 33.5332 2.52042V14.6891L42.3016 14.6889Z" fill="#2B348F"/>
<path d="M52.7303 16.9407V17.8698C52.7303 18.756 52.5429 19.5152 52.1696 20.1473C51.7945 20.7803 51.3266 21.2984 50.7663 21.7015C50.205 22.105 49.5974 22.4017 48.9424 22.5907C48.2878 22.7807 47.6798 22.875 47.1191 22.875C46.4641 22.875 45.8436 22.7401 45.2595 22.4721C44.6748 22.2033 44.1641 21.8359 43.727 21.369C43.2908 20.9022 42.9443 20.365 42.6871 19.7562C42.4299 19.1468 42.3009 18.503 42.3009 17.8225V16.9407H33.5327V18.0415C33.5327 19.8577 33.7741 21.5684 34.2579 23.1718C34.7408 24.7754 35.4534 26.178 36.3971 27.3782C37.3404 28.5787 38.4976 29.5269 39.8693 30.2213C41.2416 30.9161 42.8164 31.2638 44.5928 31.2638C45.8241 31.2638 46.9628 31.1149 48.0068 30.8153C49.0513 30.5164 49.9743 30.1382 50.7775 29.6808C51.5808 29.2241 52.255 28.7241 52.8007 28.18C53.3461 27.6367 53.7357 27.121 53.9696 26.633L54.4611 28.9482C54.522 29.1848 54.6006 29.4128 54.6943 29.6343C54.7875 29.8551 54.9046 30.0513 55.0453 30.2246C55.1865 30.3981 55.3565 30.5361 55.5592 30.6393C55.7625 30.7421 56.0038 30.7931 56.2844 30.7931H59.8152C60.0173 30.7931 60.2322 30.769 60.4584 30.7217C60.6839 30.6745 60.8991 30.5641 61.1008 30.3898L60.9606 30.4602C61.195 30.3185 61.3779 30.1208 61.5099 29.8677C61.6425 29.6154 61.7089 29.3395 61.7089 29.0389V16.9407H52.7303Z" fill="#2B348F"/>
<path d="M22.4671 16.9407C22.3828 17.5949 22.226 18.2229 21.9802 18.819C21.6058 19.7274 21.0879 20.5135 20.4255 21.1773C19.7628 21.841 18.9833 22.3663 18.0869 22.753C17.1904 23.1406 16.2205 23.3326 15.1761 23.3326C14.1624 23.3326 13.2384 23.1406 12.4046 22.753C11.5704 22.3663 10.8579 21.841 10.2655 21.1773C9.67266 20.5135 9.21664 19.7274 8.89683 18.819C8.57739 17.9107 8.4176 16.9356 8.4176 15.8929C8.4176 14.881 8.57763 13.9183 8.89683 13.0018C9.21664 12.0859 9.67266 11.2805 10.2655 10.5843C10.8577 9.88992 11.5704 9.3407 12.4046 8.93834C13.238 8.53512 14.1623 8.33351 15.1761 8.33351C16.2205 8.33351 17.1904 8.53512 18.0869 8.93834C18.9833 9.34058 19.7624 9.89016 20.4255 10.5843C21.0879 11.2809 21.6062 12.0863 21.9802 13.0018C22.203 13.5466 22.3506 14.11 22.441 14.6885H31.4507V2.4572C31.4507 2.17279 31.403 1.9195 31.3103 1.69902C31.2171 1.47757 31.0612 1.28013 30.8427 1.10583C30.6712 0.932518 30.4688 0.822527 30.2345 0.774881C30.0002 0.726744 29.7977 0.703595 29.6273 0.703595H26.1429C25.8305 0.703595 25.5892 0.722947 25.4182 0.763C25.2464 0.802807 25.1019 0.881442 24.9857 0.999272C24.8683 1.11833 24.7596 1.29973 24.6582 1.54445C24.5568 1.78991 24.4274 2.10959 24.2721 2.50448L23.5939 4.6607C23.1733 4.04533 22.6823 3.47235 22.1209 2.94298C21.5599 2.4136 20.9326 1.95979 20.2391 1.58058C19.5449 1.20137 18.7811 0.900917 17.9476 0.679833C17.1134 0.458994 16.2128 0.3479 15.2466 0.3479C13.1262 0.3479 11.1389 0.747567 9.28384 1.54469C7.42809 2.34231 5.81491 3.44075 4.44346 4.83854C3.0708 6.23633 1.98798 7.87946 1.19233 9.7667C0.397886 11.655 0 13.6969 0 15.8929C0 17.3457 0.179121 18.7399 0.537847 20.075C0.896452 21.4105 1.40662 22.6545 2.06932 23.8081C2.73178 24.961 3.52271 26.0075 4.44286 26.9475C5.36191 27.8876 6.38756 28.6932 7.51741 29.3646C8.64797 30.0356 9.86338 30.5533 11.1656 30.9164C12.467 31.2797 13.8271 31.4615 15.246 31.4615C16.0409 31.4615 16.8085 31.3623 17.5492 31.1651C18.2897 30.9675 18.9835 30.707 19.6304 30.3835C20.2775 30.0594 20.8701 29.6918 21.4075 29.2811C21.9451 28.8703 22.4247 28.4516 22.8457 28.0252L23.15 29.0919C23.2432 29.361 23.3328 29.6094 23.4189 29.8384C23.5045 30.0675 23.6094 30.2608 23.7341 30.4185C23.8588 30.5772 24.0224 30.6994 24.2252 30.7856C24.4274 30.8727 24.6927 30.9159 25.0203 30.9159H29.6273C29.7978 30.9159 30.0005 30.8924 30.2345 30.8444C30.4687 30.7971 30.671 30.6871 30.8427 30.5127C31.0616 30.3709 31.2174 30.1775 31.3102 29.9328C31.4034 29.688 31.4507 29.4311 31.4507 29.1628V16.9407H22.4671Z" fill="#2B348F"/>
</g>
<defs>
<clipPath id="clip0_14_8">
<rect width="116.998" height="31.2402" fill="white" transform="translate(0 0.221252)"/>
</clipPath>
</defs>
</svg>
