<?xml version="1.0" standalone="no"?>
<!DOCTYPE svg PUBLIC "-//W3C//DTD SVG 20010904//EN"
 "http://www.w3.org/TR/2001/REC-SVG-20010904/DTD/svg10.dtd">
<svg version="1.0" xmlns="http://www.w3.org/2000/svg"
 width="200.000000pt" height="924.000000pt" viewBox="0 0 1640.000000 924.000000"
 preserveAspectRatio="xMidYMid meet">

<g transform="translate(0.000000,924.000000) scale(0.100000,-0.100000)"
fill="white" stroke="none">
<path d="M5756 6044 c-77 -19 -150 -61 -207 -121 -105 -110 -143 -227 -144
-443 0 -235 44 -370 153 -472 91 -86 190 -122 332 -122 252 0 429 134 465 352
l7 42 -135 0 -134 0 -7 -37 c-15 -99 -92 -148 -215 -141 -88 5 -116 23 -156
103 l-30 60 0 205 c0 193 1 208 23 255 42 90 91 125 179 125 70 0 115 -16 150
-52 36 -37 53 -76 53 -119 l0 -29 135 0 c155 0 147 -7 116 103 -43 155 -150
253 -318 291 -87 19 -187 19 -267 0z"/>
<path d="M3180 5470 l0 -570 135 0 135 0 0 108 c0 120 -16 507 -26 622 -10
131 -13 138 214 -532 l66 -198 88 0 88 0 14 33 c7 19 48 137 91 263 110 329
166 488 176 499 5 5 7 -29 4 -80 -3 -50 -10 -164 -15 -255 -6 -91 -10 -231
-10 -312 l0 -148 135 0 135 0 0 570 0 570 -179 0 -180 0 -36 -117 c-21 -65
-52 -163 -70 -218 -18 -55 -59 -180 -90 -278 -31 -97 -61 -175 -66 -171 -5 3
-9 11 -9 19 0 7 -13 53 -29 102 -35 105 -197 608 -206 641 -6 22 -8 22 -186
22 l-179 0 0 -570z"/>
<path d="M10958 5613 c-3 -479 -3 -480 -73 -509 -48 -20 -77 -18 -116 9 -26
17 -37 35 -48 75 l-14 52 -133 0 -133 0 6 -52 c7 -72 47 -158 91 -201 101 -99
298 -131 452 -75 98 36 161 94 208 188 l27 55 3 443 3 442 -135 0 -135 0 -3
-427z"/>
<path d="M6656 5733 c-110 -44 -186 -131 -186 -213 l0 -30 130 0 c129 0 130 0
130 23 0 13 9 33 21 46 17 19 29 21 77 19 51 -3 58 -6 79 -37 15 -22 23 -49
23 -76 l0 -42 -104 -7 c-178 -12 -276 -47 -329 -119 -46 -61 -60 -155 -36
-240 37 -136 256 -216 395 -145 27 15 56 34 63 42 20 24 28 20 35 -19 l7 -35
133 0 134 0 -16 43 c-12 32 -17 106 -21 327 -6 283 -7 285 -33 335 -32 61 -57
84 -128 121 -50 26 -66 29 -180 31 -117 3 -130 1 -194 -24z m274 -526 c0 -63
-3 -76 -22 -94 -36 -32 -63 -43 -108 -43 -57 0 -90 33 -90 92 0 80 49 117 158
118 l62 0 0 -73z"/>
<path d="M7714 5741 c-22 -10 -56 -32 -76 -50 -42 -37 -48 -38 -48 -8 0 12 -3
32 -6 45 -6 21 -10 22 -125 22 l-119 0 0 -425 0 -425 130 0 130 0 0 303 c0
302 0 304 23 325 56 53 148 53 192 1 l25 -31 0 -299 0 -299 130 0 130 0 0 313
c0 348 -7 400 -60 468 -47 58 -100 79 -201 79 -60 0 -96 -6 -125 -19z"/>
<path d="M8500 5751 c-52 -16 -126 -60 -163 -97 -77 -77 -124 -229 -113 -366
19 -234 128 -365 335 -399 175 -29 351 60 401 204 11 31 20 68 20 82 l0 25
-119 0 -119 0 -7 -29 c-21 -98 -175 -119 -221 -30 -27 52 -39 169 -26 258 14
100 31 133 78 156 69 32 141 -4 165 -84 l12 -41 120 0 120 0 -7 53 c-15 115
-94 216 -202 257 -42 15 -77 20 -152 19 -53 0 -108 -4 -122 -8z"/>
<path d="M9317 5736 c-67 -28 -116 -63 -151 -109 -102 -134 -122 -385 -42
-532 96 -175 323 -254 535 -185 75 24 176 92 176 119 0 6 -24 41 -54 77 l-54
65 -27 -26 c-38 -37 -135 -68 -188 -61 -67 9 -118 40 -148 91 -44 77 -49 75
246 75 l260 0 0 74 c0 152 -43 269 -128 348 -70 66 -138 88 -265 88 -84 0
-112 -5 -160 -24z m217 -180 c49 -20 76 -61 76 -112 l0 -44 -135 0 c-135 0
-135 0 -135 23 0 40 43 108 80 128 41 23 69 24 114 5z"/>
<path d="M10334 5741 c-18 -11 -45 -36 -60 -55 -16 -20 -32 -36 -36 -36 -5 0
-8 23 -8 50 l0 50 -125 0 -125 0 0 -425 0 -425 130 0 130 0 0 269 c0 260 1
269 22 296 30 39 76 55 156 55 l69 0 7 111 c3 60 4 114 1 120 -11 17 -128 10
-161 -10z"/>
<path d="M11640 5746 c-83 -32 -110 -48 -156 -93 -26 -27 -61 -77 -78 -113
-30 -63 -31 -69 -31 -215 0 -147 1 -151 31 -215 77 -164 251 -252 437 -221
224 37 337 182 337 432 0 117 -18 193 -61 265 -42 70 -98 117 -178 149 -51 21
-76 25 -163 25 -60 -1 -118 -6 -138 -14z m210 -204 c14 -10 35 -38 48 -62 19
-38 22 -60 22 -151 0 -117 -10 -161 -48 -201 -73 -79 -187 -50 -229 60 -13 34
-18 73 -17 142 1 97 16 153 52 194 42 47 120 56 172 18z"/>
<path d="M13574 5741 c-18 -11 -45 -36 -60 -55 -16 -20 -32 -36 -36 -36 -5 0
-8 23 -8 50 l0 50 -125 0 -125 0 0 -425 0 -425 130 0 130 0 0 269 c0 260 1
269 22 296 31 39 77 55 163 55 l75 0 0 120 0 120 -67 0 c-49 0 -77 -5 -99 -19z"/>
<path d="M14204 5741 c-22 -10 -56 -32 -76 -50 -42 -37 -48 -38 -48 -8 0 12
-3 32 -6 45 -6 21 -10 22 -125 22 l-119 0 0 -425 0 -425 130 0 130 0 0 303 c0
302 0 304 23 325 33 31 77 44 122 37 93 -14 95 -21 95 -369 l0 -296 136 0 136
0 -5 318 c-5 349 -12 397 -68 465 -46 56 -101 77 -200 77 -60 0 -96 -6 -125
-19z"/>
<path d="M14967 5736 c-162 -67 -241 -201 -241 -411 0 -123 21 -203 73 -271
73 -97 182 -154 321 -169 62 -7 169 12 242 43 45 20 128 86 128 102 0 5 -26
38 -57 74 l-57 66 -25 -24 c-64 -60 -191 -78 -268 -38 -48 25 -83 70 -86 109
l-2 28 264 3 264 2 -6 100 c-10 165 -45 251 -135 332 -62 56 -134 78 -255 78
-84 0 -112 -5 -160 -24z m216 -180 c49 -20 69 -50 75 -106 l5 -50 -137 0
c-130 0 -136 1 -136 20 0 31 25 85 51 110 44 41 88 49 142 26z"/>
<path d="M4510 5741 c0 -5 5 -22 11 -38 13 -34 172 -489 204 -588 13 -38 35
-104 50 -145 23 -67 25 -79 14 -118 -16 -56 -56 -90 -120 -98 l-50 -7 3 -91 3
-91 88 -3 c68 -2 96 1 130 16 100 45 123 82 218 355 33 95 79 228 103 297 24
69 73 209 109 312 36 103 68 192 72 197 4 8 -40 11 -139 11 -121 0 -146 -3
-146 -14 0 -8 -11 -52 -25 -98 -36 -117 -80 -265 -94 -317 -7 -24 -16 -40 -20
-35 -9 11 -91 291 -122 417 l-11 47 -139 0 c-80 0 -139 -4 -139 -9z"/>
<path d="M12302 5423 c3 -318 4 -330 27 -380 26 -59 84 -117 140 -140 21 -10
67 -16 111 -17 86 0 154 25 208 76 l32 32 0 -31 c0 -63 1 -63 131 -63 l119 0
0 425 0 425 -130 0 -130 0 0 -300 0 -301 -24 -24 c-61 -61 -175 -53 -208 15
-16 31 -18 69 -18 323 l0 287 -131 0 -131 0 4 -327z"/>
<path d="M15565 5718 c4 -18 16 -54 26 -80 10 -25 36 -99 58 -165 22 -65 72
-210 111 -323 97 -278 91 -253 73 -305 -19 -57 -52 -83 -114 -91 l-50 -7 3
-91 3 -91 89 -3 c80 -3 94 0 143 24 94 48 107 74 256 504 47 135 117 336 156
448 39 112 71 205 71 207 0 3 -62 5 -137 5 l-138 0 -29 -98 c-15 -53 -39 -131
-52 -172 -12 -41 -30 -103 -40 -137 -9 -35 -20 -63 -24 -63 -4 0 -17 35 -29
78 -12 42 -41 147 -65 232 l-43 155 -138 3 -137 3 7 -33z"/>
<path d="M8220 4355 c0 -47 -3 -85 -7 -85 -3 0 -15 7 -25 17 -25 22 -97 23
-131 0 -42 -28 -60 -73 -60 -153 0 -85 23 -132 78 -158 39 -19 96 -14 116 10
15 18 29 18 29 -1 0 -9 9 -15 25 -15 l25 0 0 235 0 235 -25 0 c-25 0 -25 -1
-25 -85z m-23 -117 c20 -19 23 -31 23 -104 0 -77 -2 -84 -26 -103 -28 -22 -74
-27 -103 -11 -19 10 -51 78 -51 108 0 34 22 94 41 113 27 27 86 25 116 -3z"/>
<path d="M8680 4205 l0 -235 25 0 c16 0 25 6 25 15 0 19 14 19 29 1 19 -22 76
-28 115 -12 56 23 76 66 76 161 0 88 -11 118 -53 149 -35 26 -108 27 -135 3
-10 -10 -22 -17 -25 -17 -4 0 -7 38 -7 85 0 84 0 85 -25 85 l-25 0 0 -235z
m194 30 c45 -48 45 -152 1 -199 -30 -33 -81 -35 -119 -5 -24 19 -26 26 -26
104 0 78 2 85 26 104 38 30 89 28 118 -4z"/>
<path d="M12077 4413 c-13 -12 -7 -44 9 -50 20 -7 45 22 37 43 -5 14 -35 19
-46 7z"/>
<path d="M14355 4410 c-12 -20 6 -51 28 -48 31 4 31 52 0 56 -11 2 -24 -2 -28
-8z"/>
<path d="M9740 4190 l0 -220 25 0 c24 0 24 2 27 88 l3 87 91 5 c127 7 166 36
166 124 0 57 -16 93 -54 116 -28 17 -51 20 -145 20 l-113 0 0 -220z m227 162
c51 -39 43 -131 -12 -152 -15 -6 -58 -10 -96 -10 l-69 0 0 90 0 90 78 0 c57 0
83 -5 99 -18z"/>
<path d="M12730 4190 l0 -220 25 0 25 0 0 178 c1 206 -3 206 86 -16 31 -75 58
-143 61 -149 3 -7 15 -13 27 -13 17 0 26 13 45 63 27 72 86 218 106 262 12 27
14 10 14 -147 l1 -178 25 0 25 0 0 221 0 220 -37 -3 -36 -3 -44 -110 c-71
-181 -95 -235 -102 -235 -4 0 -38 79 -76 175 l-69 175 -38 0 -38 0 0 -220z"/>
<path d="M10670 4340 c0 -38 -2 -40 -30 -40 -23 0 -30 -4 -30 -20 0 -16 7 -20
30 -20 l30 0 0 -121 c0 -66 5 -129 11 -140 22 -42 109 -48 109 -8 0 14 -7 19
-29 19 -17 0 -31 6 -35 16 -3 9 -6 65 -6 125 l0 109 30 0 c23 0 30 4 30 20 0
16 -7 20 -30 20 -28 0 -30 2 -30 40 0 36 -2 40 -25 40 -22 0 -25 -4 -25 -40z"/>
<path d="M11800 4340 c0 -38 -2 -40 -30 -40 -23 0 -30 -4 -30 -20 0 -16 7 -20
30 -20 l30 0 0 -114 c0 -63 4 -126 10 -141 17 -46 100 -58 100 -14 0 13 -7 19
-24 19 -32 0 -36 14 -36 141 l0 109 30 0 c23 0 30 4 30 20 0 16 -7 20 -30 20
-28 0 -30 2 -30 40 0 36 -2 40 -25 40 -22 0 -25 -4 -25 -40z"/>
<path d="M13790 4340 c0 -38 -2 -40 -30 -40 -23 0 -30 -4 -30 -20 0 -16 7 -20
30 -20 l30 0 0 -124 c0 -143 10 -166 70 -169 29 -2 36 2 38 21 3 18 -1 22 -21
22 -33 0 -37 14 -37 141 l0 109 30 0 c23 0 30 4 30 20 0 16 -7 20 -30 20 -28
0 -30 2 -30 40 0 36 -2 40 -25 40 -22 0 -25 -4 -25 -40z"/>
<path d="M5545 4290 c-47 -24 -45 -24 -45 -5 0 9 -9 15 -25 15 l-25 0 0 -230
0 -230 30 0 30 0 0 82 c0 80 0 81 20 63 29 -26 101 -26 136 0 42 32 64 82 64
148 0 134 -87 208 -185 157z m92 -45 c49 -35 54 -165 8 -211 -29 -29 -89 -32
-117 -7 -15 13 -18 32 -18 109 0 85 2 94 22 108 29 20 77 20 105 1z"/>
<path d="M5976 4300 c-59 -19 -105 -90 -106 -165 0 -49 35 -122 72 -149 38
-27 117 -28 154 0 56 41 69 69 69 149 0 59 -4 79 -21 101 -43 58 -107 83 -168
64z m80 -45 c58 -24 82 -114 50 -190 -17 -39 -42 -55 -88 -55 -106 0 -133 196
-34 244 38 19 30 19 72 1z"/>
<path d="M6976 4300 c-66 -20 -106 -85 -106 -172 0 -54 24 -108 59 -135 30
-24 89 -35 128 -24 48 14 87 50 72 68 -9 10 -16 9 -39 -7 -34 -24 -92 -26
-125 -4 -20 13 -45 60 -45 85 0 5 51 10 113 11 l112 3 3 27 c4 36 -30 113 -60
131 -32 20 -77 27 -112 17z m61 -40 c30 -11 50 -37 55 -75 3 -18 -4 -20 -76
-23 -44 -2 -83 1 -87 5 -18 18 41 98 77 103 1 0 15 -5 31 -10z"/>
<path d="M7387 4291 c-29 -15 -37 -16 -37 -5 0 8 -10 14 -25 14 l-25 0 0 -165
0 -165 25 0 25 0 0 118 c0 134 9 157 65 168 28 5 35 11 35 30 0 29 -14 30 -63
5z"/>
<path d="M7675 4296 c-64 -29 -95 -85 -95 -169 0 -72 25 -116 83 -145 37 -19
55 -22 87 -17 43 7 104 50 94 66 -8 14 -40 11 -54 -6 -8 -9 -29 -15 -56 -15
-52 0 -91 30 -100 77 l-6 32 113 3 114 3 -3 44 c-3 51 -24 95 -55 115 -34 22
-88 28 -122 12z m103 -62 c12 -14 22 -36 22 -50 0 -24 -2 -24 -85 -24 l-85 0
6 28 c12 50 58 86 99 75 11 -2 30 -16 43 -29z"/>
<path d="M10302 4303 c-37 -8 -89 -65 -102 -113 -32 -118 35 -224 142 -224 52
0 86 19 122 68 17 22 21 42 21 101 0 79 -14 109 -66 146 -26 19 -81 30 -117
22z m73 -47 c42 -18 65 -61 65 -121 0 -82 -36 -125 -103 -125 -27 0 -41 7 -61
31 -22 26 -26 40 -26 93 0 77 29 122 88 135 1 1 18 -5 37 -13z"/>
<path d="M11026 4300 c-102 -31 -140 -199 -64 -285 53 -61 145 -68 209 -16 20
16 21 21 10 35 -12 14 -15 14 -38 -4 -29 -23 -99 -27 -123 -7 -25 19 -50 60
-50 79 0 16 12 18 116 18 l117 0 -7 46 c-3 25 -12 58 -18 72 -26 51 -94 79
-152 62z m110 -82 c26 -51 15 -59 -78 -56 -77 3 -83 5 -80 23 5 31 36 69 63
76 37 9 78 -10 95 -43z"/>
<path d="M11463 4299 c-18 -5 -35 -14 -38 -19 -9 -15 -25 -12 -25 5 0 9 -9 15
-25 15 l-25 0 0 -165 0 -165 25 0 25 0 0 120 c0 115 1 122 25 145 24 25 76 34
102 17 23 -15 33 -65 33 -173 l0 -109 26 0 26 0 -4 140 c-3 134 -4 141 -28
164 -30 29 -73 38 -117 25z"/>
<path d="M12390 4303 c-36 -7 -90 -51 -90 -74 0 -28 27 -24 68 12 28 25 41 30
66 25 39 -8 54 -23 62 -62 l6 -31 -66 -6 c-104 -10 -146 -42 -146 -112 0 -35
44 -82 84 -89 31 -6 61 2 119 32 4 2 7 -3 7 -12 0 -11 9 -16 28 -16 l27 0 -6
132 c-3 73 -9 141 -13 150 -17 37 -88 62 -146 51z m110 -205 c0 -38 -6 -48
-40 -71 -53 -37 -123 -9 -118 46 4 40 35 57 106 57 l52 0 0 -32z"/>
<path d="M13446 4300 c-38 -12 -75 -47 -92 -87 -18 -42 -18 -127 1 -162 47
-91 161 -115 232 -49 17 16 20 24 12 34 -9 11 -16 10 -36 -6 -31 -24 -94 -26
-128 -4 -20 13 -45 60 -45 85 0 5 52 9 116 9 l117 0 -5 43 c-12 104 -85 163
-172 137z m69 -44 c25 -11 36 -23 43 -48 5 -18 7 -36 5 -40 -6 -11 -161 -10
-167 0 -9 15 28 76 54 89 31 16 24 16 65 -1z"/>
<path d="M14160 4303 c-8 -3 -23 -12 -32 -21 -16 -14 -18 -13 -18 1 0 12 -9
17 -30 17 l-30 0 0 -165 0 -165 30 0 30 0 0 123 c0 138 5 151 69 163 25 5 31
11 29 28 -3 21 -22 29 -48 19z"/>
<path d="M14675 4303 c-39 -10 -81 -51 -93 -91 -46 -152 41 -276 168 -242 58
16 121 100 74 100 -9 0 -29 -13 -44 -30 -40 -43 -98 -43 -134 1 -22 26 -26 40
-26 93 0 69 21 109 66 126 34 13 82 -7 100 -41 17 -34 54 -40 54 -10 0 30 -48
79 -88 91 -39 10 -45 11 -77 3z"/>
<path d="M15063 4299 c-39 -11 -73 -53 -73 -89 0 -37 37 -68 109 -90 70 -21
91 -35 91 -60 0 -48 -100 -70 -140 -30 -11 11 -20 25 -20 30 0 6 -11 10 -25
10 -32 0 -32 -20 1 -59 68 -81 215 -54 231 41 4 30 1 41 -20 62 -13 13 -44 30
-68 36 -97 25 -127 51 -98 87 32 38 111 33 124 -8 8 -26 55 -26 55 -1 0 27
-35 60 -77 71 -44 12 -47 12 -90 0z"/>
<path d="M6300 4296 c0 -3 11 -40 24 -83 14 -43 34 -115 46 -160 19 -73 25
-83 44 -83 20 0 27 14 60 120 21 66 41 120 44 120 4 0 24 -54 46 -120 33 -104
41 -120 60 -120 19 0 26 18 66 163 44 153 45 162 27 165 -26 5 -29 -1 -62
-128 -15 -61 -31 -110 -34 -110 -5 0 -33 81 -77 228 -2 7 -14 12 -26 10 -18
-2 -27 -20 -53 -104 -38 -123 -44 -138 -50 -132 -2 2 -12 33 -21 69 -39 158
-44 169 -70 169 -13 0 -24 -2 -24 -4z"/>
<path d="M9089 4273 c5 -16 31 -90 60 -165 45 -122 49 -141 39 -165 -18 -43
-39 -63 -65 -63 -16 0 -23 -6 -23 -20 0 -15 7 -20 29 -20 39 0 76 32 94 82 71
199 127 362 127 370 0 4 -11 8 -24 8 -24 0 -38 -29 -81 -183 -8 -32 -20 -55
-25 -52 -5 3 -26 57 -47 120 -35 109 -39 115 -64 115 -25 0 -27 -2 -20 -27z"/>
<path d="M12070 4135 l0 -165 25 0 25 0 0 165 0 165 -25 0 -25 0 0 -165z"/>
<path d="M14360 4135 c0 -158 1 -165 20 -165 19 0 20 7 20 165 0 158 -1 165
-20 165 -19 0 -20 -7 -20 -165z"/>
</g>
</svg>
