<?xml version="1.0" standalone="no"?>
<!DOCTYPE svg PUBLIC "-//W3C//DTD SVG 20010904//EN"
 "http://www.w3.org/TR/2001/REC-SVG-20010904/DTD/svg10.dtd">
<svg version="1.0"
    xmlns="http://www.w3.org/2000/svg" width="512.000000pt" height="512.000000pt" viewBox="0 0 512.000000 512.000000" preserveAspectRatio="xMidYMid meet">

    <g transform="translate(0.000000,512.000000) scale(0.100000,-0.100000)" fill="blue" stroke="none">
        <path d="M2377 4630 c-571 -72 -1043 -405 -1299 -914 -63 -125 -120 -300 -142
-431 -10 -55 -19 -111 -22 -123 -5 -24 -5 -24 69 -17 41 4 89 4 106 0 l31 -7
0 -747 c0 -712 1 -752 20 -825 11 -43 34 -105 52 -139 47 -88 156 -194 246
-239 140 -71 110 -69 1143 -66 l926 3 -21 -29 c-38 -51 -179 -156 -271 -201
-150 -74 -215 -86 -481 -94 l-231 -6 -35 -27 c-99 -75 -84 -220 28 -273 33
-15 62 -17 268 -12 237 5 309 15 441 59 91 30 212 89 295 144 84 54 228 188
290 268 123 160 209 357 244 562 5 29 2 32 -26 38 -26 5 -29 9 -22 28 5 13 10
368 11 790 l4 767 31 6 c17 4 63 4 103 0 l72 -6 -8 63 c-25 184 -71 334 -160
513 -85 173 -174 299 -304 430 -248 250 -549 409 -895 471 -101 18 -367 26
-463 14z m438 -335 c174 -36 344 -107 495 -208 78 -52 302 -270 332 -323 l17
-30 -72 25 -72 26 -955 0 -955 0 -72 -26 -73 -27 18 30 c31 54 217 241 299
300 183 132 394 217 609 247 97 14 334 6 429 -14z m-588 -1393 c54 -38 63 -73
63 -240 0 -138 -2 -151 -22 -182 -53 -77 -134 -100 -208 -59 -73 41 -85 73
-88 234 -3 130 -1 143 20 185 34 66 79 93 149 88 36 -3 66 -12 86 -26z m843 5
c66 -44 75 -74 75 -242 0 -140 -2 -153 -24 -188 -31 -51 -91 -81 -149 -74 -51
6 -87 29 -120 78 -22 32 -23 40 -20 194 3 146 5 163 25 191 46 65 150 85 213
41z m-213 -853 c98 -73 98 -195 0 -268 -27 -20 -40 -21 -297 -21 -257 0 -270
1 -297 21 -89 66 -99 179 -21 251 42 40 64 42 330 40 243 -2 258 -3 285 -23z"/>
        <path d="M740 3068 c-104 -59 -193 -172 -236 -298 -17 -50 -19 -90 -19 -425
l0 -370 28 -75 c45 -122 138 -229 251 -289 22 -11 40 -20 40 -18 1 1 -1 341
-4 754 l-5 753 -55 -32z"/>
        <path d="M4318 2348 c-2 -414 -3 -754 -3 -755 2 -11 102 54 148 97 71 65 115
131 148 220 24 64 24 70 24 435 0 335 -2 375 -19 425 -40 121 -113 217 -215
285 -38 25 -71 45 -75 45 -3 0 -7 -339 -8 -752z"/>
    </g>
</svg>
