<svg width="193" height="35" viewBox="0 0 193 35" fill="none" xmlns="http://www.w3.org/2000/svg">
<g clip-path="url(#clip0)">
<path d="M31.6562 2.4757e-06H3.25621C2.39649 0.0021148 1.5726 0.34457 0.964691 0.952481C0.35678 1.56039 0.0143194 2.38428 0.012207 3.244V10.884H7.89221V9.636C7.89327 9.17061 8.07861 8.72457 8.4077 8.39549C8.73678 8.0664 9.18282 7.88105 9.64821 7.88H25.2762C25.7412 7.88105 26.1869 8.06653 26.5153 8.39573C26.8438 8.72493 27.0282 9.17097 27.0282 9.636V10.884H34.9122V3.244C34.9101 2.38221 34.566 1.5565 33.9555 0.948245C33.345 0.339991 32.518 -0.00106015 31.6562 2.4757e-06V2.4757e-06Z" fill="black"/>
<path d="M27.016 24.52C27.016 24.985 26.8315 25.431 26.5031 25.7602C26.1746 26.0894 25.729 26.2749 25.264 26.276H9.636C9.17061 26.2749 8.72457 26.0896 8.39549 25.7605C8.0664 25.4314 7.88106 24.9854 7.88 24.52V23.272H0V30.912C0.00211233 31.7717 0.344567 32.5956 0.952478 33.2035C1.56039 33.8114 2.38429 34.1539 3.244 34.156H31.644C32.5037 34.1539 33.3276 33.8114 33.9355 33.2035C34.5434 32.5956 34.8859 31.7717 34.888 30.912V23.272H27.016V24.52Z" fill="black"/>
<path d="M7.88 13.1357H0V21.0157H7.88V13.1357Z" fill="black"/>
<path d="M34.9 13.1357H27.02V21.0157H34.9V13.1357Z" fill="black"/>
<path d="M192.248 23.7001C192.249 23.2607 192.119 22.8309 191.876 22.4652C191.632 22.0995 191.285 21.8144 190.88 21.6458C190.474 21.4773 190.027 21.433 189.596 21.5185C189.165 21.6041 188.769 21.8156 188.458 22.1263C188.148 22.437 187.936 22.8329 187.851 23.264C187.765 23.695 187.809 24.1417 187.978 24.5475C188.146 24.9533 188.432 25.3 188.797 25.5436C189.163 25.7872 189.593 25.9169 190.032 25.9161C190.62 25.915 191.183 25.6812 191.598 25.2659C192.013 24.8505 192.247 24.2875 192.248 23.7001V23.7001ZM190.032 25.3721C189.7 25.3729 189.376 25.2751 189.099 25.0913C188.823 24.9074 188.608 24.6457 188.48 24.3393C188.353 24.0329 188.32 23.6956 188.384 23.3701C188.449 23.0446 188.608 22.7456 188.843 22.511C189.078 22.2763 189.377 22.1166 189.702 22.0521C190.028 21.9876 190.365 22.0211 190.671 22.1484C190.978 22.2758 191.239 22.4912 191.423 22.7674C191.607 23.0437 191.705 23.3683 191.704 23.7001C191.704 24.1435 191.528 24.5688 191.214 24.8824C190.901 25.1959 190.476 25.3721 190.032 25.3721V25.3721Z" fill="#373737"/>
<path d="M190.864 23.2962C190.868 23.2042 190.854 23.1124 190.822 23.0259C190.791 22.9394 190.742 22.86 190.68 22.7922C190.601 22.7194 190.507 22.6635 190.405 22.6278C190.304 22.592 190.196 22.5772 190.088 22.5842H189.288V24.7562H189.74V24.0442H190.02L190.42 24.7562H190.936L190.476 23.9562C190.601 23.8997 190.705 23.8059 190.775 23.6878C190.844 23.5696 190.875 23.4328 190.864 23.2962V23.2962ZM190.408 23.2962C190.411 23.3421 190.403 23.388 190.386 23.4307C190.369 23.4734 190.343 23.5118 190.309 23.5431C190.276 23.5745 190.236 23.598 190.192 23.612C190.148 23.626 190.102 23.6302 190.056 23.6242H189.724V22.9682H190.044C190.276 22.9682 190.408 23.0762 190.408 23.2922V23.2962Z" fill="#373737"/>
<path d="M59.0838 17.228V16.928C59.0838 11.684 55.6438 7.87598 50.9638 7.87598C46.2838 7.87598 42.7798 11.748 42.7798 16.96V17.264C42.7798 22.508 46.2198 26.284 50.8998 26.284C55.5798 26.284 59.0838 22.44 59.0838 17.228ZM46.5558 17.172V16.968C46.5558 13.66 48.2598 11.224 50.8998 11.224C53.4718 11.224 55.2998 13.696 55.2998 17.004V17.204C55.2998 20.512 53.5958 22.984 50.9558 22.984C48.3918 22.976 46.5558 20.468 46.5558 17.172Z" fill="#373737"/>
<path d="M77.0562 17.296V16.828C77.0562 10.848 73.7162 7.87598 70.1722 7.87598C67.6362 7.87598 66.0962 9.34397 64.9962 11.048V8.20797H61.2202V30.96H64.9962V23.244C66.0642 24.812 67.6002 26.248 70.1722 26.248C73.7482 26.248 77.0562 23.244 77.0562 17.296ZM64.9282 17.228V16.896C64.9282 13.42 66.8642 11.216 69.1362 11.216C71.4082 11.216 73.2482 13.388 73.2482 16.928V17.228C73.2482 20.772 71.4442 22.908 69.1362 22.908C66.8282 22.908 64.9282 20.704 64.9282 17.228Z" fill="#373737"/>
<path d="M93.4117 23.544L91.4437 21.204C90.2717 22.34 89.0437 23.076 87.3677 23.076C85.0597 23.076 83.2237 21.476 82.8877 18.5H93.9797C94.0157 17.964 94.0157 17.428 94.0157 17.196C94.0157 11.884 91.4757 7.87598 86.6637 7.87598C82.3197 7.87598 79.1157 11.684 79.1157 16.996V17.264C79.1157 22.808 82.6557 26.284 87.1997 26.284C88.3714 26.3015 89.533 26.0658 90.6052 25.5929C91.6773 25.12 92.6347 24.4211 93.4117 23.544V23.544ZM86.6637 11.048C88.8677 11.048 90.1397 13.088 90.3397 15.892H82.8557C83.1077 12.884 84.5917 11.048 86.6637 11.048Z" fill="#373737"/>
<path d="M105.108 7.87598C102.708 7.87598 101.268 9.24397 100.264 10.816V8.20797H96.4878V25.916H100.264V15.192C100.264 12.752 101.632 11.284 103.604 11.284C105.576 11.284 106.78 12.652 106.78 15.124V25.924H110.552V14.056C110.544 10.28 108.508 7.87598 105.108 7.87598Z" fill="#373737"/>
<path d="M125.764 20.8722V20.8362C125.764 18.0642 123.692 16.7962 120.964 15.5602C118.892 14.6242 117.492 14.0202 117.492 12.8522V12.7722C117.492 11.8042 118.324 11.0362 119.728 11.0362C121.132 11.0362 122.6 11.7042 123.936 12.6082L125.536 9.83221C123.861 8.62633 121.856 7.96194 119.792 7.92822C116.484 7.92822 113.944 9.92822 113.944 13.1082V13.1722C113.944 16.0762 116.148 17.2802 118.788 18.4162C120.892 19.3162 122.264 19.8842 122.264 21.1562V21.1882C122.264 22.2922 121.36 23.1282 119.792 23.1282C118.224 23.1282 116.516 22.3562 114.912 21.0562L113.144 23.7602C114.986 25.3197 117.311 26.1932 119.724 26.2322C123.108 26.2482 125.764 24.3442 125.764 20.8722Z" fill="#373737"/>
<path d="M137.452 25.4161V22.3081C136.825 22.6408 136.126 22.8127 135.416 22.8081C134.216 22.8081 133.512 22.2401 133.512 20.8721V11.4481H137.508V8.20813H133.508V3.43213H129.732V8.20813H127.792L128.416 11.4481H129.732V21.6401C129.732 25.0801 131.704 26.1841 134.308 26.1841C135.404 26.1996 136.486 25.9352 137.452 25.4161V25.4161Z" fill="#373737"/>
<path d="M151.908 9.81201C150.772 8.64401 149 8.00801 146.708 8.00801C144.674 7.99663 142.667 8.47838 140.86 9.41201L141.928 12.42C143.256 11.7508 144.717 11.3847 146.204 11.348C148.604 11.348 150.012 12.584 150.012 14.948V15.684C148.704 15.2176 147.325 14.9807 145.936 14.984C142.196 14.984 139.656 16.852 139.656 20.66V20.828C139.656 24.272 142.128 26.24 145.068 26.24C146.033 26.2791 146.991 26.0692 147.851 25.6307C148.712 25.1922 149.445 24.5397 149.98 23.736V25.908H153.688V14.924C153.688 12.72 153.108 10.98 151.908 9.81201ZM150.048 19.972C150.048 21.972 148.376 23.448 146.204 23.412C144.568 23.38 143.332 22.376 143.332 20.612V20.544C143.332 18.672 144.6 17.572 146.772 17.572C147.895 17.5665 149.008 17.7812 150.048 18.204V19.972Z" fill="#373737"/>
<path d="M169.736 23.6079L167.7 21.1039C166.664 22.1399 165.628 22.9079 164.1 22.9079C161.524 22.9079 159.7 20.6039 159.7 17.1639V16.9959C159.7 13.6519 161.504 11.2839 163.98 11.2839C165.58 11.2839 166.616 12.0839 167.552 13.0519L169.656 10.2799C168.935 9.4988 168.056 8.88064 167.077 8.46675C166.098 8.05285 165.043 7.85276 163.98 7.87987C159.336 7.87987 155.892 11.6879 155.892 16.9639V17.2999C155.892 22.5799 159.236 26.2879 163.844 26.2879C164.965 26.3165 166.078 26.0901 167.098 25.6259C168.119 25.1616 169.021 24.4716 169.736 23.6079V23.6079Z" fill="#373737"/>
<path d="M181.292 16.7241L178.64 19.5721L182.196 25.9161H186.572L181.292 16.7241Z" fill="#373737"/>
<path d="M181.928 8.20799L175.88 15.992V1.79199H172.108V25.916H175.88V20.804L186.404 8.20799H181.928Z" fill="#373737"/>
</g>
<defs>
<clipPath id="clip0">
<rect width="192.248" height="34.156" fill="white"/>
</clipPath>
</defs>
</svg>
