<svg width="120" height="40" viewBox="0 0 120 40" fill="none" xmlns="http://www.w3.org/2000/svg">
<path d="M49.0788 19.564L47.6436 25.5023H50.4959L49.1113 19.564H49.0788Z" fill="black"/>
<path d="M35.0791 26.0265V26.8908C35.0791 31.1875 39.7236 35.5335 45.4491 35.5335H75.9881C81.7136 35.5335 86.3581 31.1862 86.3581 26.8908V26.0265C86.3581 22.0321 82.3378 17.0165 77.169 16.5753C77.0535 13.004 74.1298 10.1451 70.5338 10.1451C69.1375 10.1451 67.8424 10.5785 66.7731 11.3131C64.7227 6.74511 60.1457 3.55664 54.8134 3.55664C47.5735 3.55664 41.7052 9.42358 41.7052 16.6661C41.7052 16.7959 41.7208 16.9192 41.7247 17.0463C37.8406 18.1715 35.0791 22.7186 35.0791 26.0265V26.0265ZM51.5587 29.991L50.8164 27.0387H47.2906L46.5132 29.991H44.5057L47.9303 17.9443H50.3934L53.565 29.991H51.5587ZM63.2537 29.991H61.0268L59.4748 20.9148H59.441L57.9058 29.991H55.6789L53.3496 17.9443H55.2909L56.8754 27.3073H56.9105L58.495 17.9443H60.5207L62.1402 27.3579H62.174L63.7429 17.9443H65.6493L63.2537 29.991V29.991ZM70.3041 30.2259C67.3181 30.2259 66.6433 28.2365 66.6433 26.5482V26.2614H68.5665V26.565C68.5665 28.0327 69.2076 28.775 70.5403 28.775C71.755 28.775 72.361 27.9134 72.361 27.0179C72.361 25.7527 71.7212 25.196 70.6415 24.8767L69.3244 24.4199C67.5686 23.7451 66.8107 22.8354 66.8107 21.1147C66.8107 18.9202 68.2953 17.7056 70.5559 17.7056C73.6431 17.7056 73.9637 19.6288 73.9637 20.8759V21.1471H72.0405V20.894C72.0405 19.7962 71.5512 19.1551 70.3535 19.1551C69.5268 19.1551 68.7339 19.6119 68.7339 20.894C68.7339 21.9231 69.2569 22.4448 70.5403 22.934L71.838 23.4077C73.5419 24.0137 74.2855 24.9442 74.2855 26.5962C74.2868 29.1644 72.7334 30.2259 70.3041 30.2259V30.2259Z" fill="black"/>
<path d="M47.9305 17.9448L44.5059 29.9915H46.5134L47.2907 27.0392H50.8166L51.5589 29.9915H53.5665L50.3949 17.9448H47.9305ZM47.6437 25.5027L49.0777 19.5644H49.1101L50.4935 25.5027H47.6437V25.5027Z" fill="white"/>
<path d="M62.174 27.3584H62.139L60.5195 17.9448H58.495L56.9105 27.3065H56.8755L55.291 17.9448H53.3496L55.679 29.9915H57.9059L59.4398 20.9153H59.4748L61.0269 29.9915H63.2537L65.648 17.9448H63.743L62.174 27.3584Z" fill="white"/>
<path d="M71.8388 23.4116L70.5411 22.9379C69.2589 22.4487 68.7347 21.927 68.7347 20.8979C68.7347 19.6158 69.5276 19.159 70.3542 19.159C71.552 19.159 72.0412 19.8001 72.0412 20.8979V21.151H73.9644V20.8798C73.9644 19.6327 73.6439 17.7095 70.5566 17.7095C68.296 17.7095 66.8114 18.9241 66.8114 21.1186C66.8114 22.8393 67.5693 23.749 69.3251 24.4238L70.6423 24.8806C71.722 25.1999 72.3618 25.7579 72.3618 27.0218C72.3618 27.916 71.7544 28.7789 70.5411 28.7789C69.2083 28.7789 68.5673 28.0366 68.5673 26.5689V26.2653H66.644V26.5521C66.644 28.2404 67.3201 30.2298 70.3049 30.2298C72.7342 30.2298 74.2863 29.1683 74.2863 26.6027C74.2863 24.9468 73.5427 24.0163 71.8388 23.4116V23.4116Z" fill="white"/>
</svg>
