<svg width="120" height="50" viewBox="0 0 120 50" fill="none" xmlns="http://www.w3.org/2000/svg">
<path d="M63.0248 25.4333C63.0248 19.9083 58.4698 15.355 52.9465 15.355C47.4232 15.355 42.8682 19.9166 42.8682 25.4333C42.8682 26.3058 42.9648 27.2667 43.2557 28.1467C43.3523 28.4383 43.4498 28.825 43.5473 29.1158C43.644 29.31 43.7415 29.4075 43.9348 29.4075H46.6482C46.8423 29.4075 47.0357 29.2133 47.0357 29.02C47.0357 28.9233 47.0357 28.9233 46.939 28.8258L46.6473 28.2442C45.194 24.8525 46.744 20.8791 50.1357 19.3275C53.5273 17.8741 57.5007 19.4241 59.0523 22.8158C59.4398 23.6883 59.634 24.56 59.634 25.5291C59.6275 26.4638 59.4295 27.3873 59.0523 28.2425C58.9557 28.4366 58.8582 28.63 58.7607 28.9208C58.664 29.115 58.7607 29.3083 58.9548 29.4042C59.0515 29.4042 59.0515 29.5008 59.149 29.5008H61.959C62.1532 29.5008 62.2507 29.4041 62.3465 29.2091C62.4432 28.9175 62.5407 28.5308 62.6382 28.24C62.8323 27.2708 63.0257 26.3017 63.0257 25.43L63.0248 25.4333Z" fill="#373737"/>
<path d="M64.3815 12.0585C62.7014 12.0574 61.0375 12.3875 59.4851 13.0299C57.9326 13.6724 56.522 14.6146 55.334 15.8026C54.146 16.9906 53.2038 18.4012 52.5613 19.9537C51.9189 21.5061 51.5888 23.17 51.5898 24.8501C51.5898 25.9168 51.6865 27.0793 51.9773 28.1451L52.269 29.1143C52.3657 29.3084 52.4632 29.4059 52.6565 29.4059H55.3698C55.564 29.4059 55.7573 29.2118 55.7573 29.0184V28.8243C55.6607 28.6301 55.5632 28.3409 55.4657 28.1459C53.7215 23.2043 56.2407 17.7768 61.0865 16.0326C65.9323 14.2885 71.4557 16.8076 73.1998 21.6534C73.9756 23.7484 73.9756 26.0518 73.1998 28.1468C73.1032 28.3409 73.0057 28.6301 72.9082 28.8251C72.8107 29.0201 72.9082 29.2126 73.1023 29.3084H76.019C76.2132 29.3084 76.3107 29.2118 76.4065 29.0168C76.5032 28.7251 76.6007 28.3384 76.6982 28.0476C78.5315 21.2643 74.469 14.1893 67.5899 12.4451C66.6207 12.1535 65.5548 12.0576 64.3915 12.0576L64.3815 12.0585Z" fill="#616161"/>
<path d="M71.4569 15.3536C71.4631 13.8628 71.174 12.3856 70.6063 11.0071C70.0386 9.62862 69.2036 8.3762 68.1494 7.3221C67.0953 6.26799 65.8428 5.43307 64.4643 4.8655C63.0858 4.29793 61.6085 4.00895 60.1177 4.01524C58.627 4.00906 57.1499 4.29812 55.7714 4.86574C54.393 5.43336 53.1406 6.2683 52.0865 7.32239C51.0325 8.37649 50.1975 9.62887 49.6299 11.0073C49.0623 12.3857 48.7732 13.8629 48.7794 15.3536C48.7794 15.7411 48.7794 16.0319 48.8761 16.4202H52.1711C51.6877 12.0594 54.9811 8.0869 59.3427 7.6019C63.7044 7.1169 67.6761 10.4119 68.1611 14.7736V15.7502C68.0535 17.3344 67.4804 18.8515 66.5136 20.1111C66.4169 20.3052 66.4169 20.5944 66.6102 20.6927C66.7069 20.7894 66.8044 20.7894 66.9019 20.7894H69.8186C70.0127 20.7894 70.1102 20.6927 70.2061 20.5952C70.9811 19.1419 71.4661 17.3969 71.4661 15.7494V15.3619L71.4569 15.3536Z" fill="#373737"/>
<path d="M14.981 38.6647C14.981 35.9031 17.0526 33.9697 19.8143 33.9697C21.481 33.9697 22.8526 34.7981 23.681 36.1781L22.0143 37.0064C21.6001 36.1781 20.7643 35.7564 19.806 35.6256C18.1393 35.6256 16.906 36.8756 16.906 38.6639C16.906 40.4522 18.156 41.7022 19.806 41.7022C20.7726 41.7022 21.601 41.1497 22.0143 40.3214L23.681 41.1497C22.9893 42.2547 21.886 43.3581 19.8143 43.3581C17.1893 43.3581 14.981 41.4247 14.981 38.6631V38.6647ZM24.6476 43.2214V34.1081H26.4426V43.2222L24.6476 43.2214ZM27.4168 39.9164C27.4168 37.9831 28.7976 36.4639 30.8693 36.4639C32.941 36.4639 34.3218 38.1306 34.3218 39.9164C34.3218 41.8497 32.941 43.3689 30.8693 43.3689C28.7976 43.3689 27.4168 41.8331 27.4168 39.9164ZM32.6643 39.9164C32.6643 38.9497 32.1118 37.9831 30.9976 37.9831C29.8835 37.9831 29.331 38.8114 29.331 39.9164C29.331 40.8831 29.8835 41.8497 30.9976 41.8497C31.9643 41.8497 32.6643 41.0214 32.6643 39.9164ZM39.9835 43.2297V42.4014C39.431 43.0931 38.6026 43.3681 37.636 43.3681C36.1168 43.3681 35.4276 42.5397 35.4276 41.2964V36.6014H37.2226V40.6064C37.2226 41.5731 37.7751 41.8564 38.4726 41.8564C39.0251 41.8564 39.5776 41.5814 39.9918 41.1647V36.7456H41.7868V43.3739H39.9751L39.9835 43.2297Z" fill="#000005"/>
<path d="M47.8481 43.2217V42.3934C47.2956 43.0851 46.5981 43.3601 45.7765 43.3601C44.1098 43.3601 42.8765 42.1101 42.8765 39.9076C42.8765 37.7051 44.1265 36.4551 45.7765 36.4551C46.6048 36.4551 47.2956 36.8692 47.8481 37.4217V34.1084H49.6431V43.2226L47.8481 43.2217ZM47.8481 41.1501V38.8026C47.434 38.3884 46.8815 38.1109 46.329 38.1109C45.3623 38.1109 44.6623 38.9392 44.6623 40.0442C44.6623 41.1492 45.354 41.9776 46.329 41.9776C46.8815 41.8392 47.434 41.5634 47.8481 41.1492V41.1501Z" fill="#000005"/>
<path d="M54.7524 43.2217V34.1084H61.2524V35.7751H56.6941V37.7084H61.1133V39.3751H56.6941V43.1001L54.7524 43.2217ZM61.7941 39.9084C61.7941 37.9751 63.1749 36.4559 65.2466 36.4559C67.3183 36.4559 68.6991 38.1226 68.6991 39.9084C68.6991 41.8417 67.3183 43.3609 65.2466 43.3609C63.1749 43.3609 61.7949 41.8334 61.7949 39.9167L61.7941 39.9084ZM67.0416 39.9084C67.0416 38.9417 66.4891 37.9751 65.3749 37.9751C64.2608 37.9751 63.7083 38.8034 63.7083 39.9084C63.7083 40.8751 64.2608 41.8417 65.3749 41.8417C66.4891 41.8417 67.0416 41.0134 67.0416 39.9084ZM74.3616 43.2217V42.3934C73.8091 43.0851 72.9808 43.3601 72.0141 43.3601C70.4949 43.3601 69.8058 42.5317 69.8058 41.2884V36.5934H71.7391V40.5984C71.7391 41.5651 72.2916 41.8484 72.9891 41.8484C73.5416 41.8484 74.0941 41.5734 74.5083 41.1567V36.7376H76.3033V43.3659H74.37L74.3616 43.2217ZM82.095 43.2217V39.2167C82.095 38.2501 81.5425 37.9667 80.845 37.9667C80.2925 37.9667 79.74 38.2417 79.3258 38.7951V43.2142H77.5308V36.5859H79.3333V37.4142C79.8858 36.7226 80.7141 36.3092 81.6808 36.4476C83.2 36.4476 83.8891 37.2759 83.8891 38.5192V43.2142L82.095 43.2217Z" fill="#000005"/>
<path d="M89.9668 43.2217V42.3934C89.4143 43.0851 88.7168 43.3601 87.8951 43.3601C86.2284 43.3601 84.9951 42.1101 84.9951 39.9076C84.9951 37.7051 86.2451 36.4551 87.8951 36.4551C88.7234 36.4551 89.4143 36.8692 89.9668 37.4217V34.1084H91.7618V43.2226L89.9668 43.2217ZM89.9668 41.1501V38.8026C89.5526 38.3884 89.0001 38.1109 88.4476 38.1109C87.4809 38.1109 86.7809 38.9392 86.7809 40.0442C86.7809 41.1492 87.4726 41.9776 88.4476 41.9776C89.0001 41.8392 89.5526 41.5634 89.9668 41.1492V41.1501Z" fill="#000005"/>
<path d="M93.1421 43.2213V36.5929H94.9371V37.5596C95.4896 36.8679 96.1871 36.4546 97.0088 36.4546V38.1213H96.4563C95.9038 38.1213 95.0754 38.3963 94.7896 38.8129V43.2321L93.1421 43.2213ZM98.3921 44.3263C98.5304 44.4646 98.8063 44.4646 98.9446 44.4646C99.3588 44.4646 99.6363 44.3263 99.9113 43.9121L100.186 43.3596L97.5613 36.5929H99.4946L101.29 41.1513L103.085 36.5929H105.018L101.851 44.3263C101.299 45.5763 100.47 45.8454 99.3654 45.9929C99.0904 45.9929 98.8129 45.9929 98.5371 45.8546L98.3921 44.3263Z" fill="#000005"/>
</svg>
