<svg width="120" height="40" viewBox="0 0 120 40" fill="none" xmlns="http://www.w3.org/2000/svg">
<g clip-path="url(#clip0)">
<path d="M86.4535 29.6406C86.4535 31.3998 85.2355 32.9024 83.4773 32.9024C83.195 32.9171 82.9127 32.872 82.649 32.77C82.3853 32.6681 82.1461 32.5115 81.9472 32.3106C81.7483 32.1097 81.594 31.869 81.4946 31.6043C81.3952 31.3397 81.3529 31.057 81.3704 30.7748C81.3704 29.0269 82.5884 27.5129 84.3466 27.5129C85.7333 27.5129 86.4535 28.5084 86.4535 29.6406ZM82.6411 30.7427C82.6411 31.4516 83.0116 31.9503 83.647 31.9503C84.569 31.9503 85.1827 30.6795 85.1827 29.6509C85.1827 29.1221 84.9395 28.465 84.1976 28.465C83.2134 28.465 82.6411 29.7792 82.6411 30.7427V30.7427ZM94.846 29.6406C94.846 31.3998 93.628 32.9024 91.8699 32.9024C91.5875 32.9171 91.3052 32.872 91.0415 32.7701C90.7778 32.6681 90.5387 32.5115 90.3397 32.3106C90.1408 32.1097 89.9866 31.869 89.8872 31.6044C89.7877 31.3397 89.7454 31.057 89.7629 30.7748C89.7629 29.0269 90.9809 27.513 92.7391 27.513C94.1258 27.513 94.846 28.5085 94.846 29.6406ZM91.0337 30.7427C91.0337 31.4516 91.4042 31.9504 92.0396 31.9504C92.9615 31.9504 93.5753 30.6796 93.5753 29.651C93.5753 29.1222 93.3321 28.465 92.5901 28.465C91.606 28.465 91.0337 29.7793 91.0337 30.7427V30.7427ZM88.2988 25.9412L86.9968 32.7865H88.2261L89.5376 25.9412H88.2988ZM68.4192 27.5233C67.9851 27.5202 67.5547 27.6042 67.1535 27.7702C66.7524 27.9362 66.3885 28.1809 66.0835 28.4899C65.7785 28.7989 65.5385 29.1658 65.3776 29.5691C65.2168 29.9724 65.1384 30.4038 65.1471 30.8379C65.1471 32.0662 65.9408 32.8921 67.2333 32.8921C67.7575 32.9034 68.2774 32.7958 68.7539 32.5773L68.9574 31.5071C68.5377 31.7562 68.0598 31.8905 67.5717 31.8965C66.8835 31.8965 66.4386 31.4619 66.4386 30.6899C66.4386 29.6095 67.1909 28.5188 68.3768 28.5188C68.7093 28.5129 69.0374 28.5959 69.327 28.7593L69.522 27.7336C69.1721 27.5908 68.7972 27.5193 68.4192 27.5233V27.5233ZM61.3741 31.3998C61.2639 31.1726 61.2164 30.92 61.2365 30.6682C63.2275 30.7107 64.6142 30.2864 64.6142 28.9638C64.6142 28.0946 63.9685 27.513 62.9512 27.513C61.1724 27.513 60.0288 29.207 60.0288 30.7634C60.0288 32.0239 60.717 32.9024 62.1472 32.9024C62.8274 32.9089 63.4981 32.7426 64.0964 32.419L64.3075 31.3087C63.7667 31.7138 63.1085 31.9314 62.4328 31.9287C62.2248 31.9459 62.0161 31.9057 61.8294 31.8124C61.6427 31.7192 61.4853 31.5765 61.3741 31.3998V31.3998ZM62.793 28.434C63.1853 28.434 63.4491 28.6348 63.4491 28.9638C63.4491 29.5879 62.6337 29.7576 61.3629 29.7462C61.5118 29.1221 62.0199 28.434 62.7929 28.434L62.793 28.434ZM98.816 27.5129C96.6228 27.5129 95.4997 29.4521 95.4997 31.0838C95.4997 32.0058 95.9553 32.9063 97.0573 32.9063C97.3965 32.9045 97.7302 32.8196 98.029 32.6591C98.3279 32.4985 98.5828 32.2673 98.7717 31.9854L98.6729 32.4366C98.4194 33.6339 97.8047 34.0148 96.9996 34.0148C96.5298 34.0206 96.0653 33.9153 95.6439 33.7074L95.4526 34.7139C95.9335 34.9165 96.4522 35.014 96.9739 34.9999C97.6623 35.0338 98.3416 34.832 98.8998 34.4278C99.4885 33.9415 99.7781 33.1364 99.9704 32.1305L100.437 29.7913C100.504 29.4992 100.539 29.2008 100.543 28.9013C100.543 27.9688 99.8969 27.5129 98.816 27.5129V27.5129ZM99.2082 29.7275L99.1129 30.2043C98.9009 31.2428 98.244 31.8998 97.6082 31.8998C97.0361 31.8998 96.7922 31.423 96.7922 30.8613C96.7922 29.8442 97.5023 28.4561 98.5829 28.4561C98.6733 28.4452 98.765 28.4544 98.8513 28.4831C98.9377 28.5118 99.0166 28.5592 99.0825 28.6221C99.1484 28.6849 99.1995 28.7615 99.2322 28.8464C99.2649 28.9314 99.2784 29.0225 99.2717 29.1133C99.2803 29.32 99.2589 29.5269 99.2082 29.7275V29.7275ZM80.5197 28.9307C80.5197 27.9569 79.9476 27.5129 79.2065 27.5129C78.8264 27.5179 78.4539 27.6199 78.1242 27.8091C77.7946 27.9984 77.5187 28.2688 77.3228 28.5945L77.5138 27.5978H76.4018L75.4149 32.7865H76.6441L77.1005 30.4043C77.3228 29.1956 78.0309 28.5188 78.5917 28.5188C79.0792 28.5188 79.2385 28.8251 79.2385 29.2597C79.2367 29.466 79.2163 29.6717 79.1777 29.8744L78.6238 32.7864H79.8531L80.4293 29.7792C80.4844 29.4996 80.5146 29.2156 80.5197 28.9307V28.9307ZM73.3783 27.5129C73.0462 27.5147 72.7189 27.5925 72.4215 27.7404C72.1241 27.8883 71.8646 28.1024 71.6628 28.3662L72.1274 25.9412H70.8886L69.5866 32.7866H70.8159L71.2723 30.4044C71.4946 29.1957 72.2026 28.5189 72.7635 28.5189C73.2509 28.5189 73.4103 28.8252 73.4103 29.2598C73.4085 29.4661 73.3881 29.6718 73.3495 29.8745L72.7956 32.7865H74.0249L74.601 29.7793C74.6561 29.4996 74.6863 29.2157 74.6914 28.9307C74.6915 27.9569 74.1192 27.5129 73.3783 27.5129V27.5129ZM59.0638 26.3014H57.8646L57.6011 27.6288H56.9129L56.7329 28.5818H57.4221L56.977 30.8802C56.9098 31.1935 56.8741 31.5128 56.8705 31.8332C56.8705 32.4262 57.242 32.8919 58.0885 32.8919C58.3609 32.9015 58.633 32.8659 58.8936 32.7863L59.0796 31.8088C58.9171 31.841 58.7518 31.8566 58.5862 31.8553C58.5235 31.8635 58.4597 31.857 58.3999 31.8363C58.3401 31.8156 58.2859 31.7812 58.2417 31.7359C58.1976 31.6906 58.1645 31.6356 58.1453 31.5753C58.1261 31.515 58.1211 31.4511 58.1309 31.3885C58.1379 31.1424 58.1698 30.8976 58.2261 30.6579L58.6287 28.5819H59.7836L59.9739 27.6289H58.8191L59.0638 26.3014ZM105.614 31.8344L105.587 31.9771H105.273L105.118 32.7865H104.963L105.117 31.9771H104.802L104.829 31.8344H105.614ZM106.776 31.8344L106.594 32.7865H106.439L106.566 32.12L106.18 32.5716H106.087L105.873 32.1186L105.746 32.7865H105.591L105.772 31.8344H105.912L106.17 32.3798L106.635 31.8344H106.776ZM100.495 34.7139C101.439 35.151 102.371 34.9576 103.046 33.7498V33.7478L106.496 27.5978H105.183L103.223 31.437L102.747 27.5978H101.455L102.374 32.648L101.972 33.4542C101.61 34.0718 100.979 33.8703 100.686 33.7075L100.495 34.7139ZM61.9519 17.0685C61.9672 17.5851 61.8764 18.0994 61.6852 18.5796C61.4941 19.0598 61.2065 19.4957 60.8403 19.8605C59.8598 20.8339 58.269 21.3647 56.3563 21.35C54.9836 21.3272 53.5968 20.9936 52.8121 20.5115L53.3348 17.762C54.3725 18.3265 55.5236 18.651 56.7034 18.7116C57.5961 18.7116 58.1975 18.2997 58.1975 17.639C58.1975 17.0401 57.7748 16.6215 56.695 16.0932C54.9871 15.2392 54.1325 14.1565 54.1325 12.8805C54.1325 10.3697 56.271 8.67313 59.4795 8.67313C61.1772 8.67313 62.2825 9.07319 62.8953 9.46646L62.3735 12.2107C61.4548 11.6346 60.3913 11.3314 59.3069 11.3364C58.3719 11.3364 57.7628 11.7281 57.7628 12.3838C57.7628 12.8541 58.2288 13.2756 59.2153 13.7564C60.5002 14.3983 61.9519 15.349 61.9519 17.0685V17.0685ZM39.7126 8.69804C35.1928 8.69804 31.7872 11.9985 31.7872 16.3754C31.7872 19.3981 33.7957 21.3499 36.9113 21.3499C38.0981 21.3787 39.2777 21.1572 40.3732 20.6998L40.9442 17.6842C40.0186 18.1895 38.9821 18.4575 37.9276 18.4642C36.7882 18.4642 35.566 17.8086 35.566 15.9786C35.566 13.8221 37.0954 11.5842 39.6624 11.5842C40.3562 11.5634 41.043 11.7269 41.6529 12.058L42.2117 9.12609C41.4119 8.83155 40.5648 8.68645 39.7126 8.69804V8.69804ZM103.089 18.5383C104.585 18.5417 106.052 18.1276 107.326 17.3426L106.748 20.378C105.029 21.2556 103.01 21.3509 102.221 21.3509C98.8659 21.3509 96.9476 19.4848 96.9476 16.2268C96.9522 14.3363 97.622 12.5079 98.8398 11.0619C99.477 10.3075 100.272 9.70254 101.169 9.28978C102.066 8.87701 103.043 8.66658 104.031 8.67339C106.569 8.67339 108.263 10.1482 108.263 12.335C108.279 12.7926 108.201 13.2488 108.033 13.6747C107.865 14.1006 107.61 14.487 107.285 14.8097C106.073 15.9912 103.085 16.6536 100.364 16.119C100.234 17.6521 101.388 18.5383 103.089 18.5383V18.5383ZM100.758 13.7791C102.874 13.7965 104.065 13.5824 104.585 13.0679C105.147 12.5089 104.971 11.3115 103.584 11.3115C102.024 11.3114 101.031 12.5904 100.758 13.779L100.758 13.7791ZM95.1229 8.69804C90.6031 8.69804 87.1975 11.9985 87.1975 16.3754C87.1975 19.3981 89.206 21.3499 92.3216 21.3499C93.5084 21.3787 94.688 21.1572 95.7835 20.6998L96.3545 17.6842C95.4289 18.1895 94.3924 18.4575 93.3379 18.4642C92.1985 18.4642 90.9763 17.8086 90.9763 15.9786C90.9763 13.8221 92.5057 11.5842 95.0728 11.5842C95.7665 11.5634 96.4533 11.7269 97.0633 12.058L97.622 9.12609C96.8222 8.83156 95.9751 8.68647 95.1229 8.69804ZM86.604 14.2958L85.3034 21.1023H81.8588L82.3064 18.7596C82.0807 19.5394 81.5998 20.221 80.9408 20.6952C80.2819 21.1694 79.4828 21.4088 78.6716 21.375C76.2752 21.375 75.1921 19.2476 75.1908 17.1184C75.1754 14.7343 76.0861 12.4373 77.7311 10.7115C78.3815 10.0551 79.1574 9.53635 80.0125 9.18609C80.8677 8.83584 81.7845 8.66126 82.7085 8.67277C84.172 8.67859 85.2546 9.10219 85.933 9.92433C86.937 11.1412 86.8546 12.9677 86.604 14.2958V14.2958ZM83.2876 12.7298C83.2456 11.8715 82.7988 11.409 81.9977 11.409C80.3014 11.409 78.8317 14.3369 78.833 16.373C78.8335 17.6452 79.305 18.4374 80.1253 18.4374C81.4375 18.4374 82.5675 17.0652 82.9564 15.0558C83.1332 14.2914 83.2441 13.5132 83.2876 12.7298V12.7298ZM31.1938 14.2958L29.8932 21.1023H26.4486L26.8962 18.7596C26.6705 19.5394 26.1896 20.221 25.5306 20.6952C24.8716 21.1694 24.0726 21.4088 23.2614 21.375C20.865 21.375 19.7818 19.2476 19.7806 17.1184C19.7651 14.7343 20.6759 12.4373 22.3208 10.7115C22.9713 10.0551 23.7472 9.53635 24.6023 9.18609C25.4575 8.83584 26.3743 8.66126 27.2984 8.67277C28.7618 8.67859 29.8444 9.10219 30.5227 9.92433C31.5268 11.1412 31.4444 12.9677 31.1938 14.2958V14.2958ZM27.8774 12.7298C27.8353 11.8715 27.3886 11.409 26.5875 11.409C24.8912 11.409 23.4215 14.3369 23.4228 16.373C23.4235 17.6451 23.8948 18.4373 24.7152 18.4373C26.0273 18.4373 27.1574 17.0651 27.5462 15.0557C27.723 14.2913 27.8338 13.5132 27.8774 12.7298V12.7298ZM74.95 13.3014C74.95 16.2585 73.5303 19.2905 70.9713 20.6547C70.1677 21.1013 69.2686 21.3484 68.3496 21.3751C67.0685 21.3751 66.3503 20.8962 65.9408 20.1578L65.0247 24.9997H61.4183L64.4797 8.89704H67.6562L67.2848 10.8516C68.1822 9.54614 69.5112 8.6729 71.0156 8.6729C73.4025 8.6729 74.95 10.4818 74.95 13.3014V13.3014ZM71.1994 13.5745C71.1994 13.0013 71.064 11.6093 69.7431 11.6093C68.3999 11.6093 67.2659 13.1396 66.8263 15.4607C66.6759 16.2544 66.2548 18.6373 67.914 18.6373C69.8083 18.6374 71.1994 15.9484 71.1994 13.5746V13.5745ZM16.0242 11.6027L16.5382 8.89704H13.3622L11 21.3172H14.607L15.581 16.1962C16.1553 13.1766 17.8878 11.9682 20.3533 12.3414L21.0577 8.6368C20.0136 8.54054 18.9657 8.77517 18.0623 9.30746C17.159 9.83976 16.446 10.6427 16.0242 11.6027V11.6027ZM44.9538 21.1023L46.1962 14.5671L48.7533 21.1023H52.6317L49.9859 14.5152L54.8009 8.89704H50.8637L46.2177 14.4536L48.0149 5H44.4331L41.3717 21.1023H44.9538Z" fill="black"/>
</g>
<defs>
<clipPath id="clip0">
<rect width="97.2626" height="30" fill="white" transform="translate(11 5)"/>
</clipPath>
</defs>
</svg>
