<svg width="119" height="34" viewBox="0 0 119 34" fill="none" xmlns="http://www.w3.org/2000/svg">
<path d="M20.3074 32.1843C25.947 31.188 30.605 30.3636 30.6585 30.3523L30.7558 30.3316L25.4314 23.9985C22.503 20.5153 20.1071 17.6518 20.1071 17.6353C20.1071 17.6041 25.6049 2.46417 25.6358 2.41031C25.6462 2.3923 29.3876 8.85182 34.7054 18.0686C39.6839 26.6975 43.7885 33.8121 43.8267 33.8788L43.896 34L26.9748 33.9978L10.0535 33.9956L20.3074 32.1843V32.1843ZM85.1984 30.6526C82.6227 30.4875 81.1246 29.0208 80.7276 26.2755C80.622 25.5452 80.6216 25.5262 80.6108 20.7852L80.6004 16.1966H81.7403H82.8803L82.8892 20.6349C82.8973 24.6351 82.9024 25.1041 82.9407 25.3855C83.0959 26.5275 83.4049 27.2955 83.9309 27.8467C84.352 28.2879 84.8448 28.5462 85.5271 28.6833C85.849 28.748 86.7646 28.7481 87.0581 28.6836C87.7498 28.5314 88.3042 28.2304 88.7932 27.7415C89.3506 27.1843 89.763 26.3938 89.9625 25.4998L90.0297 25.1985L90.0372 20.7226L90.0447 16.2467H91.2085H92.3724V23.283V30.3192H91.2205H90.0687V29.2028C90.0687 28.4443 90.0604 28.0892 90.0428 28.0951C90.0285 28.0999 89.9694 28.1903 89.9113 28.2962C89.5144 29.0201 88.853 29.6821 88.1284 30.0809C87.2598 30.559 86.3886 30.729 85.1984 30.6527L85.1984 30.6526ZM111.342 30.6413C110.433 30.5729 109.476 30.2603 108.693 29.7763C107.044 28.7561 106.068 27.0745 105.782 24.7603C105.684 23.9595 105.672 22.8838 105.754 22.2033C105.939 20.6829 106.536 19.1903 107.387 18.1247C107.605 17.8515 108.1 17.3567 108.373 17.1386C109.111 16.5497 109.973 16.1379 110.889 15.9374C111.423 15.8207 112.363 15.7659 112.93 15.8184C114.355 15.9504 115.66 16.6212 116.548 17.6768C117.449 18.7494 117.945 20.2481 118.008 22.0935C118.018 22.3827 118.02 22.8898 118.013 23.2203L118.001 23.8213L113.012 23.8276L108.022 23.8339V24.0565C108.022 24.7343 108.187 25.5063 108.472 26.1631C108.718 26.7295 109.141 27.348 109.487 27.6473C110.197 28.261 111.065 28.6283 112.016 28.7167C112.369 28.7495 113.267 28.715 113.669 28.6532C114.815 28.4771 115.905 28.0276 116.785 27.3678C116.888 27.2902 116.987 27.2177 117.005 27.2067C117.03 27.1905 117.037 27.3933 117.036 28.2458L117.035 29.305L116.799 29.4508C115.804 30.0665 114.663 30.4618 113.456 30.6098C113.096 30.654 111.773 30.6736 111.342 30.6413L111.342 30.6413ZM115.685 21.708C115.685 20.5727 115.206 19.3115 114.529 18.6621C114.046 18.1986 113.462 17.9154 112.767 17.8078C112.439 17.757 111.747 17.7765 111.4 17.8465C110.668 17.9945 110.062 18.3164 109.534 18.8383C108.978 19.3876 108.561 20.0548 108.299 20.815C108.205 21.0884 108.095 21.5371 108.061 21.7868L108.044 21.9057H111.864H115.685V21.708ZM48.0068 30.2878C48.0127 30.2706 49.7069 25.8198 51.7718 20.3971L55.5261 10.5377L56.7324 10.5377L57.9386 10.5376L58.0387 10.7942C58.3446 11.5786 65.5546 30.2977 65.5546 30.3075C65.5546 30.3139 64.9771 30.319 64.2713 30.3189L62.988 30.3187L61.9488 27.552L60.9097 24.7853L56.7255 24.7853L52.5414 24.7852L52.505 24.8791C52.4851 24.9308 52.0411 26.1757 51.5184 27.6456L50.5682 30.3182L49.2822 30.3186C48.2643 30.319 47.9984 30.3125 48.0068 30.2878V30.2878ZM60.146 22.674C60.146 22.6696 59.4466 20.7737 58.5919 18.461C56.9929 14.1342 56.9034 13.8739 56.7771 13.1793C56.7179 12.8536 56.6879 12.8445 56.6527 13.1417C56.6276 13.3542 56.5186 13.8296 56.4346 14.0932C56.3929 14.2241 55.6728 16.2004 54.8344 18.4851C53.996 20.7698 53.31 22.6487 53.31 22.6605C53.31 22.6723 54.8481 22.6819 56.728 22.6819C58.6079 22.6819 60.146 22.6784 60.146 22.674V22.674ZM66.3308 29.9588V29.5985L70.4995 23.8678L74.6682 18.1372L70.8939 18.1247L67.1196 18.1122L67.113 17.1544L67.1065 16.1966H72.5655H78.0245V16.5201V16.8436L73.8553 22.6055C71.5623 25.7745 69.6862 28.3727 69.6862 28.3792C69.6862 28.3857 71.5398 28.3911 73.8052 28.3911H77.9243V29.3551V30.3191H72.1276H66.3308V29.9588ZM96.9213 30.3024C96.9121 30.2933 96.9046 27.1157 96.9046 23.2412V16.1966H98.0439H99.1832V17.6489C99.1832 18.4477 99.1929 19.1012 99.2048 19.1012C99.2167 19.1012 99.2721 18.9705 99.328 18.8107C99.5842 18.0784 100.028 17.3941 100.601 16.8503C101.116 16.3604 101.706 16.0674 102.401 15.9553C102.596 15.9238 102.761 15.9178 103.152 15.928C103.643 15.9408 103.899 15.9766 104.197 16.0741L104.291 16.1048V17.2874V18.47L104.022 18.3353C103.547 18.0973 103.078 18.0031 102.514 18.0324C102.146 18.0515 101.906 18.0986 101.612 18.2088C101.008 18.4354 100.519 18.8353 100.176 19.3813C99.6809 20.1717 99.3276 21.1876 99.2234 22.1214C99.2047 22.2889 99.1936 23.6536 99.1893 26.344L99.1828 30.3191H98.0604C97.4431 30.3191 96.9305 30.3116 96.9213 30.3024V30.3024ZM0 30.253C0 30.244 2.50881 25.8889 5.57514 20.575L11.1503 10.9132L17.6475 5.46071C21.2209 2.46187 24.1543 0.00460464 24.166 0.000123182C24.1778 -0.00435739 24.1308 0.113956 24.0616 0.263043C23.9923 0.412129 20.8176 7.22165 17.0065 15.3953L10.0774 30.2565L5.03868 30.2628C2.26741 30.2663 0 30.2619 0 30.253V30.253Z" fill="black"/>
</svg>
