<svg width="120" height="41" viewBox="0 0 120 41" fill="none" xmlns="http://www.w3.org/2000/svg">
<path d="M64.3431 5.72113L61.6321 1H54.5197C53.8865 1 53.2964 1.3381 52.989 1.89136L47.2351 11.9176C46.9216 12.4647 46.9216 13.1286 47.2351 13.6819L49.4236 17.4994L52.1284 12.8028L56.1979 5.72113H64.3431V5.72113Z" fill="#616161"/>
<path d="M73.3056 11.9176L67.5517 1.89136C67.232 1.34425 66.648 1 66.021 1H61.6318L64.3428 5.72113L68.4123 12.8028L64.3428 19.8845H69.7524L73.3056 13.6819C73.6129 13.1348 73.6129 12.4647 73.3056 11.9176" fill="#373737"/>
<path d="M69.7459 19.8786H56.185L52.1155 12.7969L49.4106 17.4934L52.9761 23.7022C53.2957 24.2493 53.8797 24.5936 54.5068 24.5936H66.0084C66.6416 24.5936 67.2317 24.2555 67.5391 23.7022L69.7459 19.8786V19.8786Z" fill="black"/>
<path d="M64.3299 19.8787H56.1786L52.1152 12.797L56.1848 5.71533H64.3299L68.4118 12.797L64.3299 19.8787V19.8787ZM60.2604 9.26233C58.2994 9.26233 56.7196 10.8422 56.7196 12.8032C56.7196 14.7642 58.2994 16.344 60.2604 16.344C62.2214 16.344 63.8013 14.7642 63.8013 12.8032C63.8013 10.8422 62.2153 9.26233 60.2604 9.26233V9.26233Z" fill="#E2E3E4"/>
<path d="M49.499 38.176C48.333 38.176 47.3577 37.7837 46.573 36.999C45.7957 36.2143 45.407 35.2353 45.407 34.062C45.407 32.8887 45.7957 31.9133 46.573 31.136C47.3503 30.344 48.3257 29.948 49.499 29.948C50.687 29.948 51.6513 30.377 52.392 31.235L51.666 31.939C51.1013 31.257 50.379 30.916 49.499 30.916C48.6263 30.916 47.8967 31.2093 47.31 31.796C46.7307 32.3753 46.441 33.1307 46.441 34.062C46.441 34.9933 46.7307 35.7487 47.31 36.328C47.8967 36.9147 48.6263 37.208 49.499 37.208C50.4157 37.208 51.2113 36.823 51.886 36.053L52.623 36.768C52.249 37.2153 51.7907 37.5637 51.248 37.813C50.7053 38.055 50.1223 38.176 49.499 38.176ZM54.5343 30.124V38H53.5223V30.124H54.5343ZM55.4057 35.305C55.4057 34.4763 55.666 33.7907 56.1867 33.248C56.7147 32.7053 57.3783 32.434 58.1777 32.434C58.977 32.434 59.637 32.7053 60.1577 33.248C60.6857 33.7907 60.9497 34.4763 60.9497 35.305C60.9497 36.141 60.6857 36.8267 60.1577 37.362C59.637 37.9047 58.977 38.176 58.1777 38.176C57.3783 38.176 56.7147 37.9047 56.1867 37.362C55.666 36.8193 55.4057 36.1337 55.4057 35.305ZM56.4177 35.305C56.4177 35.8843 56.5863 36.3537 56.9237 36.713C57.261 37.0723 57.679 37.252 58.1777 37.252C58.6763 37.252 59.0943 37.0723 59.4317 36.713C59.769 36.3537 59.9377 35.8843 59.9377 35.305C59.9377 34.733 59.769 34.2673 59.4317 33.908C59.087 33.5413 58.669 33.358 58.1777 33.358C57.6863 33.358 57.2683 33.5413 56.9237 33.908C56.5863 34.2673 56.4177 34.733 56.4177 35.305ZM66.5452 38H65.5772V37.252H65.5332C65.3792 37.516 65.1409 37.736 64.8182 37.912C64.5029 38.088 64.1729 38.176 63.8282 38.176C63.1682 38.176 62.6586 37.989 62.2992 37.615C61.9472 37.2337 61.7712 36.6947 61.7712 35.998V32.61H62.7832V35.932C62.8052 36.812 63.2489 37.252 64.1142 37.252C64.5176 37.252 64.8549 37.0907 65.1262 36.768C65.3976 36.438 65.5332 36.0457 65.5332 35.591V32.61H66.5452V38ZM70.1434 37.252C70.6421 37.252 71.0491 37.0723 71.3644 36.713C71.6944 36.3537 71.8594 35.8843 71.8594 35.305C71.8594 34.7403 71.6944 34.2747 71.3644 33.908C71.0418 33.5413 70.6348 33.358 70.1434 33.358C69.6594 33.358 69.2524 33.5413 68.9224 33.908C68.5924 34.2747 68.4274 34.7403 68.4274 35.305C68.4274 35.877 68.5924 36.3427 68.9224 36.702C69.2524 37.0687 69.6594 37.252 70.1434 37.252ZM69.9784 38.176C69.2744 38.176 68.6694 37.8973 68.1634 37.34C67.6648 36.7753 67.4154 36.097 67.4154 35.305C67.4154 34.513 67.6648 33.8347 68.1634 33.27C68.6694 32.7127 69.2744 32.434 69.9784 32.434C70.3744 32.434 70.7338 32.5183 71.0564 32.687C71.3864 32.8557 71.6394 33.0793 71.8154 33.358H71.8594L71.8154 32.61V30.124H72.8274V38H71.8594V37.252H71.8154C71.6394 37.5307 71.3864 37.7543 71.0564 37.923C70.7338 38.0917 70.3744 38.176 69.9784 38.176ZM77.6663 34.81V38H76.6543V30.124H79.3383C80.0203 30.124 80.5996 30.3513 81.0763 30.806C81.5603 31.2607 81.8023 31.8143 81.8023 32.467C81.8023 33.1343 81.5603 33.6917 81.0763 34.139C80.607 34.5863 80.0276 34.81 79.3383 34.81H77.6663ZM77.6663 31.092V33.842H79.3603C79.7636 33.842 80.0973 33.7063 80.3613 33.435C80.6326 33.1637 80.7683 32.841 80.7683 32.467C80.7683 32.1003 80.6326 31.7813 80.3613 31.51C80.0973 31.2313 79.7636 31.092 79.3603 31.092H77.6663ZM83.753 30.124V38H82.741V30.124H83.753ZM85.6694 36.35C85.6694 36.614 85.7794 36.834 85.9994 37.01C86.2267 37.186 86.4907 37.274 86.7914 37.274C87.2167 37.274 87.5944 37.1163 87.9244 36.801C88.2617 36.4857 88.4304 36.1153 88.4304 35.69C88.1151 35.4407 87.6751 35.316 87.1104 35.316C86.6997 35.316 86.3551 35.415 86.0764 35.613C85.8051 35.811 85.6694 36.0567 85.6694 36.35ZM86.9784 32.434C87.7264 32.434 88.3167 32.6357 88.7494 33.039C89.1821 33.435 89.3984 33.9813 89.3984 34.678V38H88.4304V37.252H88.3864C87.9684 37.868 87.4111 38.176 86.7144 38.176C86.1204 38.176 85.6217 38 85.2184 37.648C84.8224 37.296 84.6244 36.856 84.6244 36.328C84.6244 35.7707 84.8334 35.327 85.2514 34.997C85.6767 34.667 86.2414 34.502 86.9454 34.502C87.5467 34.502 88.0417 34.612 88.4304 34.832V34.601C88.4304 34.249 88.2911 33.952 88.0124 33.71C87.7337 33.4607 87.4074 33.336 87.0334 33.336C86.4687 33.336 86.0214 33.5743 85.6914 34.051L84.8004 33.49C85.2917 32.786 86.0177 32.434 86.9784 32.434ZM92.5664 38.088C92.1337 38.088 91.7707 37.9523 91.4774 37.681C91.1841 37.4097 91.0337 37.032 91.0264 36.548V33.534H90.0804V32.61H91.0264V30.96H92.0384V32.61H94.4584V31.829C94.4584 31.2937 94.6271 30.861 94.9644 30.531C95.3091 30.201 95.7491 30.036 96.2844 30.036C96.6511 30.036 96.9517 30.0983 97.1864 30.223L96.9114 31.114C96.7354 31.026 96.5374 30.982 96.3174 30.982C96.0681 30.982 95.8627 31.07 95.7014 31.246C95.5474 31.4147 95.4704 31.642 95.4704 31.928V32.61H96.8784V33.534H95.4704V38H94.4584V33.534H92.0384V36.251C92.0384 36.5663 92.1007 36.7937 92.2254 36.933C92.3574 37.0723 92.5114 37.142 92.6874 37.142C92.8561 37.142 93.0174 37.109 93.1714 37.043L93.4904 37.945C93.2191 38.0403 92.9111 38.088 92.5664 38.088ZM97.2035 35.305C97.2035 34.4763 97.4638 33.7907 97.9845 33.248C98.5125 32.7053 99.1762 32.434 99.9755 32.434C100.775 32.434 101.435 32.7053 101.956 33.248C102.484 33.7907 102.748 34.4763 102.748 35.305C102.748 36.141 102.484 36.8267 101.956 37.362C101.435 37.9047 100.775 38.176 99.9755 38.176C99.1762 38.176 98.5125 37.9047 97.9845 37.362C97.4638 36.8193 97.2035 36.1337 97.2035 35.305ZM98.2155 35.305C98.2155 35.8843 98.3842 36.3537 98.7215 36.713C99.0588 37.0723 99.4768 37.252 99.9755 37.252C100.474 37.252 100.892 37.0723 101.23 36.713C101.567 36.3537 101.736 35.8843 101.736 35.305C101.736 34.733 101.567 34.2673 101.23 33.908C100.885 33.5413 100.467 33.358 99.9755 33.358C99.4842 33.358 99.0662 33.5413 98.7215 33.908C98.3842 34.2673 98.2155 34.733 98.2155 35.305ZM104.571 38H103.559V32.61H104.527V33.49H104.571C104.674 33.204 104.883 32.962 105.198 32.764C105.521 32.5587 105.836 32.456 106.144 32.456C106.438 32.456 106.687 32.5 106.892 32.588L106.584 33.567C106.46 33.5157 106.262 33.49 105.99 33.49C105.609 33.49 105.275 33.644 104.989 33.952C104.711 34.26 104.571 34.6193 104.571 35.03V38ZM108.567 38H107.555V32.61H108.523V33.358H108.567C108.721 33.094 108.956 32.874 109.271 32.698C109.594 32.522 109.913 32.434 110.228 32.434C110.624 32.434 110.973 32.5257 111.273 32.709C111.574 32.8923 111.794 33.1453 111.933 33.468C112.381 32.7787 113 32.434 113.792 32.434C114.416 32.434 114.896 32.6247 115.233 33.006C115.571 33.3873 115.739 33.93 115.739 34.634V38H114.727V34.788C114.727 34.282 114.636 33.919 114.452 33.699C114.269 33.4717 113.961 33.358 113.528 33.358C113.14 33.358 112.813 33.523 112.549 33.853C112.285 34.183 112.153 34.5717 112.153 35.019V38H111.141V34.788C111.141 34.282 111.05 33.919 110.866 33.699C110.683 33.4717 110.375 33.358 109.942 33.358C109.554 33.358 109.227 33.523 108.963 33.853C108.699 34.183 108.567 34.5717 108.567 35.019V38Z" fill="#5F6368"/>
<path d="M7.93496 38.185C7.28938 38.1932 6.64878 38.0711 6.05153 37.8258C5.45428 37.5806 4.91267 37.2173 4.45915 36.7578C3.99135 36.3178 3.62011 35.7853 3.36899 35.1942C3.11786 34.6032 2.99233 33.9663 3.00036 33.3241C2.99265 32.682 3.11833 32.0453 3.36943 31.4542C3.62054 30.8632 3.9916 30.3307 4.45915 29.8905C4.91045 29.4262 5.45106 29.058 6.04841 28.8082C6.64576 28.5584 7.2875 28.4321 7.93496 28.4369C8.55189 28.4287 9.16429 28.5432 9.73658 28.7737C10.3089 29.0043 10.8296 29.3463 11.2686 29.7799L10.3312 30.7331C9.6892 30.1127 8.82762 29.7718 7.93496 29.7851C7.4719 29.7794 7.01272 29.8701 6.5866 30.0515C6.16048 30.2328 5.77674 30.5008 5.45976 30.8384C5.13033 31.1652 4.87045 31.5553 4.69578 31.9852C4.5211 32.4152 4.43523 32.876 4.44335 33.3399C4.43949 33.7986 4.52742 34.2534 4.70198 34.6776C4.87653 35.1018 5.13418 35.4868 5.45976 35.8099C6.11193 36.4598 6.992 36.8295 7.91266 36.8403C8.83331 36.8512 9.72183 36.5022 10.3891 35.8678C10.8022 35.4154 11.0556 34.8401 11.1106 34.23H7.95076V32.8818H12.4219C12.4659 33.1533 12.4835 33.4284 12.4746 33.7033C12.5024 34.2723 12.4145 34.841 12.2163 35.3751C12.018 35.9091 11.7136 36.3974 11.3212 36.8105C10.885 37.2646 10.358 37.6218 9.77457 37.8586C9.19111 38.0954 8.56429 38.2066 7.93496 38.185V38.185ZM18.3308 37.2897C17.7307 37.8649 16.9317 38.186 16.1005 38.186C15.2693 38.186 14.4702 37.8649 13.8702 37.2897C13.5715 37.0001 13.3363 36.6516 13.1795 36.2663C13.0226 35.881 12.9476 35.4673 12.9591 35.0515C12.9479 34.6357 13.0231 34.2221 13.1799 33.8369C13.3367 33.4516 13.5718 33.1031 13.8702 32.8133C14.4708 32.2393 15.2697 31.919 16.1005 31.919C16.9313 31.919 17.7301 32.2393 18.3308 32.8133C18.6292 33.1031 18.8642 33.4516 19.0211 33.8369C19.1779 34.2221 19.2531 34.6357 19.2419 35.0515C19.2527 35.4677 19.1768 35.8817 19.0191 36.267C18.8613 36.6523 18.6251 37.0006 18.3255 37.2897H18.3308ZM14.855 36.4102C15.0146 36.5807 15.2075 36.7166 15.4217 36.8094C15.636 36.9023 15.867 36.9503 16.1005 36.9503C16.334 36.9503 16.565 36.9023 16.7792 36.8094C16.9935 36.7166 17.1864 36.5807 17.346 36.4102C17.52 36.2304 17.6563 36.0175 17.7467 35.7841C17.8372 35.5508 17.88 35.3017 17.8726 35.0515C17.8804 34.8005 17.8378 34.5505 17.7473 34.3162C17.6569 34.082 17.5204 33.8682 17.346 33.6875C17.1843 33.5188 16.9901 33.3846 16.7751 33.2929C16.5602 33.2012 16.3289 33.1539 16.0952 33.1539C15.8615 33.1539 15.6302 33.2012 15.4153 33.2929C15.2003 33.3846 15.0062 33.5188 14.8445 33.6875C14.67 33.8682 14.5336 34.082 14.4431 34.3162C14.3527 34.5505 14.3101 34.8005 14.3178 35.0515C14.3112 35.302 14.3548 35.5514 14.4462 35.7847C14.5375 36.0181 14.6747 36.2308 14.8497 36.4102H14.855ZM25.1876 37.2897C24.5876 37.8649 23.7885 38.186 22.9573 38.186C22.1261 38.186 21.327 37.8649 20.727 37.2897C20.4283 37.0001 20.1931 36.6516 20.0363 36.2663C19.8794 35.881 19.8044 35.4673 19.8159 35.0515C19.8047 34.6357 19.8799 34.2221 20.0367 33.8369C20.1936 33.4516 20.4286 33.1031 20.727 32.8133C21.327 32.2381 22.1261 31.917 22.9573 31.917C23.7885 31.917 24.5876 32.2381 25.1876 32.8133C25.486 33.1031 25.7211 33.4516 25.8779 33.8369C26.0347 34.2221 26.1099 34.6357 26.0987 35.0515C26.1102 35.4673 26.0352 35.881 25.8783 36.2663C25.7215 36.6516 25.4863 37.0001 25.1876 37.2897V37.2897ZM21.7118 36.4102C21.8714 36.5807 22.0643 36.7166 22.2785 36.8094C22.4928 36.9023 22.7238 36.9503 22.9573 36.9503C23.1908 36.9503 23.4218 36.9023 23.6361 36.8094C23.8503 36.7166 24.0432 36.5807 24.2028 36.4102C24.3768 36.2304 24.5131 36.0175 24.6035 35.7841C24.694 35.5508 24.7368 35.3017 24.7294 35.0515C24.7372 34.8005 24.6946 34.5505 24.6042 34.3162C24.5137 34.082 24.3772 33.8682 24.2028 33.6875C24.0411 33.5188 23.8469 33.3846 23.632 33.2929C23.417 33.2012 23.1857 33.1539 22.952 33.1539C22.7183 33.1539 22.4871 33.2012 22.2721 33.2929C22.0572 33.3846 21.863 33.5188 21.7013 33.6875C21.5268 33.8682 21.3904 34.082 21.2999 34.3162C21.2095 34.5505 21.1669 34.8005 21.1746 35.0515C21.168 35.302 21.2116 35.5514 21.303 35.7847C21.3943 36.0181 21.5316 36.2308 21.7065 36.4102H21.7118ZM29.6956 40.9973C29.0644 41.0173 28.4454 40.8203 27.9419 40.439C27.4949 40.103 27.1428 39.6565 26.9203 39.1435L28.121 38.6432C28.2517 38.9498 28.4561 39.2193 28.7161 39.4279C28.9944 39.6522 29.3436 39.7699 29.7009 39.7597C29.9275 39.7734 30.1544 39.7382 30.3661 39.6564C30.5779 39.5747 30.7695 39.4482 30.928 39.2857C31.2453 38.903 31.4019 38.4122 31.3651 37.9164V37.4635H31.3177C31.117 37.7019 30.8636 37.8902 30.5774 38.0136C30.2913 38.137 29.9804 38.1921 29.6693 38.1745C29.2739 38.1757 28.8826 38.0949 28.52 37.9371C28.1574 37.7794 27.8315 37.5482 27.5628 37.2581C27.2712 36.9704 27.0411 36.6264 26.8863 36.2471C26.7315 35.8679 26.6552 35.4611 26.6622 35.0515C26.6549 34.6395 26.731 34.2303 26.8857 33.8484C27.0404 33.4665 27.2707 33.1198 27.5628 32.8291C27.8308 32.5378 28.1565 32.3055 28.5191 32.1468C28.8818 31.9881 29.2735 31.9066 29.6693 31.9075C30.0043 31.9069 30.3353 31.9806 30.6383 32.1234C30.9005 32.2379 31.1342 32.4087 31.3229 32.6237H31.3703V32.1234H32.6764V37.7321C32.7108 38.1758 32.6543 38.6218 32.5103 39.0429C32.3663 39.464 32.1379 39.8512 31.8391 40.181C31.5544 40.4533 31.2181 40.6658 30.8499 40.806C30.4818 40.9462 30.0893 41.0112 29.6956 40.9973V40.9973ZM29.7904 36.9527C30.0153 36.9576 30.2385 36.913 30.4442 36.822C30.6499 36.731 30.8331 36.5958 30.9806 36.426C31.3056 36.0537 31.4769 35.5718 31.4599 35.0778C31.4794 34.5756 31.3082 34.0846 30.9806 33.7033C30.8333 33.5333 30.6502 33.3979 30.4444 33.3069C30.2387 33.2158 30.0154 33.1714 29.7904 33.1767C29.5594 33.1719 29.33 33.2164 29.1175 33.3073C28.9051 33.3981 28.7143 33.5331 28.5581 33.7033C28.2097 34.0709 28.0205 34.561 28.0315 35.0673C28.0261 35.3156 28.0699 35.5626 28.1603 35.794C28.2506 36.0253 28.3858 36.2366 28.5581 36.4155C28.7136 36.5874 28.9039 36.7242 29.1164 36.8168C29.3289 36.9094 29.5587 36.9557 29.7904 36.9527V36.9527ZM34.9989 28.7898V37.9954H33.6244V28.7898H34.9989ZM38.7696 38.185C38.358 38.1956 37.9486 38.1211 37.5671 37.9661C37.1855 37.8111 36.8401 37.5791 36.5525 37.2845C36.2606 36.992 36.0311 36.6432 35.8781 36.2594C35.7251 35.8755 35.6518 35.4646 35.6624 35.0515C35.6469 34.6374 35.7149 34.2244 35.8623 33.8372C36.0098 33.4499 36.2338 33.0963 36.5209 32.7975C36.7914 32.5123 37.1185 32.2868 37.4813 32.1353C37.844 31.9839 38.2344 31.9099 38.6274 31.918C38.9888 31.9142 39.3472 31.9841 39.6807 32.1234C39.9811 32.2446 40.2548 32.4236 40.4864 32.65C40.6853 32.842 40.862 33.0558 41.0131 33.2873C41.1353 33.4827 41.2393 33.689 41.3238 33.9034L41.466 34.2616L37.2529 35.9942C37.3803 36.287 37.5934 36.5342 37.8642 36.7035C38.1349 36.8727 38.4506 36.9559 38.7696 36.9421C39.08 36.943 39.3853 36.8634 39.6557 36.7111C39.9261 36.5588 40.1525 36.339 40.3127 36.0732L41.3659 36.7841C41.0971 37.1687 40.7532 37.4948 40.3548 37.7426C39.881 38.0419 39.3299 38.1958 38.7696 38.185V38.185ZM37.0106 34.9567L39.8124 33.7928C39.726 33.5876 39.5717 33.4184 39.3752 33.3136C39.1553 33.1894 38.9063 33.1258 38.6538 33.1293C38.2252 33.1404 37.8183 33.3202 37.5215 33.6296C37.3439 33.7995 37.206 34.0066 37.1177 34.236C37.0294 34.4655 36.9928 34.7115 37.0106 34.9567Z" fill="#5F6368"/>
</svg>
