<svg width="400" height="200" viewBox="0 0 400 200" fill="none" xmlns="http://www.w3.org/2000/svg">
<path d="M110.174 67L82 83.2624V115.745L90.0425 120.394L89.9857 87.9048L110.117 76.2847L130.248 87.9048V120.38L138.29 115.745V83.234L110.174 67Z" fill="black"/>
<path d="M114.163 120.387L110.145 122.722L106.106 120.408V87.9048L98.0708 92.5471L98.085 125.036L110.138 132L122.205 125.036V92.5471L114.163 87.9048V120.387Z" fill="black"/>
<path d="M156.711 83.4614L167.77 111.401H167.862L178.652 83.4614H182.861V115.475H179.951V87.5785H179.858C179.707 88.0848 179.544 88.5912 179.369 89.0976C179.217 89.514 179.045 89.9754 178.85 90.4817C178.659 90.9928 178.481 91.4684 178.339 91.9156L169.069 115.475H166.428L157.066 91.9227C156.886 91.5063 156.706 91.052 156.526 90.5598C156.346 90.0677 156.181 89.5968 156.029 89.1472C155.849 88.6078 155.669 88.0848 155.49 87.5785H155.397V115.475H152.636V83.4614H156.711Z" fill="black"/>
<path d="M191.322 115.61C190.453 115.37 189.64 114.96 188.93 114.403C188.253 113.861 187.709 113.172 187.34 112.387C186.952 111.583 186.758 110.643 186.758 109.569C186.758 108.197 187.011 107.078 187.518 106.212C188.017 105.356 188.726 104.64 189.576 104.132C190.442 103.611 191.45 103.216 192.6 102.946C193.817 102.667 195.05 102.459 196.291 102.322C197.427 102.203 198.39 102.076 199.18 101.938C199.971 101.801 200.612 101.628 201.104 101.42C201.596 101.212 201.953 100.935 202.176 100.59C202.398 100.244 202.509 99.7734 202.509 99.1772V98.73C202.509 97.1494 202.032 95.9781 201.076 95.2162C200.12 94.4543 198.747 94.0734 196.959 94.0734C192.837 94.0734 190.672 95.7912 190.463 99.2268H187.731C187.882 96.9885 188.71 95.1973 190.215 93.8533C191.72 92.5094 193.965 91.8374 196.951 91.8374C199.488 91.8374 201.487 92.3982 202.95 93.5197C204.412 94.6413 205.143 96.4703 205.143 99.0068V111.585C205.143 112.271 205.271 112.771 205.526 113.083C205.782 113.395 206.163 113.568 206.669 113.601C206.826 113.601 206.983 113.586 207.138 113.559C207.301 113.53 207.485 113.48 207.698 113.424H207.833V115.44C207.587 115.542 207.333 115.625 207.074 115.688C206.706 115.77 206.329 115.809 205.952 115.802C204.94 115.802 204.133 115.539 203.532 115.014C202.931 114.488 202.602 113.66 202.545 112.529V112.039H202.424C202.061 112.529 201.665 112.994 201.239 113.431C200.738 113.937 200.173 114.374 199.557 114.73C198.839 115.141 198.071 115.456 197.271 115.667C196.405 115.908 195.421 116.026 194.318 116.022C193.303 116.03 192.292 115.893 191.315 115.617L191.322 115.61ZM198.144 113.175C199.114 112.773 199.928 112.257 200.586 111.628C201.203 111.047 201.697 110.346 202.036 109.569C202.375 108.792 202.553 107.954 202.559 107.106V102.939C201.811 103.356 200.908 103.678 199.848 103.905C198.788 104.132 197.69 104.319 196.554 104.465C195.57 104.617 194.659 104.773 193.821 104.934C192.983 105.095 192.259 105.355 191.649 105.715C191.046 106.065 190.544 106.567 190.194 107.17C189.834 107.78 189.654 108.58 189.654 109.569C189.654 110.374 189.796 111.046 190.08 111.585C190.346 112.101 190.73 112.546 191.202 112.884C191.693 113.225 192.248 113.461 192.834 113.58C193.483 113.716 194.145 113.782 194.808 113.779C196.062 113.779 197.174 113.577 198.144 113.175" fill="black"/>
<path d="M212.589 121.863C211.037 120.713 210.157 119.273 209.949 117.541H212.632C212.873 118.884 213.597 119.847 214.804 120.43C216.011 121.012 217.452 121.303 219.127 121.303C221.607 121.303 223.436 120.713 224.614 119.535C225.792 118.357 226.381 116.736 226.381 114.673V111.003H226.247C225.381 112.314 224.38 113.312 223.244 113.998C222.108 114.685 220.66 115.028 218.9 115.028C217.376 115.028 216.004 114.744 214.783 114.176C213.577 113.624 212.506 112.814 211.645 111.805C210.779 110.792 210.114 109.576 209.651 108.156C209.187 106.737 208.955 105.177 208.955 103.479C208.955 101.6 209.222 99.9365 209.757 98.4884C210.292 97.0404 211.009 95.8242 211.908 94.8399C212.783 93.871 213.862 93.1075 215.067 92.6039C216.278 92.0966 217.579 91.8383 218.893 91.8443C220.681 91.8443 222.158 92.2111 223.322 92.9446C224.486 93.6781 225.456 94.6695 226.232 95.9188H226.367V92.327H229.114V114.58C229.114 117.145 228.397 119.22 226.963 120.806C225.203 122.656 222.622 123.581 219.219 123.581C216.351 123.581 214.141 123.006 212.589 121.856V121.863ZM224.727 110.144C225.953 108.44 226.566 106.202 226.566 103.429C226.566 102.057 226.417 100.803 226.119 99.6668C225.821 98.531 225.357 97.5538 224.727 96.7351C224.109 95.9212 223.303 95.2686 222.378 94.8328C221.436 94.3832 220.338 94.1584 219.084 94.1584C216.784 94.1584 215 95.0079 213.732 96.7067C212.464 98.4056 211.83 100.675 211.83 103.514C211.82 104.745 211.97 105.971 212.277 107.163C212.575 108.279 213.022 109.25 213.619 110.073C214.202 110.881 214.968 111.541 215.855 111.997C216.749 112.46 217.809 112.692 219.035 112.692C221.599 112.692 223.495 111.841 224.72 110.137" fill="black"/>
<path d="M238.74 115.142C237.435 114.559 236.28 113.687 235.361 112.593C234.452 111.505 233.759 110.22 233.281 108.739C232.803 107.258 232.564 105.653 232.564 103.926C232.564 102.194 232.817 100.59 233.324 99.1134C233.83 97.6369 234.537 96.3545 235.446 95.266C236.35 94.1809 237.482 93.3084 238.761 92.7106C240.058 92.1002 241.513 91.7949 243.126 91.7949C244.977 91.7949 246.536 92.1451 247.804 92.8455C249.046 93.5221 250.105 94.4889 250.892 95.6636C251.682 96.8419 252.243 98.193 252.574 99.7167C252.904 101.261 253.068 102.837 253.064 104.416H235.425C235.443 105.652 235.631 106.88 235.985 108.064C236.297 109.123 236.798 110.116 237.462 110.996C238.108 111.838 238.945 112.514 239.904 112.969C240.888 113.447 242.038 113.686 243.354 113.686C245.294 113.686 246.794 113.216 247.854 112.274C248.914 111.332 249.666 110.071 250.111 108.49H252.801C252.295 110.79 251.249 112.626 249.664 113.999C248.079 115.371 245.975 116.057 243.354 116.057C241.622 116.057 240.084 115.752 238.74 115.142V115.142ZM249.664 99.0211C249.366 98.0226 248.933 97.1566 248.365 96.4231C247.793 95.6874 247.056 95.0965 246.214 94.6982C245.348 94.2817 244.319 94.0735 243.126 94.0735C241.934 94.0735 240.895 94.2817 240.01 94.6982C239.125 95.0979 238.337 95.6867 237.703 96.4231C237.058 97.1883 236.551 98.0603 236.206 98.9998C235.82 100.037 235.572 101.121 235.467 102.222H250.154C250.133 101.138 249.968 100.062 249.664 99.0211" fill="black"/>
<path d="M259.289 92.3275V95.8625H259.382C260.175 94.6823 261.223 93.6951 262.448 92.9734C263.716 92.2115 265.276 91.8306 267.126 91.8306C269.274 91.8306 271.044 92.4505 272.436 93.6903C273.827 94.9302 274.52 96.7143 274.515 99.0425V115.482H271.74V99.3123C271.74 97.5519 271.269 96.26 270.327 95.4366C269.386 94.6131 268.094 94.2038 266.452 94.2085C265.504 94.2032 264.563 94.3717 263.676 94.7054C262.837 95.0162 262.063 95.4781 261.391 96.0683C260.736 96.6463 260.209 97.3547 259.843 98.1481C259.465 98.9765 259.273 99.8781 259.282 100.789V115.482H256.514V92.3275H259.289Z" fill="black"/>
<path d="M281.678 114.694C280.873 114.051 280.471 112.984 280.471 111.493V94.6129H276.979V92.3272H280.471V85.2075H283.247V92.3272H287.548V94.6129H283.247V111.046C283.247 111.883 283.434 112.458 283.807 112.771C284.181 113.083 284.74 113.239 285.483 113.239C285.822 113.237 286.16 113.199 286.491 113.126C286.775 113.069 287.053 112.986 287.321 112.877H287.456V115.248C286.633 115.525 285.769 115.662 284.901 115.653C283.557 115.653 282.482 115.331 281.678 114.687" fill="black"/>
<path d="M295.761 115.141C294.46 114.549 293.306 113.676 292.382 112.586C291.455 111.497 290.745 110.215 290.253 108.739C289.76 107.262 289.514 105.658 289.514 103.926C289.514 102.194 289.76 100.59 290.253 99.1131C290.745 97.6367 291.455 96.3519 292.382 95.2587C293.307 94.1686 294.46 93.296 295.761 92.7033C297.091 92.0928 298.591 91.7876 300.261 91.7876C301.932 91.7876 303.425 92.0928 304.74 92.7033C306.032 93.3003 307.178 94.1725 308.098 95.2587C309.026 96.3471 309.726 97.6319 310.199 99.1131C310.672 100.594 310.911 102.199 310.916 103.926C310.916 105.658 310.677 107.262 310.199 108.739C309.721 110.215 309.021 111.497 308.098 112.586C307.179 113.672 306.033 114.545 304.74 115.141C303.43 115.752 301.937 116.057 300.261 116.057C298.586 116.057 297.086 115.752 295.761 115.141ZM303.669 112.969C304.643 112.472 305.487 111.752 306.132 110.868C306.79 109.974 307.282 108.928 307.608 107.731C308.266 105.237 308.266 102.615 307.608 100.121C307.282 98.9239 306.79 97.878 306.132 96.9836C305.487 96.0993 304.643 95.3794 303.669 94.8825C302.684 94.3714 301.551 94.1182 300.268 94.123C298.986 94.1277 297.843 94.3809 296.84 94.8825C295.871 95.3878 295.029 96.1061 294.377 96.9836C293.705 97.878 293.206 98.9239 292.879 100.121C292.223 102.615 292.223 105.236 292.879 107.731C293.206 108.923 293.705 109.969 294.377 110.868C295.029 111.745 295.871 112.463 296.84 112.969C297.81 113.476 298.953 113.729 300.268 113.729C301.584 113.729 302.717 113.476 303.669 112.969Z" fill="black"/>
<path d="M314.465 96.1746C312.747 96.1746 311.555 94.982 311.555 93.2003C311.555 91.4186 312.776 90.2119 314.465 90.2119C316.155 90.2119 317.383 91.4186 317.383 93.2003C317.383 94.982 316.162 96.1746 314.465 96.1746ZM314.465 90.5526C313.081 90.5526 311.974 91.5038 311.974 93.1932C311.974 94.8827 313.074 95.8196 314.465 95.8196C315.857 95.8196 316.971 94.8685 316.971 93.1932C316.971 91.518 315.857 90.5526 314.465 90.5526ZM315.324 94.7904L314.338 93.3778H314.018V94.7407H313.45V91.4328H314.451C315.14 91.4328 315.601 91.7807 315.601 92.3982C315.601 92.8738 315.345 93.179 314.934 93.3068L315.885 94.6555L315.324 94.7904ZM314.458 91.9581H314.018V92.9306H314.43C314.799 92.9306 315.033 92.7744 315.033 92.4408C315.033 92.1072 314.827 91.951 314.458 91.951" fill="black"/>
</svg>
