<svg width="400" height="200" viewBox="0 0 400 200" fill="none" xmlns="http://www.w3.org/2000/svg">
<path fill-rule="evenodd" clip-rule="evenodd" d="M39.8595 84.1796C41.3636 80.5806 45.1238 78.0021 49.0451 78.0021C78.6433 78.0021 108.242 78.0021 137.893 78.0021C140.472 77.9484 143.05 78.9153 144.93 80.6343C147.079 82.5681 148.315 85.4688 148.261 88.3696C148.261 99.7039 148.261 111.038 148.261 122.426C148.207 127.529 143.749 132.149 138.645 132.257C127.848 132.31 117.051 132.257 106.254 132.257C107.704 135.856 109.155 139.401 110.605 143C104.159 139.455 97.8204 135.802 91.3206 132.31C77.1392 132.203 62.9042 132.31 48.6691 132.257C43.566 132.095 39.1074 127.529 39.0537 122.426C39 111.307 39.0537 100.187 39 89.1216C39 87.4564 39.1612 85.7374 39.8595 84.1796Z" fill="black"/>
<path fill-rule="evenodd" clip-rule="evenodd" d="M83.263 84.9852C84.8745 83.2663 87.9901 83.8034 89.2256 85.791C89.8702 86.8116 89.9239 88.2082 89.3867 89.2826C87.1306 93.7948 86.1637 98.7906 85.3042 103.679C84.2836 110.071 83.4241 116.571 83.7464 123.071C83.8539 124.736 83.0481 126.724 81.2754 127.153C79.6102 127.529 78.0524 126.401 76.9781 125.219C72.1435 120.009 69.4039 113.294 67.4164 106.58C65.4289 110.501 63.4413 114.476 61.5075 118.397C60.1646 121.083 58.7142 123.823 56.5655 125.971C55.6523 126.885 54.0945 127.69 52.9127 126.777C51.1401 125.219 50.7103 122.748 49.9583 120.653C47.1113 110.823 45.4998 100.671 43.8345 90.5718C43.4585 88.9066 44.1568 86.8653 45.8221 86.2207C47.165 85.7373 48.9377 85.6298 50.0657 86.6505C50.8715 87.3488 51.0863 88.4768 51.2475 89.4975C52.4293 97.3402 53.7722 105.129 55.706 112.811C58.9291 106.687 62.1521 100.563 65.3751 94.3857C65.8586 93.4725 66.4495 92.5593 67.309 92.0222C68.4907 91.2701 70.2097 91.3239 71.2303 92.3982C72.0361 93.2577 72.3584 94.4932 72.5732 95.6212C73.5402 100.671 74.8294 105.72 76.7095 110.501C77.5152 103.249 78.5359 95.8898 81.168 89.0677C81.7589 87.6174 82.2961 86.167 83.263 84.9852ZM101.473 88.9066C104.965 88.4768 108.725 89.6586 111.089 92.2908C113.022 94.4932 114.097 97.3402 114.473 100.187C115.064 105.075 114.15 110.232 111.787 114.583C110.444 117.054 108.725 119.472 106.254 120.922C102.655 123.124 97.8204 122.856 94.3287 120.546C91.5354 118.612 89.9776 115.389 89.333 112.166C88.0438 104.807 90.2462 96.6419 95.7791 91.5387C97.3906 90.0884 99.3782 89.1752 101.473 88.9066ZM102.171 96.427C100.506 96.9642 99.4319 98.522 98.5187 99.9186C96.2626 103.571 95.6179 108.352 97.4443 112.274C97.9278 113.294 98.6798 114.422 99.9153 114.637C101.205 114.852 102.386 114.1 103.3 113.294C105.341 111.522 106.361 108.889 106.899 106.257C107.436 103.303 107.167 100.026 105.448 97.4476C104.75 96.4807 103.353 96.051 102.171 96.427ZM129.352 88.9066C132.737 88.4768 136.443 89.5512 138.807 92.0759C140.955 94.3857 142.083 97.4476 142.406 100.563C142.889 105.29 142.03 110.232 139.774 114.422C138.431 116.947 136.658 119.418 134.08 120.922C130.642 123.017 126.022 122.802 122.584 120.761C120.274 119.364 118.716 117.001 117.803 114.476C115.386 106.794 117.427 97.7699 123.014 91.9685C124.84 90.3569 127.043 89.1752 129.352 88.9066ZM130.104 96.427C128.278 97.0716 127.204 98.8443 126.237 100.402C124.196 104.001 123.658 108.675 125.538 112.488C126.022 113.563 126.935 114.583 128.171 114.637C129.514 114.691 130.695 113.831 131.662 112.918C133.757 110.877 134.67 107.976 134.993 105.129C135.315 102.497 134.885 99.65 133.327 97.3939C132.683 96.4807 131.286 96.051 130.104 96.427Z" fill="white"/>
<path fill-rule="evenodd" clip-rule="evenodd" d="M166.632 89.9272C169.587 89.2826 172.702 89.3363 175.657 90.0347C175.657 92.4519 175.657 94.8692 175.657 97.2865C173.239 96.6956 170.5 96.1584 168.19 97.2865C165.397 98.6831 163.839 101.852 163.839 104.861C163.678 107.869 164.698 111.253 167.384 112.972C169.855 114.583 173.025 114.261 175.71 113.509C175.71 115.926 175.71 118.344 175.71 120.761C172.111 121.782 168.19 121.674 164.698 120.385C160.508 118.827 157.178 115.174 155.889 110.877C154.922 107.6 154.814 104.109 155.566 100.778C156.802 95.4601 161.314 91.109 166.632 89.9272ZM188.441 89.5512C192.094 89.1215 196.069 89.7123 199.024 92.0222C201.871 94.2246 203.267 97.8237 203.804 101.262C204.288 105.075 204.181 109.051 202.999 112.703C201.978 115.819 199.883 118.72 196.875 120.17C193.813 121.62 190.214 121.728 186.937 120.976C183.929 120.277 181.243 118.29 179.739 115.55C177.644 111.898 177.268 107.546 177.429 103.41C177.59 99.8649 178.504 96.1584 180.867 93.4188C182.801 91.2164 185.594 89.8735 188.441 89.5512ZM189.569 96.4807C188.012 96.8568 187.098 98.4145 186.722 99.8649C185.97 102.766 186.078 105.774 186.293 108.728C186.508 110.34 186.669 112.059 187.797 113.348C189.301 115.067 192.363 114.852 193.706 113.079C194.619 111.951 194.887 110.501 195.049 109.104C195.371 106.633 195.425 104.109 195.049 101.638C194.78 100.133 194.35 98.5757 193.276 97.4476C192.309 96.4807 190.859 96.1584 189.569 96.4807ZM332.833 90.0347C335.949 89.2289 339.226 89.3363 342.341 89.9809C342.395 92.3982 342.341 94.8155 342.395 97.2865C340.031 96.6956 337.399 96.1584 335.089 97.1791C332.404 98.4145 330.792 101.262 330.577 104.109C330.255 107.332 331.114 110.984 333.961 112.864C336.432 114.583 339.655 114.261 342.395 113.455C342.341 115.873 342.449 118.344 342.341 120.761C338.527 121.728 334.337 121.62 330.738 120.063C326.763 118.344 323.648 114.691 322.52 110.501C321.66 107.278 321.553 103.84 322.358 100.563C323.54 95.5138 327.784 91.3776 332.833 90.0347ZM208.585 90.2495C212.023 90.2495 215.515 90.2495 218.953 90.2495C220.188 95.8361 221.37 101.476 222.444 107.117C223.411 101.423 224.754 95.8361 226.097 90.2495C229.642 90.2495 233.188 90.2495 236.733 90.2495C238.13 100.402 239.473 110.555 240.816 120.653C238.13 120.653 235.39 120.653 232.704 120.653C231.952 113.724 231.308 106.741 230.502 99.8112C228.837 106.741 227.118 113.724 225.453 120.653C223.626 120.653 221.746 120.653 219.92 120.653C218.147 113.724 216.428 106.741 214.602 99.7575C213.903 106.687 213.205 113.67 212.507 120.653C209.928 120.653 207.35 120.653 204.718 120.653C206.007 110.555 207.296 100.402 208.585 90.2495ZM245.758 90.2495C249.196 90.2495 252.687 90.2495 256.125 90.2495C257.361 95.8361 258.542 101.476 259.617 107.117C260.637 101.476 261.927 95.8361 263.269 90.2495H273.852C275.248 100.402 276.591 110.555 277.934 120.653C275.248 120.653 272.509 120.653 269.823 120.653C269.071 113.724 268.373 106.741 267.621 99.8112C265.955 106.741 264.29 113.724 262.571 120.653C260.745 120.653 258.865 120.653 257.038 120.653C255.266 113.67 253.493 106.741 251.72 99.7575C251.022 106.741 250.324 113.67 249.625 120.653C247.047 120.653 244.468 120.653 241.836 120.653C243.179 110.555 244.468 100.402 245.758 90.2495ZM280.298 90.357C285.831 90.2495 291.417 90.357 296.95 90.3032C296.95 92.4519 296.95 94.6006 296.95 96.803C294.157 96.8567 291.364 96.803 288.57 96.803C288.57 98.6831 288.57 100.51 288.57 102.39C290.988 102.39 293.405 102.39 295.822 102.39C295.822 104.485 295.822 106.58 295.822 108.675C293.405 108.675 290.988 108.675 288.57 108.675C288.57 110.501 288.57 112.381 288.57 114.261C291.364 114.261 294.211 114.261 297.004 114.261C297.004 116.41 297.004 118.559 297.004 120.761C291.471 120.761 285.884 120.761 280.352 120.761C280.298 110.608 280.405 100.51 280.298 90.357ZM299.314 90.2495C302.805 90.2495 306.243 90.1958 309.735 90.2495C313.012 90.357 316.503 91.1627 318.921 93.4726C321.123 95.5138 321.875 98.898 321.016 101.745C320.317 104.055 318.598 105.935 316.45 106.956C318.598 111.522 320.801 116.088 323.003 120.653C320.102 120.653 317.202 120.653 314.355 120.653C312.098 115.98 309.896 111.307 307.586 106.687C307.532 111.36 307.586 116.034 307.586 120.653C304.847 120.653 302.107 120.653 299.367 120.653C299.314 110.555 299.314 100.402 299.314 90.2495ZM307.533 96.1047C307.533 98.522 307.533 100.939 307.533 103.357C309.037 103.249 310.648 103.195 311.884 102.282C313.334 101.208 313.173 99.0054 312.26 97.6088C311.132 96.2659 309.144 96.2659 307.533 96.1047ZM344.705 90.3032C350.238 90.3032 355.771 90.3032 361.303 90.3032C361.303 92.4519 361.303 94.6543 361.303 96.803C358.51 96.803 355.663 96.803 352.87 96.803C352.87 98.6831 352.87 100.51 352.87 102.39C355.287 102.39 357.704 102.39 360.122 102.39C360.122 104.485 360.122 106.58 360.122 108.675H352.87C352.87 110.555 352.87 112.381 352.87 114.261C355.717 114.261 358.51 114.261 361.357 114.261C361.357 116.41 361.357 118.559 361.357 120.761C355.824 120.761 350.238 120.761 344.705 120.761C344.651 110.555 344.705 100.402 344.705 90.3032Z" fill="black"/>
</svg>
