<svg width="400" height="200" viewBox="0 0 400 200" fill="none" xmlns="http://www.w3.org/2000/svg">
<path d="M66.1759 100.885C66.1759 105.879 64.6894 110.086 61.7059 113.492C58.5923 117.06 54.5466 118.851 49.5942 118.851C44.6286 118.851 40.596 117.06 37.4824 113.492C34.4976 110.086 33 105.879 33 100.885C33 95.877 34.4976 91.6715 37.4824 88.2783C40.6306 84.7435 44.6764 82.977 49.5942 82.977C54.5466 82.977 58.5923 84.7435 61.7059 88.2783C64.6894 91.6715 66.1759 95.877 66.1759 100.885ZM56.3155 100.885C56.3155 98.623 55.7735 96.7135 54.6885 95.1698C53.4745 93.4151 51.7755 92.5434 49.5942 92.5434C47.4121 92.5434 45.7138 93.4151 44.4986 95.1698C43.4023 96.7135 42.8597 98.623 42.8597 100.885C42.8597 103.135 43.4023 105.067 44.4986 106.657C45.7138 108.412 47.4121 109.285 49.5942 109.285C51.7755 109.285 53.4745 108.412 54.6885 106.657C55.7735 105.067 56.3155 103.135 56.3155 100.885ZM101.828 100.885C101.828 105.55 100.483 109.627 97.7823 113.114C94.8929 116.931 91.1662 118.851 86.6374 118.851C83.4408 118.851 80.7292 117.921 78.5118 116.083C78.5118 116.506 78.559 117.532 78.6537 119.171C78.7479 120.818 78.7943 122.161 78.7943 123.222C78.7943 129.079 77.0489 132 73.5589 132C72.1312 132 70.9643 131.493 70.0321 130.491C69.1124 129.479 68.6521 128.263 68.6521 126.828V88.7381C68.6521 87.3478 69.1241 86.1455 70.0675 85.1333C71.0106 84.1316 72.1789 83.6262 73.5705 83.6262C75.6689 83.6262 77.2026 84.6723 78.17 86.7594C80.2337 84.2381 83.0525 82.977 86.6256 82.977C91.1661 82.977 94.8811 84.861 97.7823 88.6441C100.472 92.1437 101.828 96.2199 101.828 100.885ZM91.9676 100.885C91.9676 98.623 91.4146 96.7135 90.3295 95.1698C89.1136 93.4151 87.416 92.5434 85.2338 92.5434C83.0525 92.5434 81.3542 93.4151 80.139 95.1698C79.0538 96.7135 78.5118 98.623 78.5118 100.885C78.5118 103.135 79.0538 105.067 80.139 106.657C81.3542 108.412 83.0525 109.285 85.2338 109.285C87.416 109.285 89.1136 108.412 90.3295 106.657C91.4146 105.067 91.9676 103.135 91.9676 100.885ZM137.704 99.8258C137.704 101.474 137.314 102.605 136.536 103.242C135.758 103.866 134.543 104.184 132.904 104.184H115.107C115.107 106.069 115.992 107.517 117.761 108.529C119.188 109.32 120.933 109.722 122.997 109.722C124.602 109.722 126.524 109.19 128.776 108.143C131.029 107.082 132.479 106.562 133.105 106.562C134.248 106.562 135.215 106.975 136.017 107.824C136.807 108.661 137.209 109.674 137.209 110.841C137.209 113.537 135.192 115.636 131.158 117.144C128.08 118.274 124.955 118.851 121.759 118.851C116.617 118.851 112.466 117.144 109.293 113.739C106.12 110.334 104.529 106.057 104.529 100.885C104.529 95.9593 106.18 91.7538 109.482 88.2443C112.772 84.7318 116.865 82.977 121.747 82.977C126.288 82.977 130.085 84.6384 133.128 87.9604C136.17 91.2836 137.704 95.2417 137.704 99.8258ZM127.845 97.3502C127.797 95.8417 127.101 94.4756 125.757 93.2375C124.412 92.0013 122.986 91.3895 121.476 91.3895C119.919 91.3895 118.468 92.0013 117.124 93.2375C115.78 94.4756 115.107 95.8417 115.107 97.3502H127.845ZM170.832 113.03C170.832 114.469 170.372 115.681 169.453 116.695C168.521 117.697 167.353 118.204 165.926 118.204C162.482 118.204 160.76 115.47 160.76 110.016C160.76 108.967 160.831 107.318 160.972 105.044C161.126 102.781 161.197 101.121 161.197 100.072C161.197 94.2862 159.322 91.3895 155.583 91.3895C151.844 91.3895 149.981 94.2862 149.981 100.072C149.981 101.121 150.04 102.781 150.146 105.044C150.264 107.318 150.323 108.967 150.323 110.016C150.323 115.47 148.624 118.204 145.228 118.204C143.801 118.204 142.634 117.697 141.713 116.695C140.782 115.681 140.322 114.469 140.322 113.03V88.7277C140.322 87.2995 140.782 86.0881 141.713 85.1098C142.634 84.1198 143.813 83.6262 145.24 83.6262C147.599 83.6262 149.238 84.6723 150.157 86.7594C151.75 84.2381 154.568 82.977 158.602 82.977C162.34 82.977 165.313 83.9658 167.495 85.9333C169.724 88.0439 170.832 90.9408 170.832 94.629V113.03ZM201.766 111.983C201.766 114.209 200.318 115.976 197.415 117.274C195.116 118.321 192.618 118.859 190.092 118.851C185.125 118.851 181.092 117.06 177.979 113.492C174.995 110.086 173.497 105.879 173.497 100.885C173.497 95.877 175.019 91.6487 178.073 88.1844C181.127 84.7096 185.125 82.977 190.092 82.977C192.957 82.977 195.422 83.4009 197.475 84.2381C200.339 85.3691 201.766 87.1355 201.766 89.5394C201.766 90.7521 201.389 91.8244 200.634 92.7556C199.88 93.6744 198.911 94.1458 197.734 94.1458C196.93 94.1458 195.774 93.8748 194.266 93.3459C192.756 92.8026 191.554 92.5434 190.67 92.5434C188.322 92.5434 186.494 93.3799 185.185 95.0522C183.97 96.5607 183.356 98.493 183.356 100.885C183.356 103.135 183.899 105.044 184.997 106.587C186.21 108.39 187.921 109.285 190.102 109.285C191.071 109.285 192.39 109.002 194.077 108.424C195.765 107.86 196.98 107.566 197.734 107.566C198.831 107.566 199.772 108.036 200.576 108.955C201.367 109.886 201.766 110.886 201.766 111.983ZM237.607 113.03C237.607 114.469 237.147 115.681 236.227 116.695C235.296 117.697 234.117 118.204 232.688 118.204C230.542 118.204 229.009 117.155 228.089 115.07C226.026 117.592 223.207 118.851 219.634 118.851C215.059 118.851 211.309 116.931 208.406 113.114C205.764 109.627 204.434 105.55 204.434 100.885C204.434 96.2199 205.764 92.1437 208.406 88.6441C211.356 84.861 215.093 82.977 219.634 82.977C223.207 82.977 226.026 84.2381 228.089 86.7594C229.009 84.6723 230.542 83.6262 232.688 83.6262C234.081 83.6262 235.249 84.1316 236.193 85.1333C237.135 86.1455 237.607 87.336 237.607 88.7277V113.03ZM227.748 100.885C227.748 98.623 227.206 96.7135 226.12 95.1698C224.858 93.4151 223.16 92.5434 221.026 92.5434C218.844 92.5434 217.146 93.4151 215.93 95.1698C214.834 96.7135 214.293 98.623 214.293 100.885C214.293 103.135 214.821 105.067 215.87 106.657C217.122 108.412 218.844 109.285 221.026 109.285C223.207 109.285 224.905 108.412 226.12 106.657C227.206 105.067 227.748 103.135 227.748 100.885ZM262.763 88.0779C262.763 90.1866 261.737 91.6355 259.685 92.4244C257.787 93.0618 255.898 93.7109 254.012 94.3803C251.947 95.5596 250.922 97.7506 250.922 100.932V113.03C250.922 114.469 250.449 115.681 249.531 116.695C248.598 117.697 247.419 118.204 245.992 118.204C244.555 118.204 243.373 117.697 242.456 116.695C241.522 115.681 241.063 114.469 241.063 113.03V88.7277C241.063 87.2995 241.522 86.0881 242.442 85.1098C243.373 84.1198 244.555 83.6262 245.982 83.6262C248.339 83.6262 249.977 84.6723 250.899 86.7594C253.01 84.2381 255.275 82.977 257.716 82.977C259.106 82.977 260.299 83.4826 261.289 84.4842C262.266 85.4977 262.763 86.6993 262.763 88.0779ZM288.485 88.5259C288.485 90.7168 287.624 92.0953 285.916 92.6856C285.076 92.9795 283.317 93.1323 280.641 93.1323V113.03C280.641 114.469 280.17 115.681 279.252 116.695C278.318 117.697 277.139 118.204 275.713 118.204C274.322 118.204 273.141 117.697 272.197 116.695C271.255 115.681 270.783 114.469 270.783 113.03V93.1323C268.754 93.1323 267.28 92.8731 266.349 92.3677C265.077 91.6604 264.447 90.3759 264.447 88.5259C264.447 86.6771 265.097 85.4161 266.406 84.7435C267.291 84.2485 268.754 83.9905 270.783 83.9905V79.7726C270.783 74.8129 272.42 72.3392 275.713 72.3392C278.991 72.3392 280.641 74.8129 280.641 79.7726V83.9905C283.317 83.9905 285.076 84.1434 285.916 84.4372C287.624 85.0263 288.485 86.3943 288.485 88.5259ZM367.694 82.5434C367.667 79.5193 362.074 78.1466 347.593 78.1466C313.617 78.1466 304.997 76.6968 295.773 67C299.653 72.8224 301.776 83.7431 337.688 83.1997C375.157 82.6231 352.299 92.8509 345.648 104.406C357.642 93.7123 367.658 86.6634 367.694 82.5872V82.5434ZM319.95 113.597C319.949 116.408 317.634 118.721 314.82 118.721C311.977 118.721 309.678 116.425 309.678 113.597C309.678 113.596 309.678 113.594 309.678 113.593C309.678 110.777 311.997 108.46 314.817 108.46C314.818 108.46 314.818 108.46 314.82 108.46C317.653 108.46 319.95 110.757 319.95 113.597ZM343.348 113.597C343.347 116.408 341.032 118.721 338.218 118.721C335.378 118.721 333.078 116.425 333.078 113.597C333.078 113.596 333.078 113.594 333.078 113.593C333.078 110.777 335.396 108.46 338.215 108.46C338.216 108.46 338.216 108.46 338.218 108.46C341.051 108.46 343.348 110.757 343.348 113.597Z" fill="url(#paint0_linear)"/>
<defs>
<linearGradient id="paint0_linear" x1="200.347" y1="118.418" x2="200.347" y2="67.0001" gradientUnits="userSpaceOnUse">
<stop/>
<stop offset="1"/>
</linearGradient>
</defs>
</svg>
