<svg width="400" height="200" viewBox="0 0 400 200" fill="none" xmlns="http://www.w3.org/2000/svg">
<g clip-path="url(#clip0)">
<path d="M190.288 149.424C181.555 147.615 173.406 143.581 167.008 137.899C150.584 123.312 145.508 100.396 154.184 80.0068C156.315 74.9997 159.779 69.9182 164.071 65.5035L167.855 61.6114L168.122 84.3915C168.377 106.196 168.435 107.294 169.466 110.042C171.53 115.539 173.742 119.039 177.55 122.832C187.387 132.629 201.817 135.074 214.083 129.022C225.613 123.334 232.881 110.966 232.036 98.4731C231.469 90.0816 228.647 83.9281 222.554 77.7971C217.947 73.1611 212.526 70.1329 206.625 68.8982C200.621 67.6419 200.909 67.4583 200.909 72.5405V76.928L204.201 77.5345C216.948 79.8834 225.38 92.4014 222.722 105.035C221.874 109.069 219.981 112.632 216.942 115.915C212.324 120.902 205.828 123.286 200.155 123.276C190.774 123.257 182.942 117.927 179.146 110.045C179.146 110.045 178.151 107.792 177.832 106.399C175.952 98.2116 177.153 80.9758 177.153 80.9758L177.008 55.7741L178.496 55.0048C179.314 54.5816 180.099 54.2354 180.24 54.2354C180.381 54.2354 180.559 65.8105 180.637 79.9579C180.637 79.9579 178.83 98.5032 181.063 105.61C181.385 106.635 181.997 108.389 181.997 108.389C183.954 112.377 187.091 115.884 191.166 117.814C194.26 119.28 195.818 119.943 200.395 119.943C203.385 119.943 206.035 118.999 209.083 117.597C212.677 115.944 216.799 111.562 218.322 107.562C222.519 96.5385 216.675 84.6791 205.417 81.3722C200.815 80.0207 200.909 79.9463 200.909 84.9496V89.32L203.118 89.9107C211.079 92.0401 213.508 102.711 207.259 108.195C205.05 110.132 203.061 110.988 199.58 110.988C195.861 110.988 192.291 108.737 190.455 105.284C189.353 103.21 189.26 101.243 189.26 100.342C189.26 92.0187 189.079 77.05 189.079 77.05L188.93 51.3732L190.073 51.0893C190.702 50.9332 193.243 50.5468 195.72 50.2308C204.12 49.1588 216.547 51.9078 224.896 56.6847C236.279 63.1973 244.892 74.385 248.478 87.3162C249.711 91.7642 249.849 93.0575 249.849 100.213C249.849 107.336 249.708 108.672 248.501 113.023C243.623 130.598 231.217 143.162 213.477 148.49C209.743 149.612 207.994 149.826 201.406 149.966C196.09 150.079 192.644 149.911 190.288 149.424V149.424Z" fill="black"/>
</g>
<defs>
<clipPath id="clip0">
<rect width="99.8486" height="100" fill="white" transform="translate(150 50)"/>
</clipPath>
</defs>
</svg>
