<?xml version="1.0" encoding="utf-8"?>
<svg version="1.1" fill="blue" id="Layer_1"
    xmlns="http://www.w3.org/2000/svg"
    xmlns:xlink="http://www.w3.org/1999/xlink" x="0px" y="0px" viewBox="0 0 122.88 114.36" style="enable-background:new 0 0 122.88 114.36" xml:space="preserve">
    <style type="text/css">.st0{fill-rule:evenodd;clip-rule:evenodd;}</style>
    <g>
        <path class="st0" d="M3.16,43.74h7.48V0h19.28v43.74h7.11V10.41h14.82v33.33h19.23v-14.1l22.16,14.1h4.03v-14.1l22.16,14.1h0.29 c1.74,0,3.17,1.43,3.17,3.17v64.29c0,1.74-1.43,3.17-3.17,3.17H3.16c-1.74,0-3.16-1.43-3.16-3.17V46.91 C0,45.17,1.42,43.74,3.16,43.74L3.16,43.74z M75.84,74.76H64.72c-0.5,0-0.91,0.41-0.91,0.91v11.12c0,0.5,0.41,0.91,0.91,0.91 l11.12,0c0.5,0,0.91-0.41,0.91-0.91V75.67C76.75,75.17,76.34,74.76,75.84,74.76L75.84,74.76z M76.75,58.1H65.63 c-0.5,0-0.91,0.41-0.91,0.91v11.12c0,0.5,0.41,0.91,0.91,0.91l11.12,0c0.5,0,0.91-0.41,0.91-0.91V59.01 C77.66,58.51,77.25,58.1,76.75,58.1L76.75,58.1z M85.17,59.01h11.12c0.5,0,0.91,0.41,0.91,0.91v11.12c0,0.5-0.41,0.91-0.91,0.91 l-11.12,0c-0.5,0-0.91-0.41-0.91-0.91V59.92C84.26,59.42,84.67,59.01,85.17,59.01L85.17,59.01L85.17,59.01z M102.89,59.92h11.12 c0.5,0,0.91,0.41,0.91,0.91v11.12c0,0.5-0.41,0.91-0.91,0.91h-11.12c-0.5,0-0.91-0.41-0.91-0.91V60.83 C101.98,60.33,102.39,59.92,102.89,59.92L102.89,59.92L102.89,59.92z M101.98,78.41h11.12c0.5,0,0.91,0.41,0.91,0.91v11.12 c0,0.5-0.41,0.91-0.91,0.91l-11.12,0c-0.5,0-0.91-0.41-0.91-0.91V79.32C101.07,78.81,101.47,78.41,101.98,78.41L101.98,78.41 L101.98,78.41z M82.43,79.32h11.12c0.5,0,0.91,0.41,0.91,0.91v11.12c0,0.5-0.41,0.91-0.91,0.91l-11.12,0 c-0.5,0-0.91-0.41-0.91-0.91V80.23C81.52,79.72,81.93,79.32,82.43,79.32L82.43,79.32z"/>
    </g>
</svg>