<svg width="109" height="42" viewBox="0 0 109 42" fill="none" xmlns="http://www.w3.org/2000/svg">
<path fill-rule="evenodd" clip-rule="evenodd" d="M55.8335 0.970184H26.8032L13.4059 14.3674H25.6853H26.8032H42.4362V27.7734L55.8335 14.3674V0.970184ZM0 41.179H13.3973V27.7731V14.3672L0 27.7731V41.179ZM30.7115 41.1707L17.3142 27.7734H31.2661H42.4362L55.8335 41.1707H42.4362H30.7115ZM21.3526 18.2236H17.2883V22.2878H21.3526V18.2236ZM63.676 26.075H66.6483V23.0766H63.676V26.075ZM63.676 41.1794H66.6483V27.7474H63.676V41.1794ZM69.4907 24.2033H72.4631V27.7476H75.1581V29.8967H72.4631V37.2106C72.4631 38.5798 72.7837 38.9091 74.0576 38.9091H75.1321V41.1795H72.931C70.0627 41.1795 69.482 40.4083 69.482 37.6612V29.8967H67.4803V27.7476H69.482V24.2033H69.4907ZM82.1946 30.6936C82.6453 30.6936 83.1132 30.7196 83.6158 30.7716V27.7819C83.3905 27.7559 83.0699 27.7299 82.8446 27.7299C81.2154 27.7472 79.9242 28.6484 79.1963 30.1476V27.7472H76.2759V41.1791H79.2483V34.1425C79.2483 31.4388 80.3228 30.6936 82.1946 30.6936ZM86.5883 35.3126C86.7876 37.8084 88.5381 39.0303 90.2366 39.0303C91.8138 39.0303 93.0096 38.4323 93.5296 37.1585H96.45C95.852 39.3076 93.8069 41.5 90.3579 41.5C86.0423 41.5 83.5639 38.233 83.5639 34.3594C83.5639 30.3125 86.337 27.4441 90.1586 27.4441C94.2748 27.4441 96.8746 30.8151 96.5973 35.3126H86.5883ZM86.5883 33.1375H93.5816C93.5036 31.0404 91.9091 29.7666 90.1586 29.7666C88.7634 29.7666 86.8656 30.6158 86.5883 33.1375ZM108.296 41.1793L103.408 34.186L108.001 27.7474H104.752L101.779 31.8896L98.9109 27.7474H95.4186L100.037 34.368L95.1413 41.1793H98.4083L101.632 36.6644L104.804 41.1793H108.296Z" fill="white"/>
</svg>
