<svg width="19" height="19" viewBox="0 0 19 19" fill="none" xmlns="http://www.w3.org/2000/svg">
<path d="M9.05056 2.16262C11.4476 2.16262 11.7319 2.1716 12.6791 2.21499C15.1121 2.32572 16.2485 3.48011 16.3592 5.89514C16.4026 6.84155 16.4109 7.12585 16.4109 9.52293C16.4109 11.9207 16.4019 12.2043 16.3592 13.1507C16.2478 15.5635 15.1143 16.7201 12.6791 16.8309C11.7319 16.8743 11.4491 16.8832 9.05056 16.8832C6.65348 16.8832 6.36919 16.8743 5.42278 16.8309C2.98381 16.7194 1.85335 15.5598 1.74263 13.15C1.69923 12.2035 1.69026 11.92 1.69026 9.52218C1.69026 7.1251 1.69998 6.84155 1.74263 5.8944C1.8541 3.48011 2.98755 2.32497 5.42278 2.21424C6.36994 2.1716 6.65348 2.16262 9.05056 2.16262ZM9.05056 0.544373C6.61234 0.544373 6.30709 0.554847 5.34946 0.598239C2.08902 0.747869 0.276999 2.5569 0.127369 5.82033C0.083228 6.77871 0.0727539 7.08396 0.0727539 9.52218C0.0727539 11.9604 0.083228 12.2664 0.126621 13.224C0.276251 16.4845 2.08528 18.2965 5.34871 18.4461C6.30709 18.4895 6.61234 18.5 9.05056 18.5C11.4888 18.5 11.7948 18.4895 12.7524 18.4461C16.0099 18.2965 17.8264 16.4875 17.9737 13.224C18.0179 12.2664 18.0284 11.9604 18.0284 9.52218C18.0284 7.08396 18.0179 6.77871 17.9745 5.82108C17.8279 2.56363 16.0166 0.748618 12.7532 0.598988C11.7948 0.554847 11.4888 0.544373 9.05056 0.544373V0.544373ZM9.05056 4.91207C6.5046 4.91207 4.44046 6.97622 4.44046 9.52218C4.44046 12.0681 6.5046 14.133 9.05056 14.133C11.5965 14.133 13.6607 12.0689 13.6607 9.52218C13.6607 6.97622 11.5965 4.91207 9.05056 4.91207ZM9.05056 12.5148C7.39789 12.5148 6.05796 11.1756 6.05796 9.52218C6.05796 7.86951 7.39789 6.52958 9.05056 6.52958C10.7032 6.52958 12.0432 7.86951 12.0432 9.52218C12.0432 11.1756 10.7032 12.5148 9.05056 12.5148ZM13.8432 3.65294C13.2477 3.65294 12.7651 4.13549 12.7651 4.73027C12.7651 5.32505 13.2477 5.80761 13.8432 5.80761C14.438 5.80761 14.9198 5.32505 14.9198 4.73027C14.9198 4.13549 14.438 3.65294 13.8432 3.65294Z" fill="white"/>
</svg>
