<svg width="40" height="40" viewBox="0 0 65 68" fill="none" xmlns="http://www.w3.org/2000/svg">
<g clip-path="url(#clip0_189:3009)">
<path d="M55.4848 10.308C49.3473 3.98162 41.1777 0.5 32.5 0.5C23.8223 0.5 15.6527 3.98162 9.51522 10.308C3.37769 16.6343 0 25.0553 0 34C0 42.9447 3.37769 51.3657 9.51522 57.692C15.6527 64.0185 23.8223 67.5 32.5 67.5C41.1777 67.5 49.3473 64.0185 55.4848 57.692C61.6224 51.3657 65 42.9447 65 34C65 25.0553 61.6224 16.6343 55.4848 10.308ZM55.1003 57.2957C49.059 63.523 41.0403 66.948 32.5137 66.948C23.9871 66.948 15.9548 63.523 9.92711 57.2957C3.87199 51.0685 0.549218 42.8031 0.549218 34C0.549218 25.1969 3.87199 16.9315 9.91339 10.7184C15.941 4.49113 23.9597 1.06612 32.5 1.06612C41.0403 1.06612 49.059 4.49113 55.0866 10.7184C61.128 16.9457 64.4508 25.211 64.4508 34C64.4508 42.789 61.128 51.0685 55.1003 57.2957Z" fill="white"/>
<path d="M34.2983 41.3172L34.9574 41.6144C35.3281 41.4304 35.6714 41.1897 36.0284 40.9775C36.6051 40.567 37.2367 40.0575 37.731 39.4914C37.1543 39.1942 36.5227 38.9819 35.8637 38.8262L35.8224 38.8545C35.3968 39.6754 34.9025 40.4538 34.3533 41.2039L34.2983 41.3172Z" fill="white"/>
<path d="M36.5363 46.2567C36.2754 46.2567 36.1106 46.3841 36.1106 46.6954V49.0872C36.1106 49.3986 36.2754 49.526 36.5363 49.526C36.7971 49.526 36.9619 49.3986 36.9619 49.0872V46.6954C36.9619 46.3841 36.7971 46.2567 36.5363 46.2567Z" fill="white"/>
<path d="M20.4586 46.2708C20.1977 46.2708 20.033 46.384 20.033 46.6954V47.4879C20.033 47.7993 20.1977 47.9267 20.4586 47.9267C20.7195 47.9267 20.8842 47.7993 20.8842 47.4879V46.6954C20.8842 46.384 20.7195 46.2708 20.4586 46.2708Z" fill="white"/>
<path d="M33.0632 41.0623C33.324 41.0764 33.5712 41.1896 33.8321 41.1472C34.4088 40.3829 34.9443 39.5762 35.3837 38.7412L35.3699 38.6987C34.5598 38.5006 33.6811 38.4015 32.816 38.3874C32.7748 39.3073 32.7886 40.114 32.816 41.0198L33.0632 41.0623Z" fill="white"/>
<path d="M34.1748 20.5688C34.7515 21.3613 35.2732 22.1822 35.7538 23.0031C36.4129 22.8615 37.017 22.6068 37.6211 22.352L37.6486 22.3096C36.8385 21.4745 35.8774 20.7527 34.8751 20.2432C34.6416 20.3564 34.3808 20.4555 34.1748 20.5688Z" fill="white"/>
<path d="M32.7336 20.8521C32.7199 21.7012 32.7062 22.6212 32.7336 23.4421C33.5849 23.4421 34.4362 23.3289 35.26 23.1307C34.8619 22.2815 34.2851 21.489 33.681 20.7106C33.379 20.753 33.0357 20.8097 32.7336 20.8521Z" fill="white"/>
<path d="M26.3485 46.2567C26.0876 46.2567 25.9229 46.3841 25.9229 46.6954V49.0872C25.9229 49.3986 26.0876 49.526 26.3485 49.526C26.6093 49.526 26.7741 49.3986 26.7741 49.0872V46.6954C26.7741 46.3841 26.6093 46.2567 26.3485 46.2567Z" fill="white"/>
<path d="M23.41 46.2567C23.1491 46.2567 22.9844 46.3841 22.9844 46.6954V49.0872C22.9844 49.3986 23.1491 49.526 23.41 49.526C23.6709 49.526 23.8356 49.3986 23.8356 49.0872V46.6954C23.8356 46.3841 23.6709 46.2567 23.41 46.2567Z" fill="white"/>
<path d="M29.6163 19.9745C29.5338 19.9037 29.4378 19.8329 29.3417 19.7622C29.2318 19.6631 29.1494 19.8046 29.0258 19.7763V19.748C28.9709 19.748 28.9297 19.7905 28.8886 19.8471C27.7626 20.2151 26.6917 20.767 25.7168 21.4888V21.5171C26.0875 21.786 26.472 22.0125 26.8839 22.1682C27.7352 21.2907 28.6689 20.5689 29.6163 19.9745Z" fill="white"/>
<path d="M30.1523 19.7479C31.5528 20.6679 33.7223 20.5688 35.0541 19.5781V19.5498C33.4477 19.1394 31.5391 19.1677 29.9189 19.5498C29.9189 19.663 30.07 19.6913 30.1523 19.7479Z" fill="white"/>
<path d="M38.1709 22.1114L39.2281 21.5028L39.2556 21.4462C38.1572 20.6395 36.9489 20.0593 35.6582 19.7054C35.5484 19.7762 35.3973 19.8611 35.3699 19.9743C36.331 20.5546 37.2784 21.2764 38.0885 22.1114H38.1709Z" fill="white"/>
<path d="M31.2649 20.6962C30.6333 21.4605 30.1115 22.2813 29.6721 23.1305C30.0841 23.272 30.6058 23.3145 31.0177 23.3853C31.4433 23.4135 31.8278 23.4985 32.2534 23.4277C32.2534 22.5786 32.2809 21.6444 32.2397 20.8377L31.2649 20.6962Z" fill="white"/>
<path d="M40.2028 28.9331C39.9144 29.9097 39.9831 31.0419 40.038 32.1034C40.093 32.6412 40.1616 33.2215 40.6284 33.5611C41.1914 33.8867 42.0152 33.9574 42.6331 33.6885C43.0175 33.547 43.2647 33.1648 43.3334 32.7827C43.4843 31.8769 43.4157 30.8296 43.4294 29.9521C43.3883 29.5275 43.402 29.0746 43.1686 28.7066C42.7978 28.2113 42.2211 28.1122 41.617 28.1122C41.0541 28.1689 40.4225 28.3246 40.2028 28.9331Z" fill="white"/>
<path d="M30.757 20.5404C30.5236 20.4272 30.3039 20.3565 30.0705 20.2574C29.0956 20.781 28.2031 21.4604 27.3656 22.2812L27.3381 22.3803C27.9148 22.6492 28.5326 22.8473 29.1643 23.0172L29.2192 23.003C29.6723 22.2105 30.1391 21.4038 30.7158 20.6678L30.757 20.5404Z" fill="white"/>
<path d="M32.5007 56.7438C44.6796 56.7438 54.5655 46.5678 54.5655 34C54.5655 21.4322 44.6796 11.2562 32.5007 11.2562C20.3217 11.2562 10.4358 21.4464 10.4358 34C10.4358 46.5537 20.3217 56.7438 32.5007 56.7438ZM21.6947 49.0163C21.6947 49.7664 21.2966 50.1768 20.4453 50.1768C19.6489 50.1768 19.2233 49.7664 19.2233 49.0587V48.9455H19.9922V49.1012C19.9922 49.4125 20.1569 49.54 20.4178 49.54C20.7061 49.54 20.8709 49.4125 20.8709 48.988V48.1813C20.7336 48.436 20.4865 48.5634 20.1295 48.5634C19.5254 48.5634 19.2233 48.1954 19.2233 47.5443V46.7376C19.2233 46.03 19.6627 45.6195 20.459 45.6195C21.2554 45.6195 21.6947 46.03 21.6947 46.7376V49.0163ZM24.6468 49.0587C24.6468 49.7664 24.2074 50.1768 23.4111 50.1768C22.6147 50.1768 22.1753 49.7664 22.1753 49.0587V46.7518C22.1753 46.0442 22.6147 45.6337 23.4111 45.6337C24.2074 45.6337 24.6468 46.0442 24.6468 46.7518V49.0587ZM27.5851 49.0587C27.5851 49.7664 27.1457 50.1768 26.3494 50.1768C25.553 50.1768 25.1136 49.7664 25.1136 49.0587V46.7518C25.1136 46.0442 25.553 45.6337 26.3494 45.6337C27.1457 45.6337 27.5851 46.0442 27.5851 46.7518V49.0587ZM30.0703 50.1202H29.2466V46.7376H28.6149V46.2423C29.2466 46.2423 29.3838 45.9876 29.5074 45.6904H30.0566V50.1202H30.0703ZM31.8416 50.1202H31.0589V49.4409H31.8416V50.1202ZM31.8416 47.7H31.0589V47.0207H31.8416V47.7ZM33.2421 49.4834H34.7799V50.1202H32.4183V49.5682C32.4183 49.0729 32.6242 48.7049 33.2284 48.1529C33.8462 47.5868 34.0247 47.233 34.0247 46.766C34.0247 46.3697 33.8599 46.2565 33.5991 46.2565C33.3382 46.2565 33.1734 46.3838 33.1734 46.6952V47.1764H32.4045V46.7518C32.4045 46.0442 32.8164 45.6337 33.6265 45.6337C34.4229 45.6337 34.8485 46.0442 34.8485 46.7518C34.8485 47.3462 34.6014 47.8133 33.8462 48.5068C33.3656 48.9455 33.2284 49.1578 33.2284 49.3984C33.2421 49.4267 33.2421 49.455 33.2421 49.4834ZM37.7731 49.0587C37.7731 49.7664 37.3337 50.1768 36.5374 50.1768C35.741 50.1768 35.3016 49.7664 35.3016 49.0587V46.7518C35.3016 46.0442 35.741 45.6337 36.5374 45.6337C37.3337 45.6337 37.7731 46.0442 37.7731 46.7518V49.0587ZM40.2583 50.1202H39.4483V46.7376H38.8166V46.2423C39.4483 46.2423 39.5855 45.9876 39.7091 45.6904H40.2583V50.1202ZM30.8941 42.9446C29.5349 42.7607 28.2442 42.3219 27.0359 41.7134C27.0634 41.6992 27.0359 41.6709 27.0222 41.6709C27.0085 41.6709 27.0085 41.685 27.0085 41.685C25.2235 40.7651 23.5072 39.2225 22.4087 37.4533C22.5873 37.4391 22.7108 37.425 22.903 37.4533C23.5484 38.4299 24.3997 39.364 25.3196 40.0716C25.7453 39.8735 26.1571 39.5904 26.5691 39.3498C26.0748 38.7271 25.5942 38.1185 25.2235 37.4391C25.3882 37.4675 25.7041 37.3118 25.7727 37.5807C26.116 38.1044 26.5279 38.628 26.9535 39.1092L27.0085 39.1375C27.6675 38.8544 28.3403 38.6139 29.0269 38.4016L29.068 38.3591L28.6836 37.4391C28.7934 37.3967 28.9582 37.425 29.1092 37.425L29.5212 38.2459C30.4136 38.0619 31.3198 37.9487 32.281 37.9062C32.377 37.7505 32.2947 37.609 32.3221 37.425H32.7204C32.7753 37.5524 32.7204 37.7505 32.7615 37.892C33.6815 37.9487 34.6701 38.0619 35.5762 38.2601L35.9882 37.425H36.4001C36.3451 37.7364 36.1392 38.0336 36.0294 38.3449L36.1117 38.4016C36.7983 38.5856 37.4162 38.8403 38.0889 39.1092C38.5969 38.5997 38.9951 37.9911 39.3796 37.425H39.8602C39.4894 38.0902 39.0226 38.6988 38.5283 39.3073C38.8991 39.548 39.3109 39.7602 39.6954 40.0009C39.7229 40.0433 39.8189 40.0575 39.8464 40.015C40.7389 39.3073 41.549 38.3874 42.1806 37.4391C42.3316 37.425 42.5376 37.425 42.6749 37.4391C40.0798 41.5293 35.59 43.5816 30.8941 42.9446ZM33.2009 25.7347C33.8874 25.7064 34.725 25.7064 35.4252 25.7205C35.439 27.0085 35.4802 28.1265 35.4527 29.3862C34.725 29.4145 33.9424 29.4003 33.2696 29.4003C32.6379 28.3954 31.5395 28.0275 30.4685 27.8718C29.9605 27.8577 29.2877 27.702 28.9994 28.2115C28.9719 28.3813 29.0406 28.5228 29.1641 28.6219L29.4387 28.7634L33.146 29.8673C34.3817 30.1929 35.6037 31.3817 35.7822 32.6979C35.947 34.0425 35.3428 35.3021 34.1895 35.9531C32.6105 36.7881 30.5646 36.6324 28.9719 35.9531C28.711 35.8116 28.4502 35.6559 28.1893 35.5427L28.1618 36.2928L25.8688 36.3069C25.8276 35.0615 25.8414 33.632 25.8688 32.3724L27.9284 32.3583C28.052 32.514 28.1343 32.6979 28.2442 32.8536C29.2877 33.9717 30.8392 34.2831 32.281 33.8727C32.3908 33.816 32.5281 33.7311 32.5281 33.6037C32.5556 33.4339 32.377 33.2923 32.2398 33.2357C30.8667 32.7546 29.4387 32.4007 28.0794 31.9054C27.0908 31.5232 26.0473 30.7024 25.8414 29.5843C25.5805 28.4096 25.8825 27.0792 26.8849 26.3291C28.4089 25.1969 30.7706 25.2676 32.4595 26.0036L33.1597 26.3857C33.2284 26.1876 33.1597 25.9187 33.2009 25.7347ZM43.6361 49.0587C43.6361 49.7664 43.2241 50.1768 42.4141 50.1768C41.6177 50.1768 41.192 49.7664 41.192 49.0587V48.6908H41.9609V49.1012C41.9609 49.4125 42.1257 49.5258 42.3866 49.5258C42.6475 49.5258 42.8122 49.4125 42.8122 49.1012V48.1247C42.8122 47.8133 42.6475 47.6859 42.3866 47.6859C42.1257 47.6859 41.9609 47.8133 41.9609 48.1247V48.252H41.192L41.3431 45.6762H43.4987V46.3131H42.0708L42.0021 47.3745H42.0158C42.1669 47.1623 42.4003 47.049 42.7161 47.049C43.3202 47.049 43.6223 47.417 43.6223 48.0681V49.0587H43.6361ZM46.9451 28.3672C47.6316 30.292 47.563 32.8394 46.4233 34.552C45.929 35.203 45.2699 35.6842 44.5835 35.9814L44.5148 36.0097C44.2814 36.1371 43.9518 36.222 43.842 36.2362C41.6177 36.873 39.1325 36.5334 37.4162 34.9766C35.947 33.5047 35.8371 31.1694 36.2491 29.2021C36.4825 28.0133 37.2102 26.8386 38.3361 26.2583C40.3819 25.0837 43.4164 25.1686 45.4073 26.4706C46.1076 26.9519 46.6705 27.617 46.9451 28.3672ZM31.5395 18.8564C31.7455 18.8422 31.9377 18.8281 32.1024 18.8422C32.5418 18.7997 33.0499 18.8139 33.4618 18.8564L33.4893 18.8847L33.503 18.8564C37.1553 19.1536 40.5329 21.1775 42.5925 24.3477C42.4415 24.4326 42.2904 24.3619 42.0982 24.3619C41.4392 23.3853 40.6153 22.5078 39.6817 21.7718L39.5306 21.8285L38.4597 22.4654V22.5503C38.7206 22.8333 38.9403 23.0881 39.1325 23.3853C39.3796 23.6825 39.613 24.0222 39.7915 24.3619C39.668 24.4043 39.5032 24.3902 39.3384 24.3902C38.9403 23.7957 38.5009 23.2013 38.0203 22.6918C37.3475 22.9749 36.6885 23.2438 35.9882 23.4278L35.9607 23.4561L36.3451 24.3477C36.2353 24.4185 36.0568 24.376 35.9195 24.376L35.5076 23.5693H35.4252C34.5602 23.7816 33.6403 23.8807 32.7478 23.9231C32.6929 24.0647 32.7478 24.2345 32.7066 24.3902H32.2947C32.2535 24.2486 32.3359 24.0222 32.2123 23.909C31.2649 23.8807 30.3312 23.7675 29.4387 23.5693C29.2877 23.8382 29.1779 24.1213 29.0406 24.3902C28.8758 24.4043 28.766 24.4185 28.6012 24.3902L28.9857 23.4985L28.9307 23.4419C28.258 23.258 27.6126 22.989 26.9535 22.7484C26.4592 23.258 26.0473 23.8382 25.6628 24.4043C25.5119 24.4326 25.3059 24.4468 25.2098 24.4043C25.5668 23.7533 26.0473 23.1447 26.5279 22.5503C26.1434 22.3097 25.7041 22.0832 25.3059 21.8143C24.8802 22.0974 24.5095 22.4654 24.1113 22.8475C23.6582 23.3428 23.2463 23.8523 22.8756 24.376C22.7245 24.4326 22.5323 24.376 22.3813 24.3902C24.4958 21.0926 27.8735 19.1536 31.5395 18.8564ZM18.4681 33.7452L19.9784 33.717L19.9922 33.5047V28.2397C19.4841 28.1973 19.0036 28.2115 18.4818 28.1973C18.4681 27.3623 18.4681 26.3999 18.4818 25.579L19.4292 25.5648L25.196 25.579C25.2372 26.3857 25.2235 27.334 25.2098 28.2115L23.6994 28.2256L23.6719 28.2681L23.6582 33.7028C24.1525 33.7594 24.7155 33.717 25.2235 33.7452V36.3069H18.4818C18.4269 35.4578 18.4269 34.6086 18.4681 33.7452Z" fill="white"/>
<path d="M30.0969 42.1946C30.0557 42.237 29.9459 42.2512 29.9734 42.3361C31.5935 42.7324 33.406 42.7182 35.0261 42.3644C35.0536 42.3361 35.1772 42.3644 35.136 42.2654C33.7492 41.2463 31.5249 41.2463 30.0969 42.1946Z" fill="white"/>
<path d="M30.8525 41.303C30.3032 40.4963 29.754 39.6895 29.3146 38.8404L29.246 38.8262C28.6007 38.9961 27.9828 39.2083 27.3787 39.5056V39.548C28.1888 40.3972 29.1499 41.119 30.166 41.6285C30.3719 41.5011 30.6328 41.4304 30.8525 41.303Z" fill="white"/>
<path d="M25.7727 40.383V40.4255C26.8711 41.2322 28.0657 41.8125 29.3563 42.1663C29.4662 42.1097 29.5898 42.0106 29.6584 41.9115C28.6835 41.2747 27.7773 40.6094 26.8986 39.732C26.5141 39.9018 26.1434 40.1424 25.7727 40.383Z" fill="white"/>
<path d="M35.4801 41.8692L35.4526 41.9116C35.5625 42.0107 35.6723 42.0956 35.7959 42.1664L36.5099 41.94C37.5259 41.5578 38.5145 41.0908 39.3658 40.3831C38.9951 40.1142 38.5969 39.8877 38.185 39.7179C37.3337 40.5671 36.4549 41.2748 35.4801 41.8692Z" fill="white"/>
<path d="M32.3351 41.0198L32.3214 38.4015C31.4702 38.4015 30.6326 38.5289 29.8499 38.6846L29.7676 38.7412C30.207 39.5903 30.7287 40.4112 31.3603 41.1755C31.6624 41.0906 32.0194 41.0906 32.3351 41.0198Z" fill="white"/>
<path d="M14.1289 17.4271C14.8429 18.163 15.6804 18.1489 16.5043 17.2997C17.3281 16.4505 17.3693 15.5872 16.6553 14.8512L16.0649 14.2285L15.2686 15.0494L15.9001 15.7146C16.216 16.0401 16.161 16.3373 15.8864 16.6062C15.6118 16.8751 15.3372 16.9317 15.0214 16.6062L12.6186 14.1153C12.3028 13.7898 12.3577 13.4926 12.6186 13.2095C12.8932 12.9406 13.1815 12.884 13.4973 13.2095L13.9779 13.7048L14.7743 12.884L14.3486 12.4311C13.6346 11.6951 12.7971 11.7093 11.9732 12.5585C11.1357 13.4076 11.1082 14.271 11.8222 15.0069L14.1289 17.4271Z" fill="white"/>
<path d="M21.9134 13.0536L21.4328 12.2752L19.6891 13.3933L18.7142 11.7798L20.101 10.8882L19.6341 10.0957L18.2336 10.9873L17.3137 9.4446L19.0712 8.32656L18.5906 7.534L15.8308 9.3031L19.1536 14.8227L21.9134 13.0536Z" fill="white"/>
<path d="M24.6598 11.865L23.8359 9.35991L24.2204 9.21841C24.7284 9.03438 25.0304 9.17594 25.2227 9.74206L25.5385 10.7045C25.7033 11.1998 25.7719 11.2847 25.8955 11.4263L27.0488 11.03C26.8566 10.846 26.7742 10.6195 26.6781 10.3223L26.3623 9.37405C26.1564 8.73718 25.8131 8.3409 25.1815 8.3409V8.32676C25.6209 7.94462 25.717 7.46344 25.511 6.82658L25.3463 6.34535C25.0304 5.3971 24.3851 5.09989 23.2043 5.51033L21.5017 6.10475L23.5201 12.2613L24.6598 11.865ZM23.4789 6.40196C23.8771 6.26044 24.1243 6.40196 24.2615 6.84071L24.4538 7.44931C24.6185 7.94462 24.4126 8.18526 23.9869 8.3409L23.5476 8.4966L22.9297 6.6001L23.4789 6.40196Z" fill="white"/>
<path d="M29.1077 5.0854L29.6295 10.6334L30.8241 10.506L30.2886 4.97218L31.5381 4.84481L31.4419 3.92487L27.7759 4.29284L27.8583 5.21278L29.1077 5.0854Z" fill="white"/>
<path d="M34.3897 4.02228L33.8582 10.4951L35.0484 10.5989L35.5799 4.12612L34.3897 4.02228Z" fill="white"/>
<path d="M39.0081 8.63785L40.5047 9.06241L40.7381 8.17082L39.2553 7.7462L39.7496 5.84973L41.6443 6.38753L41.8915 5.4959L38.8434 4.63257L37.1682 10.9023L38.3216 11.2279L39.0081 8.63785Z" fill="white"/>
<path d="M44.6624 6.69165L41.9121 12.5369L42.987 13.0743L45.7373 7.229L44.6624 6.69165Z" fill="white"/>
<path d="M47.466 16.1249L48.0016 15.3747L46.3401 14.1151L47.4523 12.5866L48.7567 13.5915L49.3059 12.8414L47.9878 11.8365L49.0313 10.3929L50.6927 11.6525L51.2282 10.9166L48.6057 8.90686L44.8435 14.1293L47.466 16.1249Z" fill="white"/>
<path d="M54.8114 14.6671L53.5894 13.1811L48.7837 17.3845L50.0058 18.8706C50.7747 19.8046 51.571 19.9037 52.3399 19.2385L54.7702 17.1156C55.5391 16.4362 55.5803 15.6012 54.8114 14.6671ZM54.0425 16.139L51.5435 18.3186C51.2003 18.6158 50.9256 18.545 50.6785 18.2478L50.2392 17.7242L53.6717 14.7238L54.1111 15.2474C54.3583 15.5446 54.3857 15.8419 54.0425 16.139Z" fill="white"/>
<path d="M16.0233 51.1958C15.2133 50.2334 14.3345 50.1485 13.5381 50.8561L10.9294 53.1772C10.1192 53.8849 10.078 54.8048 10.8882 55.7672C11.6983 56.7296 12.577 56.8145 13.3734 56.1069L14.0461 55.5124L13.2772 54.5783L12.5633 55.2152C12.2063 55.5407 11.918 55.4558 11.6433 55.1445C11.3825 54.8331 11.3412 54.5217 11.712 54.1962L14.4306 51.7902C14.7876 51.4647 15.0897 51.5496 15.3506 51.861C15.6115 52.1723 15.6389 52.4837 15.2819 52.8092L14.7464 53.2904L15.5153 54.2245L16.0096 53.7858C16.7922 53.0781 16.8334 52.1582 16.0233 51.1958Z" fill="white"/>
<path d="M20.4722 55.2435C19.4424 54.5359 18.5499 54.6774 17.9595 55.5832L16.0509 58.5412C15.4606 59.447 15.694 60.3527 16.71 61.0604C17.7398 61.768 18.6323 61.6265 19.2227 60.7207L21.1312 57.7627C21.7216 56.8428 21.5019 55.9512 20.4722 55.2435ZM20.1289 56.9844L18.1517 60.0555C17.8908 60.466 17.575 60.4801 17.2455 60.2395C16.916 60.0131 16.8061 59.7159 17.067 59.3055L19.0442 56.2343C19.3051 55.8238 19.6209 55.8097 19.9504 56.0502C20.2799 56.2767 20.3898 56.5739 20.1289 56.9844Z" fill="white"/>
<path d="M25.4292 62.9287L25.4017 62.9145L25.7862 57.9894L24.0974 57.5082L22.3262 64.0892L23.3834 64.4008L24.6328 59.7444H24.6603L24.2896 64.6553L25.4292 64.9811L27.5163 60.4945H27.53L26.2668 65.2214L27.4064 65.5472L29.1776 58.966L27.5025 58.4848L25.4292 62.9287Z" fill="white"/>
<path d="M33.4882 59.0367L31.6345 59.1074L31.8817 65.943L33.1311 65.9006L33.0351 63.3393L33.6254 63.311C34.8749 63.2686 35.4791 62.6459 35.4379 61.5559L35.4104 60.6642C35.3829 59.5603 34.7376 58.9801 33.4882 59.0367ZM33.598 62.3201L33.0076 62.3484L32.9252 60.0415L33.5156 60.0132C33.9138 59.999 34.1335 60.1406 34.1609 60.636L34.2021 61.655C34.2159 62.1363 33.9962 62.306 33.598 62.3201Z" fill="white"/>
<path d="M38.199 58.3006L38.9679 65.2214L40.0663 64.8674L39.9153 63.622L41.3844 63.1407L41.9474 64.2588L43.1557 63.863L39.9565 57.7345L38.199 58.3006ZM39.8054 62.6736L39.3661 59.1923H39.3935L40.9726 62.306L39.8054 62.6736Z" fill="white"/>
<path d="M45.4344 54.7058L47.6588 58.0884L47.645 58.1025L44.3635 55.4418L43.0591 56.3617L46.7801 62.0232L47.7137 61.3719L45.0226 57.2675L45.05 57.2534L49.0181 60.4661L50.0754 59.7159L46.3681 54.0548L45.4344 54.7058Z" fill="white"/>
<path d="M50.7201 49.1578L49.9512 50.106L51.6812 52.8517L51.6675 52.88L48.7292 51.6345L47.8916 52.6819L52.3129 54.3377L54.0017 55.7813L54.8118 54.7906L53.1229 53.3471L50.7201 49.1578Z" fill="white"/>
</g>
<defs>
<clipPath id="clip0_189:3009">
<rect width="65" height="67" fill="white" transform="translate(0 0.5)"/>
</clipPath>
</defs>
</svg>
