
 <svg xmlns="http://www.w3.org/2000/svg" id="Logo" fill='white' width="100" height="100"  viewBox="0 0 720 720">

  

    <path d="M353.9 325.7c23.9-58.9-20.8-74.9-49.9-74.9h-96.4c8 5.5 6.7 12.8 5.1 17.3l-56.2 179.5c-2.2 7.1-10.6 14.6-15.1 15.7h78c-4.3-.8-10.4-6.9-8.2-15.2l20.4-64.9c.1 0 93.9 12.7 122.3-57.5zm-75.8-58.4c10.2 0 38.5 1.4 20.2 54.9-19.1 56.2-61.5 44.6-61.5 44.6l31.2-99.5h10.1z" fill="#fff"/>
    <path d="M416.3 463.4h52.5c-16.8-5.4-41.6-21.3-51.5-32.6 8-8.7 17.9-19.7 19.7-42h-27.2s5.2 3 5.2 9.4c0 5.9-2.4 14.1-7 19.8-8-11.8-16.5-25.3-19.5-45.1 10.7-5.3 25.7-11.1 37.6-21.5 11.3-9.9 13.9-19.3 14.1-25.4v-.8c0-6.4-2.5-12.4-7.1-16.9-7.9-7.8-20.3-11-33.4-8.6-10.5 2-19.4 7.6-23.9 11.7-15.8 14.9-17.8 39.4-17.8 50.5 0 2.7.1 4.7.2 5.9-.9.4-2.5 1-2.5 1-11.6 4.3-42.5 12.5-53.5 37.9-1.4 3.2-3.4 10.2-3.4 18.3 0 7 1.5 14.8 6 21.9 7.8 12.2 21 19.9 42.2 19.5 23-.4 45.7-16.1 49.7-19 3.9 3.7 14.2 13.4 19.6 16zm0-142c-2.7 17.1-24.9 34.4-30.3 36.7-1-9.6-.5-24.8 7.5-37.2 5.3-8.2 12.4-11.8 18.1-9.8 4.6 1.6 5.1 5.8 4.7 10.3zm-30.8 114.4c-3.1 1.9-15.3 8.1-26.7 9.2-10.6 1-28.2-3.1-28.1-24.3 0-18.1 19.7-31.4 30.4-36 4.3 17.5 14 37.3 24.4 51.1z" fill="#fff"/>
    <path d="M575.8 267.5c31.2-7.5 56.9 16.9 59.2 18.6l8.9-28.3c-12.3-3.7-101.8-34-165.1 38.2-38.9 44.4-48.4 135.4.9 159.8 52.8 26.1 111.1-4 115.4-6.1l24.1-76.8c2.6-9.3 8.5-15.3 18.9-19.2h-83.8c12.2 5.1 11.3 14.3 10.4 18.1l-24.1 76.8c-3.2.6-70.6 17.4-32.9-100.5 8.3-25.3 31-71.7 68.1-80.6z" fill="#fff"/>
  
</svg>