<?xml version="1.0" standalone="no"?>
<!DOCTYPE svg PUBLIC "-//W3C//DTD SVG 20010904//EN"
 "http://www.w3.org/TR/2001/REC-SVG-20010904/DTD/svg10.dtd">
<svg version="1.0"
    xmlns="http://www.w3.org/2000/svg" width="512.000000pt" height="512.000000pt" viewBox="0 0 512.000000 512.000000" preserveAspectRatio="xMidYMid meet">

    <g transform="translate(0.000000,512.000000) scale(0.100000,-0.100000)" fill="blue" stroke="none">
        <path d="M1080 5115 c-8 -2 -49 -9 -90 -15 -232 -38 -459 -157 -636 -334 -169
-170 -279 -370 -330 -606 -18 -81 -19 -159 -19 -1595 0 -1638 -3 -1556 56
-1737 58 -179 155 -335 293 -474 139 -138 295 -235 474 -293 181 -59 99 -56
1737 -56 1435 0 1514 1 1595 19 482 105 845 476 941 961 21 104 21 3046 0
3150 -95 479 -440 838 -921 958 -84 21 -94 21 -1585 23 -825 1 -1507 1 -1515
-1z m3030 -417 c220 -66 367 -172 481 -346 49 -75 78 -141 107 -247 16 -55 17
-189 17 -1545 0 -1620 4 -1506 -55 -1662 -66 -177 -261 -372 -438 -438 -157
-59 -36 -55 -1617 -58 -1552 -3 -1532 -4 -1676 47 -202 72 -398 259 -469 449
-59 156 -55 42 -55 1662 0 1620 -4 1506 55 1662 70 186 263 374 458 445 144
53 89 51 1667 50 1341 -2 1475 -4 1525 -19z"/>
        <path d="M1545 3954 c-175 -34 -331 -153 -404 -307 -49 -103 -64 -169 -64
-277 0 -108 15 -174 64 -277 93 -194 309 -323 543 -323 72 0 194 33 269 72 81
42 203 164 245 245 70 133 88 286 52 427 -29 113 -73 190 -160 276 -150 151
-333 206 -545 164z m235 -418 c59 -39 85 -89 85 -166 0 -78 -26 -127 -88 -168
-34 -23 -52 -27 -108 -27 -59 0 -73 4 -110 30 -103 73 -117 217 -28 306 21 21
53 43 71 48 53 16 135 6 178 -23z"/>
        <path d="M3072 3759 c-24 -12 -53 -36 -66 -53 -13 -17 -292 -494 -621 -1061
-668 -1150 -632 -1075 -580 -1180 39 -80 87 -110 176 -110 125 0 73 -76 754
1096 332 570 608 1053 615 1074 30 90 -12 185 -101 229 -65 32 -119 33 -177 5z"/>
        <path d="M3335 2344 c-175 -34 -331 -153 -404 -307 -49 -103 -64 -169 -64
-277 0 -108 15 -174 64 -277 93 -194 309 -323 543 -323 72 0 194 33 269 72 81
42 203 164 245 245 42 80 72 198 72 283 0 85 -30 203 -72 283 -42 81 -164 203
-245 245 -126 66 -263 85 -408 56z m235 -418 c59 -39 85 -89 85 -166 0 -78
-26 -127 -88 -168 -34 -23 -52 -27 -108 -27 -59 0 -73 4 -110 30 -103 73 -117
217 -28 306 21 21 53 43 71 48 53 16 135 6 178 -23z"/>
    </g>
</svg>
