
<svg id="Calque_3" data-name="Calque 3" width="250" height="100" fill='white' xmlns="http://www.w3.org/2000/svg" viewBox="0 0 176.2 38"><path class="cls-1" d="M60.82,32a5.2,5.2,0,0,1-5.58-5.48V5.81H60v20.4c0,1.14.48,1.73,1.69,1.73h1.84v4Z" transform="translate(-1.64 -1)"/><path class="cls-1" d="M65.16,32V12.83h4.78V32Zm5-23.91A2.66,2.66,0,1,1,67.55,5.4,2.66,2.66,0,0,1,70.21,8.07Z" transform="translate(-1.64 -1)"/><path class="cls-1" d="M116,35.07a6.92,6.92,0,0,1-1.44,2.46A5.54,5.54,0,0,1,110.48,39h-1.87V34.7h1.1A2.07,2.07,0,0,0,112.1,33l.81-2.35-6.54-17.79h5l4,11.84,3.83-11.84h5Z" transform="translate(-1.64 -1)"/><path class="cls-1" d="M131.14,32.2c-3,0-5.73-.33-8.16-2.76l3.13-3.12a7,7,0,0,0,5.11,1.8c1.65,0,3.38-.55,3.38-2,0-1-.52-1.62-2-1.77l-3-.29c-3.45-.33-5.58-1.84-5.58-5.37,0-4,3.49-6.1,7.38-6.1,3,0,5.48.51,7.32,2.24l-2.94,3a6.68,6.68,0,0,0-4.45-1.29c-1.91,0-2.72.89-2.72,1.84,0,.7.29,1.51,2,1.65l3,.3c3.78.37,5.7,2.39,5.7,5.62C139.27,30.18,135.66,32.2,131.14,32.2Z" transform="translate(-1.64 -1)"/><path class="cls-2" d="M6.35,30v8.59H1.64V23.09" transform="translate(-1.64 -1)"/><path class="cls-2" d="M15.48,29.54a7.8,7.8,0,0,1-5.87,2.32,7.72,7.72,0,0,1-5.84-2.32c-1.7-1.77-2.13-3.91-2.13-7.35s.43-5.54,2.13-7.32a7.76,7.76,0,0,1,5.84-2.32,7.83,7.83,0,0,1,5.87,2.32c1.7,1.78,2.14,3.91,2.14,7.32S17.18,27.77,15.48,29.54ZM11.82,17.62a3,3,0,0,0-2.21-.83,2.93,2.93,0,0,0-2.18.83c-1,1-1.08,2.61-1.08,4.57s.11,3.62,1.08,4.6a2.93,2.93,0,0,0,2.18.83,3,3,0,0,0,2.21-.83c1-1,1.08-2.64,1.08-4.6S12.8,18.6,11.82,17.62Z" transform="translate(-1.64 -1)"/><path class="cls-3" d="M41.69,30v8.59H37V23.09" transform="translate(-1.64 -1)"/><path class="cls-3" d="M50.82,29.54A7.76,7.76,0,0,1,45,31.86a7.72,7.72,0,0,1-5.83-2.32C37.42,27.77,37,25.63,37,22.19s.44-5.54,2.14-7.32A7.75,7.75,0,0,1,45,12.55a7.8,7.8,0,0,1,5.87,2.32C52.53,16.65,53,18.78,53,22.19S52.53,27.77,50.82,29.54ZM47.17,17.62A3,3,0,0,0,45,16.79a2.89,2.89,0,0,0-2.17.83c-1,1-1.09,2.61-1.09,4.57s.11,3.62,1.09,4.6a2.89,2.89,0,0,0,2.17.83,3,3,0,0,0,2.22-.83c1-1,1.08-2.64,1.08-4.6S48.14,18.6,47.17,17.62Z" transform="translate(-1.64 -1)"/><path class="cls-1" d="M83.47,14.5V5.91h4.71V21.38" transform="translate(-1.64 -1)"/><path class="cls-1" d="M74.34,14.93a7.83,7.83,0,0,1,5.87-2.32A7.74,7.74,0,0,1,86,14.93c1.7,1.78,2.14,3.91,2.14,7.36s-.44,5.54-2.14,7.32a7.73,7.73,0,0,1-5.83,2.31,7.83,7.83,0,0,1-5.87-2.31c-1.71-1.78-2.14-3.92-2.14-7.32S72.63,16.71,74.34,14.93ZM78,26.85a2.93,2.93,0,0,0,2.21.83,2.86,2.86,0,0,0,2.17-.83c1-1,1.09-2.61,1.09-4.56s-.11-3.63-1.09-4.6a2.86,2.86,0,0,0-2.17-.84,2.94,2.94,0,0,0-2.21.84c-1,1-1.09,2.64-1.09,4.6S77,25.87,78,26.85Z" transform="translate(-1.64 -1)"/><path class="cls-1" d="M101.18,29.15V19.67c0-2.1-1-3-3.56-3a4.12,4.12,0,0,0-3.68,1.58l-3-3c1.88-2.06,3.72-2.65,6.91-2.65,5.37,0,8.16,2.28,8.16,6.76v6.22" transform="translate(-1.64 -1)"/><path class="cls-1" d="M104.06,20.81a6.42,6.42,0,0,1,1.9,4.81,6.35,6.35,0,0,1-1.9,4.79c-1.46,1.4-3.21,1.75-6,1.75s-4.55-.35-6-1.75a6.35,6.35,0,0,1-1.9-4.79A6.42,6.42,0,0,1,92,20.81c1.46-1.4,3.21-1.75,6-1.75S102.6,19.41,104.06,20.81Zm-8.72,3a3,3,0,0,0-.5,1.81,3,3,0,0,0,.5,1.79c.57.8,1.54.89,2.69.89s2.14-.09,2.72-.89a3,3,0,0,0,.49-1.79,3,3,0,0,0-.49-1.81c-.58-.8-1.56-.89-2.72-.89S95.91,23,95.34,23.81Z" transform="translate(-1.64 -1)"/><path class="cls-4" d="M33,29.54a7.8,7.8,0,0,1-5.87,2.32,7.7,7.7,0,0,1-5.83-2.32c-1.7-1.77-2.14-3.91-2.14-7.35s.44-5.54,2.14-7.32a7.74,7.74,0,0,1,5.83-2.32A7.83,7.83,0,0,1,33,14.87c1.7,1.78,2.14,3.91,2.14,7.32S34.74,27.77,33,29.54ZM29.38,17.62a3,3,0,0,0-2.21-.83,2.89,2.89,0,0,0-2.17.83c-1,1-1.09,2.61-1.09,4.57S24,25.81,25,26.79a2.89,2.89,0,0,0,2.17.83,3,3,0,0,0,2.21-.83c1-1,1.09-2.64,1.09-4.6S30.36,18.6,29.38,17.62Z" transform="translate(-1.64 -1)"/><path class="cls-4" d="M149.08,31.92c-2.09,0-4.68-1.13-4.68-5.37s2.59-5.35,4.68-5.35a4.44,4.44,0,0,1,3.46,1.41l-1.77,1.77a2.12,2.12,0,0,0-1.69-.83,1.84,1.84,0,0,0-1.49.69,3.54,3.54,0,0,0-.58,2.31,3.61,3.61,0,0,0,.58,2.33,1.82,1.82,0,0,0,1.49.69,2.09,2.09,0,0,0,1.69-.83l1.77,1.75A4.46,4.46,0,0,1,149.08,31.92Z" transform="translate(-1.64 -1)"/><path class="cls-4" d="M160.24,30.63a4.73,4.73,0,0,1-6.49,0c-.95-1-1.19-2.17-1.19-4.08s.24-3.08,1.19-4.06a4.73,4.73,0,0,1,6.49,0c.95,1,1.19,2.17,1.19,4.06S161.19,29.65,160.24,30.63Zm-2-6.61a1.65,1.65,0,0,0-1.22-.47,1.61,1.61,0,0,0-1.21.47,3.55,3.55,0,0,0-.6,2.53,3.59,3.59,0,0,0,.6,2.55,1.57,1.57,0,0,0,1.21.47,1.61,1.61,0,0,0,1.22-.47,3.59,3.59,0,0,0,.61-2.55A3.54,3.54,0,0,0,158.21,24Z" transform="translate(-1.64 -1)"/><path class="cls-4" d="M171.59,31.8H169V26.55a3.53,3.53,0,0,0-.6-2.53,1.67,1.67,0,0,0-1.23-.47,1.64,1.64,0,0,0-1.21.47,3.53,3.53,0,0,0-.6,2.53V31.8h-2.61V26.55c0-1.89.24-3.08,1.18-4.06a4.74,4.74,0,0,1,6.5,0c.94,1,1.19,2.17,1.19,4.06Z" transform="translate(-1.64 -1)"/><path class="cls-4" d="M177.83,31.8h-2.61V26.55a3.53,3.53,0,0,0-.6-2.53,1.69,1.69,0,0,0-1.23-.47,1.63,1.63,0,0,0-1.21.47,3.53,3.53,0,0,0-.6,2.53V31.8H169V26.55c0-1.89.24-3.08,1.18-4.06a4.32,4.32,0,0,1,3.24-1.29,4.37,4.37,0,0,1,3.26,1.29c.94,1,1.18,2.17,1.18,4.06Z" transform="translate(-1.64 -1)"/><circle class="cls-4" cx="140.08" cy="29.37" r="1.42"/><path class="cls-4" d="M25.2,4.42V3a2,2,0,0,1,2-2h0a2,2,0,0,1,2,2V4.42h0c0,2-.89,4.76-2,4.76s-2-2.75-2-4.76Z" transform="translate(-1.64 -1)"/><path class="cls-4" d="M34.54,5.54l.93-1.1a2,2,0,0,1,2.79-.25h0A2,2,0,0,1,38.51,7l-.93,1.1h0c-1.29,1.54-3.73,3.07-4.57,2.37s.24-3.38,1.53-4.92Z" transform="translate(-1.64 -1)"/><path class="cls-4" d="M16.8,8.09,15.87,7a2,2,0,0,1,.25-2.8h0a2,2,0,0,1,2.79.25l.93,1.1h0c1.29,1.54,2.37,4.21,1.53,4.92s-3.28-.83-4.57-2.37Z" transform="translate(-1.64 -1)"/></svg>