<?xml version="1.0" standalone="no"?>
<!DOCTYPE svg PUBLIC "-//W3C//DTD SVG 20010904//EN"
 "http://www.w3.org/TR/2001/REC-SVG-20010904/DTD/svg10.dtd">
<svg version="1.0" xmlns="http://www.w3.org/2000/svg"
 width="300.000000pt" height="45.000000pt" viewBox="0 0 300.000000 45.000000"
 preserveAspectRatio="xMidYMid meet">

<g transform="translate(0.000000,45.000000) scale(0.100000,-0.100000)"
fill="#000000" stroke="none">
<path d="M150 437 c-19 -6 -55 -32 -80 -57 -93 -93 -93 -217 0 -310 93 -93
216 -93 311 0 93 90 93 220 0 310 -66 65 -145 84 -231 57z m188 -49 c119 -79
106 -276 -23 -338 -90 -44 -199 -15 -255 67 -28 41 -38 124 -21 175 14 41 64
95 106 115 49 22 145 12 193 -19z"/>
<path d="M56 283 c-13 -13 -5 -23 32 -42 21 -11 55 -38 75 -60 20 -23 37 -37
37 -32 0 12 -77 97 -109 121 -16 10 -31 17 -35 13z"/>
<path d="M332 245 c-53 -48 -99 -111 -88 -122 3 -4 6 -1 6 5 0 20 72 92 112
113 21 11 38 24 38 29 0 24 -22 16 -68 -25z"/>
<path d="M50 191 c0 -5 10 -13 23 -17 12 -3 36 -16 52 -27 24 -17 27 -18 16
-3 -18 22 -91 60 -91 47z"/>
<path d="M367 185 c-37 -19 -82 -55 -70 -55 6 0 16 7 23 14 6 8 27 20 46 26
19 6 34 16 34 21 0 12 0 12 -33 -6z"/>
<path d="M588 324 c-5 -4 -8 -58 -8 -121 0 -94 3 -113 15 -113 11 0 15 12 15
44 l0 43 45 6 c55 6 85 30 85 67 0 47 -28 70 -90 77 -30 3 -58 2 -62 -3z m119
-40 c28 -38 4 -73 -55 -81 l-42 -6 0 58 0 58 42 -6 c23 -3 48 -14 55 -23z"/>
<path d="M1010 300 c0 -22 -6 -33 -22 -40 l-23 -9 23 -7 c20 -6 22 -12 22 -80
0 -43 4 -74 10 -74 6 0 10 32 10 75 0 68 2 75 20 75 11 0 20 5 20 10 0 6 -9
10 -20 10 -15 0 -20 7 -20 29 0 17 -4 33 -10 36 -6 4 -10 -7 -10 -25z"/>
<path d="M1530 300 c0 -22 -6 -33 -22 -40 l-23 -9 23 -7 c20 -6 22 -12 22 -80
0 -43 4 -74 10 -74 6 0 10 32 10 75 0 68 2 75 20 75 11 0 20 5 20 10 0 6 -9
10 -20 10 -16 0 -20 7 -20 35 0 19 -4 35 -10 35 -5 0 -10 -14 -10 -30z"/>
<path d="M1620 310 c0 -11 5 -20 10 -20 6 0 10 9 10 20 0 11 -4 20 -10 20 -5
0 -10 -9 -10 -20z"/>
<path d="M830 263 c-38 -14 -60 -47 -60 -88 0 -70 67 -112 129 -81 69 36 70
125 1 161 -30 16 -45 17 -70 8z m75 -38 c14 -13 25 -36 25 -50 0 -30 -41 -75
-68 -75 -11 0 -31 9 -46 21 -36 28 -36 80 0 108 35 27 59 26 89 -4z"/>
<path d="M1144 260 c-55 -23 -71 -99 -30 -147 31 -36 95 -39 128 -6 30 30 16
41 -18 14 -35 -27 -59 -27 -89 4 -40 39 -32 45 55 45 73 0 80 2 80 19 0 50
-76 93 -126 71z m83 -34 c15 -13 25 -27 22 -31 -4 -3 -38 -5 -75 -3 l-69 3 27
28 c33 33 58 34 95 3z"/>
<path d="M1360 260 c-8 -5 -23 -7 -32 -4 -16 5 -18 -3 -18 -80 0 -51 4 -86 10
-86 6 0 10 27 10 60 0 47 4 64 20 80 48 48 90 12 90 -78 0 -35 4 -62 10 -62 6
0 10 30 10 69 0 63 -2 71 -26 90 -29 23 -51 26 -74 11z"/>
<path d="M1734 260 c-53 -21 -70 -96 -34 -143 26 -33 71 -43 110 -24 16 9 30
11 30 6 0 -5 5 -9 10 -9 6 0 10 35 10 85 0 50 -4 85 -10 85 -5 0 -10 -4 -10
-9 0 -6 -12 -3 -27 5 -31 16 -48 17 -79 4z m80 -31 c19 -15 26 -30 26 -54 0
-36 -36 -75 -70 -75 -34 0 -70 39 -70 75 0 36 36 75 70 75 10 0 29 -9 44 -21z"/>
<path d="M1620 175 c0 -50 4 -85 10 -85 6 0 10 35 10 85 0 50 -4 85 -10 85 -6
0 -10 -35 -10 -85z"/>
</g>
</svg>
