<?xml version="1.0" standalone="no"?>
<!DOCTYPE svg PUBLIC "-//W3C//DTD SVG 20010904//EN"
 "http://www.w3.org/TR/2001/REC-SVG-20010904/DTD/svg10.dtd">
<svg version="1.0"
    xmlns="http://www.w3.org/2000/svg" width="512.000000pt" height="512.000000pt" viewBox="0 0 512.000000 512.000000" preserveAspectRatio="xMidYMid meet">

    <g transform="translate(0.000000,512.000000) scale(0.100000,-0.100000)" fill="blue" stroke="none">
        <path d="M769 4597 c-102 -29 -181 -96 -228 -197 l-26 -55 0 -675 0 -675 26
-56 c37 -79 90 -133 167 -171 l67 -33 655 -3 c641 -3 656 -2 724 19 60 18 78
30 132 83 53 54 65 72 83 132 21 68 22 83 19 724 l-3 655 -26 56 c-37 79 -90
133 -167 171 l-67 33 -655 2 c-498 2 -666 -1 -701 -10z"/>
        <path d="M2730 4440 l0 -170 425 0 425 0 0 170 0 170 -425 0 -425 0 0 -170z"/>
        <path d="M2737 3923 c-4 -3 -7 -82 -7 -175 l0 -168 938 2 937 3 0 170 0 170
-931 3 c-512 1 -934 -1 -937 -5z"/>
        <path d="M2730 3070 l0 -170 598 2 597 3 3 168 2 167 -600 0 -600 0 0 -170z"/>
        <path d="M763 2376 c-102 -33 -176 -97 -222 -196 l-26 -55 0 -675 0 -675 26
-56 c37 -79 90 -133 167 -171 l67 -33 675 0 675 0 67 33 c77 38 130 92 167
171 l26 56 3 655 c2 634 2 657 -18 722 -25 84 -95 164 -178 205 l-57 28 -665
2 c-531 2 -673 -1 -707 -11z"/>
        <path d="M2730 2220 l0 -170 940 0 940 0 0 170 0 170 -940 0 -940 0 0 -170z"/>
        <path d="M2730 1540 l0 -170 425 0 425 0 0 170 0 170 -425 0 -425 0 0 -170z"/>
        <path d="M2730 850 l0 -170 598 2 597 3 3 168 2 167 -600 0 -600 0 0 -170z"/>
    </g>
</svg>
