<?xml version="1.0" standalone="no"?>
<!DOCTYPE svg PUBLIC "-//W3C//DTD SVG 20010904//EN"
 "http://www.w3.org/TR/2001/REC-SVG-20010904/DTD/svg10.dtd">
<svg version="1.0"
    xmlns="http://www.w3.org/2000/svg" width="512.000000pt" height="512.000000pt" viewBox="0 0 512.000000 512.000000" preserveAspectRatio="xMidYMid meet">

    <g transform="translate(0.000000,512.000000) scale(0.100000,-0.100000)" fill="blue" stroke="none">
        <path d="M2067 4790 c-89 -23 -140 -61 -287 -210 l-145 -149 -166 -79 c-281
-134 -319 -187 -359 -498 -10 -83 -25 -169 -33 -192 -8 -22 -46 -98 -85 -169
-83 -149 -101 -196 -109 -279 -10 -104 16 -178 128 -374 66 -116 77 -151 99
-331 39 -305 82 -363 367 -500 l168 -80 145 -148 c175 -179 215 -203 349 -209
67 -3 115 2 216 23 166 35 246 35 408 1 172 -38 263 -34 361 12 57 27 92 55
215 179 l146 146 163 79 c279 134 323 194 362 497 22 180 33 215 99 331 168
294 171 378 22 652 -96 175 -111 221 -122 363 -15 199 -58 305 -159 384 -28
22 -124 77 -213 121 l-162 82 -140 143 c-119 122 -150 149 -207 175 -101 47
-174 49 -371 11 -87 -17 -176 -31 -198 -31 -22 0 -97 12 -167 26 -142 29 -268
38 -325 24z m686 -505 c247 -43 439 -145 613 -327 418 -436 417 -1094 -1
-1546 -360 -388 -957 -462 -1400 -174 -324 211 -525 569 -525 933 0 236 70
466 201 654 59 85 188 213 274 272 244 165 561 236 838 188z"/>
        <path d="M2410 4129 c-163 -29 -333 -104 -457 -204 -314 -252 -437 -701 -292
-1075 94 -243 316 -469 548 -559 133 -51 203 -65 341 -65 315 0 580 127 761
366 185 246 251 554 179 833 -65 253 -265 502 -495 615 -135 66 -239 91 -395
95 -74 2 -160 0 -190 -6z m256 -277 c56 -29 86 -66 134 -162 23 -47 47 -88 51
-91 5 -3 51 -11 101 -18 103 -13 146 -30 190 -75 46 -45 68 -101 68 -172 0
-86 -18 -120 -107 -207 l-77 -76 18 -105 c24 -143 8 -207 -70 -276 -51 -44
-93 -60 -162 -60 -50 0 -71 7 -155 50 l-97 51 -91 -48 c-142 -73 -247 -71
-328 9 -73 71 -87 131 -65 270 l18 110 -73 71 c-92 90 -114 132 -115 213 0 49
6 71 31 115 42 76 106 113 221 129 48 6 94 13 103 16 8 2 33 41 55 86 56 118
98 161 184 189 38 13 123 3 166 -19z"/>
        <path d="M2504 3693 c-9 -9 -39 -63 -66 -119 -27 -57 -56 -108 -63 -114 -8 -6
-71 -20 -141 -30 -144 -21 -168 -35 -168 -95 0 -31 12 -46 97 -133 56 -58 97
-107 97 -119 0 -11 -9 -69 -20 -131 -21 -119 -18 -152 19 -171 37 -20 71 -11
175 44 56 30 113 55 126 55 13 0 70 -25 126 -55 104 -55 138 -64 175 -44 37
19 40 52 19 171 -11 62 -20 120 -20 131 0 11 40 60 94 116 52 53 95 105 96
116 4 37 0 53 -17 74 -15 18 -40 25 -146 41 -71 10 -134 24 -142 30 -7 6 -36
57 -63 114 -59 122 -71 136 -122 136 -23 0 -45 -7 -56 -17z"/>
        <path d="M1457 1773 c-43 -72 -131 -236 -327 -608 -84 -159 -158 -297 -163
-306 -23 -37 22 -109 67 -109 13 0 158 31 322 70 164 38 303 70 309 70 7 0 83
-116 171 -258 87 -141 170 -269 185 -284 16 -16 38 -28 53 -28 60 0 65 10 237
583 89 295 159 540 155 544 -3 4 -39 -1 -79 -11 -39 -10 -119 -21 -177 -23
-125 -6 -198 9 -310 64 -64 31 -95 57 -215 179 -77 78 -152 149 -166 158 l-27
17 -35 -58z"/>
        <path d="M3596 1811 c-16 -11 -90 -82 -165 -158 -151 -154 -217 -198 -347
-229 -82 -19 -226 -15 -347 11 -43 9 -81 14 -84 11 -3 -3 67 -247 156 -543
172 -573 177 -583 237 -583 15 0 37 12 53 28 15 15 98 143 185 284 88 142 165
258 171 258 7 0 146 -31 309 -70 164 -38 308 -70 322 -70 31 0 74 42 74 72 0
13 -88 187 -195 388 -107 201 -226 422 -263 492 -37 71 -69 128 -72 128 -3 0
-18 -9 -34 -19z"/>
    </g>
</svg>
