<?xml version="1.0" standalone="no"?>
<!DOCTYPE svg PUBLIC "-//W3C//DTD SVG 20010904//EN"
 "http://www.w3.org/TR/2001/REC-SVG-20010904/DTD/svg10.dtd">
<svg version="1.0"
    xmlns="http://www.w3.org/2000/svg" width="512.000000pt" height="512.000000pt" viewBox="0 0 512.000000 512.000000" preserveAspectRatio="xMidYMid meet">

    <g transform="translate(0.000000,512.000000) scale(0.100000,-0.100000)" fill="blue" stroke="none">
        <path d="M2380 4835 c-175 -36 -312 -108 -444 -234 -185 -177 -271 -381 -283
-668 l-6 -143 -91 0 c-131 0 -211 -15 -294 -56 -142 -69 -240 -206 -262 -364
-6 -41 -49 -653 -96 -1358 -93 -1408 -91 -1345 -34 -1470 35 -75 123 -171 195
-212 110 -63 39 -60 1495 -60 1166 0 1333 2 1385 16 170 44 314 203 345 381 9
51 -4 276 -74 1345 -47 705 -90 1317 -96 1358 -22 158 -123 299 -262 365 -84
40 -166 55 -294 55 l-91 0 -6 143 c-12 287 -98 491 -283 668 -136 129 -287
206 -468 238 -80 15 -256 12 -336 -4z m318 -320 c201 -48 372 -213 428 -415 8
-30 18 -112 21 -182 l6 -128 -593 0 -593 0 6 128 c3 70 13 152 21 182 56 200
226 367 424 414 76 19 202 19 280 1z m-727 -1608 c19 -13 50 -52 73 -92 22
-39 69 -99 105 -135 276 -275 731 -209 927 135 50 87 88 115 158 115 132 0
195 -123 130 -253 -94 -186 -276 -349 -476 -427 -122 -48 -224 -63 -367 -57
-136 6 -224 26 -336 76 -177 81 -344 240 -429 408 -65 130 -2 253 130 253 37
0 61 -6 85 -23z"/>
    </g>
</svg>
