<?xml version="1.0" standalone="no"?>
<!DOCTYPE svg PUBLIC "-//W3C//DTD SVG 20010904//EN"
 "http://www.w3.org/TR/2001/REC-SVG-20010904/DTD/svg10.dtd">
<svg version="1.0"
    xmlns="http://www.w3.org/2000/svg" width="512.000000pt" height="512.000000pt" viewBox="0 0 512.000000 512.000000" preserveAspectRatio="xMidYMid meet">

    <g transform="translate(0.000000,512.000000) scale(0.100000,-0.100000)" fill="blue" stroke="none">
        <path d="M3858 4900 c-118 -11 -194 -22 -204 -31 -28 -23 -35 -57 -20 -94 18
-42 43 -50 144 -42 l75 6 -120 -122 c-67 -67 -126 -132 -133 -145 -26 -52 14
-112 74 -112 24 0 52 22 159 128 l129 127 -6 -76 c-8 -89 3 -122 45 -140 36
-14 81 1 97 34 15 29 56 401 48 432 -7 26 -53 56 -83 54 -10 -1 -102 -9 -205
-19z"/>
        <path d="M3375 4249 c-35 -33 -66 -71 -69 -85 -7 -28 16 -79 39 -88 45 -17 71
-6 134 58 73 74 82 107 41 151 -39 42 -73 34 -145 -36z"/>
        <path d="M1740 4103 c-35 -14 -138 -105 -144 -127 -7 -29 5 -66 28 -86 38 -31
99 -8 184 69 37 35 44 85 15 119 -19 23 -59 34 -83 25z"/>
        <path d="M1974 4080 c-28 -11 -54 -48 -54 -77 0 -12 10 -33 23 -46 22 -25 132
-67 174 -67 33 0 73 43 73 77 0 49 -25 70 -111 98 -44 14 -81 25 -82 24 -1 0
-12 -4 -23 -9z"/>
        <path d="M3084 3958 c-56 -53 -64 -66 -64 -98 0 -45 33 -80 77 -80 21 0 44 12
76 40 88 78 105 133 55 180 -39 36 -73 26 -144 -42z"/>
        <path d="M2354 3948 c-12 -5 -27 -21 -33 -34 -29 -64 -4 -96 101 -129 69 -22
86 -24 110 -14 34 14 48 37 48 77 0 39 -31 65 -109 91 -72 23 -86 24 -117 9z"/>
        <path d="M1347 3800 c-40 -30 -69 -60 -73 -75 -14 -56 44 -117 95 -100 23 7
119 79 139 103 20 26 15 76 -11 100 -38 36 -75 28 -150 -28z"/>
        <path d="M2725 3805 c-52 -51 -20 -111 77 -144 34 -12 76 -21 94 -21 58 0 95
77 59 123 -16 23 -134 67 -176 67 -18 0 -39 -9 -54 -25z"/>
        <path d="M3733 3770 c-12 -5 -26 -18 -32 -29 -12 -21 -16 -1506 -5 -1536 10
-24 60 -46 89 -39 14 3 34 18 45 31 20 25 20 43 20 724 l0 699 220 0 219 0 3
-466 3 -466 28 -24 c34 -29 66 -31 101 -3 l26 20 0 529 0 529 -26 20 c-26 20
-38 21 -348 20 -176 0 -331 -4 -343 -9z"/>
        <path d="M1038 3559 c-72 -56 -88 -76 -88 -111 0 -38 40 -78 78 -78 28 0 130
69 160 107 20 27 14 72 -13 98 -36 37 -74 32 -137 -16z"/>
        <path d="M718 3309 c-29 -23 -61 -50 -70 -61 -26 -29 -23 -80 5 -106 37 -35
76 -28 143 24 91 70 104 106 55 155 -40 39 -69 37 -133 -12z"/>
        <path d="M2605 3318 c-45 -26 -44 -7 -45 -746 0 -432 4 -710 10 -721 5 -10 23
-24 40 -31 38 -16 82 0 99 36 8 18 11 212 11 669 l0 645 225 0 225 0 0 -683 0
-684 23 -21 c29 -27 77 -28 108 -3 l24 19 0 742 0 742 -28 24 -28 24 -322 0
c-223 -1 -328 -4 -342 -12z"/>
        <path d="M425 3074 c-109 -74 -135 -108 -116 -155 15 -40 40 -54 92 -50 27 2
133 90 146 121 20 47 -4 91 -57 105 -19 4 -37 -1 -65 -21z"/>
        <path d="M4535 2905 c-32 -31 -32 -66 -1 -102 22 -26 31 -28 110 -32 l85 -3
-747 -585 c-411 -322 -753 -588 -760 -590 -7 -3 -153 24 -325 60 -172 37 -547
116 -835 177 -287 60 -535 110 -550 110 -15 0 -39 -8 -52 -17 -66 -46 -1357
-1049 -1367 -1062 -35 -45 7 -121 66 -121 32 0 24 -6 366 259 451 349 738 571
869 673 84 65 146 106 155 103 41 -12 1680 -355 1698 -355 12 0 248 178 559
422 297 232 647 506 779 609 131 104 241 187 243 185 1 -2 -4 -34 -13 -70 -8
-37 -15 -76 -15 -87 0 -31 44 -69 80 -69 59 0 72 27 118 237 23 105 42 199 42
208 0 9 -13 30 -29 46 l-29 29 -212 0 c-211 0 -211 0 -235 -25z"/>
        <path d="M1472 2873 c-7 -3 -19 -18 -27 -33 -12 -24 -15 -89 -15 -375 0 -353
2 -374 39 -402 26 -20 70 -15 96 12 l25 24 0 311 0 310 225 0 225 0 0 -371 c0
-218 4 -378 10 -388 5 -10 23 -24 40 -31 38 -16 82 0 99 36 8 17 11 154 11
445 l0 420 -25 24 -24 25 -333 -1 c-183 0 -339 -3 -346 -6z"/>
        <path d="M333 2406 l-28 -24 0 -547 0 -547 28 -24 c34 -29 66 -31 101 -3 l26
20 0 495 0 494 225 0 225 0 0 -246 c0 -249 3 -274 39 -301 26 -20 70 -15 96
12 l25 24 0 311 0 311 -25 24 -24 25 -330 0 -330 0 -28 -24z"/>
        <path d="M4323 2116 l-28 -24 -3 -866 -2 -866 -220 0 -220 0 -2 631 -3 631
-24 19 c-32 26 -82 25 -109 -4 l-22 -23 0 -681 c0 -655 1 -682 19 -704 l19
-24 340 0 c320 0 341 1 361 19 l21 19 0 928 0 928 -26 20 c-35 28 -67 26 -101
-3z"/>
        <path d="M1451 1584 c-21 -26 -21 -34 -21 -676 l0 -650 29 -29 29 -29 327 0
327 0 29 29 29 29 0 612 c0 517 -2 615 -15 639 -24 48 -81 56 -120 16 l-25
-24 0 -571 0 -570 -225 0 -225 0 0 603 0 604 -23 21 c-34 32 -89 30 -116 -4z"/>
        <path d="M2585 1415 l-25 -24 0 -568 c1 -431 4 -572 13 -584 28 -37 50 -39
376 -39 l320 0 28 24 28 24 3 489 c1 268 0 498 -3 511 -14 59 -80 80 -129 41
l-26 -20 0 -455 0 -454 -225 0 -225 0 0 515 0 516 -25 24 c-15 16 -36 25 -55
25 -19 0 -40 -9 -55 -25z"/>
        <path d="M935 1185 l-25 -24 0 -401 0 -400 -222 2 -223 3 -3 165 c-2 152 -4
166 -24 187 -27 29 -80 31 -107 4 -29 -29 -33 -65 -29 -279 l3 -194 28 -24 28
-24 320 0 c335 0 367 4 383 45 3 9 6 219 6 466 l0 450 -25 24 c-15 16 -36 25
-55 25 -19 0 -40 -9 -55 -25z"/>
    </g>
</svg>
