<?xml version="1.0" encoding="UTF-8"?>
<svg version="1.1" xmlns="http://www.w3.org/2000/svg" >
<path d="M0 0 C184.8 0 369.6 0 560 0 C560 29.7 560 59.4 560 90 C375.2 90 190.4 90 0 90 C0 60.3 0 30.6 0 0 Z " fill="#FDFDFD" transform="translate(0,0)"/>
<path d="M0 0 C43.89 0 87.78 0 133 0 C133 29.7 133 59.4 133 90 C75.91 90 18.82 90 -40 90 C-37.750328 83.25098399 -37.750328 83.25098399 -36.28271484 80.03466797 C-35.95355072 79.30917755 -35.6243866 78.58368713 -35.2852478 77.83621216 C-34.9307254 77.06268402 -34.576203 76.28915588 -34.2109375 75.4921875 C-33.835065 74.66524384 -33.4591925 73.83830017 -33.07192993 72.98629761 C-32.26290542 71.20689069 -31.45259134 69.42806962 -30.64111328 67.64978027 C-28.49145175 62.9386391 -26.35114935 58.22325241 -24.2109375 53.5078125 C-23.7757782 52.5494751 -23.3406189 51.5911377 -22.89227295 50.60375977 C-17.85591875 39.49933154 -12.91588165 28.35239951 -7.98974609 17.19873047 C-7.51606094 16.12825974 -7.51606094 16.12825974 -7.0328064 15.03616333 C-6.4519433 13.72331939 -5.87226 12.40995241 -5.2940979 11.09591675 C-3.62839236 7.33232085 -1.8442723 3.6885446 0 0 Z " fill="#FDFDFD" transform="translate(427,0)"/>
<path d="M0 0 C5 0 5 0 6.86181641 1.38598633 C7.43593262 2.02818115 8.01004883 2.67037598 8.6015625 3.33203125 C9.25133057 4.04302979 9.90109863 4.75402832 10.57055664 5.48657227 C11.24852295 6.25412842 11.92648926 7.02168457 12.625 7.8125 C14.05195266 9.38151256 15.48034194 10.94921976 16.91015625 12.515625 C17.60641113 13.28455078 18.30266602 14.05347656 19.02001953 14.84570312 C21.62026111 17.67486857 24.3207633 20.37019822 27.0625 23.0625 C30.52197814 26.48103757 33.75611334 29.97627042 36.8984375 33.68359375 C40.5500708 37.70853528 44.473767 41.47450962 48.37817383 45.25317383 C48.9739624 45.83736084 49.56975098 46.42154785 50.18359375 47.0234375 C50.72556396 47.54856934 51.26753418 48.07370117 51.82592773 48.61474609 C53 50 53 50 53 52 C53.66 52 54.32 52 55 52 C55 34.84 55 17.68 55 0 C60.28 0 65.56 0 71 0 C71 28.38 71 56.76 71 86 C66 86 66 86 64.3059082 84.78173828 C63.80921631 84.21696777 63.31252441 83.65219727 62.80078125 83.0703125 C62.23625244 82.44455322 61.67172363 81.81879395 61.09008789 81.17407227 C60.50348389 80.49787842 59.91687988 79.82168457 59.3125 79.125 C58.06921489 77.73953199 56.82441634 76.35542064 55.578125 74.97265625 C54.97033203 74.29219238 54.36253906 73.61172852 53.73632812 72.91064453 C51.42658505 70.3690178 49.01533872 67.96643242 46.5625 65.5625 C43.83790611 62.87311895 41.22635933 60.16878581 38.75 57.25 C34.78745539 52.60491182 30.42007595 48.36799577 26.06152344 44.09863281 C25.48176758 43.52725586 24.90201172 42.95587891 24.3046875 42.3671875 C23.78890137 41.86300293 23.27311523 41.35881836 22.74169922 40.83935547 C20.37198722 38.33677484 18.20640319 35.64768383 16 33 C15.67 50.49 15.34 67.98 15 86 C10.05 86 5.1 86 0 86 C0 57.62 0 29.24 0 0 Z " fill="#818181" transform="translate(307,3)"/>
<path d="M0 0 C17.82 0 35.64 0 54 0 C54 4.62 54 9.24 54 14 C41.46 14 28.92 14 16 14 C16 19.94 16 25.88 16 32 C27.22 32 38.44 32 50 32 C50 36.62 50 41.24 50 46 C38.78 46 27.56 46 16 46 C16 54.58 16 63.16 16 72 C28.54 72 41.08 72 54 72 C54 76.62 54 81.24 54 86 C36.18 86 18.36 86 0 86 C0 57.62 0 29.24 0 0 Z " fill="#828282" transform="translate(232,3)"/>
<path d="M0 0 C17.49 0 34.98 0 53 0 C53 4.62 53 9.24 53 14 C40.46 14 27.92 14 15 14 C15 19.94 15 25.88 15 32 C26.22 32 37.44 32 49 32 C49 36.62 49 41.24 49 46 C37.78 46 26.56 46 15 46 C15 54.58 15 63.16 15 72 C27.54 72 40.08 72 53 72 C53 76.62 53 81.24 53 86 C35.51 86 18.02 86 0 86 C0 57.62 0 29.24 0 0 Z " fill="#808080" transform="translate(88,3)"/>
<path d="M0 0 C3.41436797 3.14335123 4.96814969 6.89126378 6.81640625 11.07421875 C7.37009384 12.30486809 7.37009384 12.30486809 7.93496704 13.56037903 C9.1506822 16.26654142 10.3566741 18.97691838 11.5625 21.6875 C12.40278749 23.56407723 13.24369686 25.44037611 14.08520508 27.31640625 C15.83680204 31.22312113 17.58486468 35.13139305 19.33105469 39.04052734 C21.95438817 44.90672915 24.60348746 50.7610512 27.2578125 56.61328125 C28.5007633 59.357832 29.74335529 62.10254489 30.98580933 64.84732056 C31.78651356 66.61484002 32.58820954 68.38191056 33.39089966 70.14852905 C34.50762277 72.60785585 35.61962367 75.06926381 36.73046875 77.53125 C37.06390289 78.26261673 37.39733704 78.99398346 37.74087524 79.74751282 C40 84.77185091 40 84.77185091 40 87 C27.46 87 14.92 87 2 87 C3.16022937 78.29827976 4.28322478 69.90173715 6.125 61.375 C6.48636988 59.69629594 6.84329399 58.01662739 7.1953125 56.3359375 C7.35016113 55.61970215 7.50500977 54.9034668 7.66455078 54.16552734 C8.03882054 51.74938994 8.05508034 49.44118214 8 47 C7.59910156 47.42595459 7.19820313 47.85190918 6.78515625 48.29077148 C5.93244141 49.19678101 5.93244141 49.19678101 5.0625 50.12109375 C4.42231934 50.80131592 3.78213867 51.48153809 3.12255859 52.18237305 C1.69331815 53.70087937 0.26395377 55.21926906 -1.16552734 56.73754883 C-4.91791513 60.72338388 -8.66833264 64.7110317 -12.4140625 68.703125 C-13.12046875 69.45537354 -13.826875 70.20762207 -14.5546875 70.98266602 C-15.90181467 72.41732468 -17.24820818 73.85267272 -18.59375 75.28881836 C-19.81813068 76.59210428 -21.04660157 77.8915638 -22.27978516 79.18652344 C-23.41241216 80.38055599 -24.53235014 81.58677521 -25.63818359 82.80566406 C-29.41861344 86.85416725 -29.41861344 86.85416725 -32.3359375 87.5859375 C-33.00882812 87.51632813 -33.68171875 87.44671875 -34.375 87.375 C-36.169375 87.189375 -36.169375 87.189375 -38 87 C-37.33403611 82.11727111 -35.35396237 78.01791564 -33.30859375 73.58984375 C-32.93126099 72.7613945 -32.55392822 71.93294525 -32.16516113 71.07939148 C-31.35113061 69.29345087 -30.53475331 67.50857843 -29.71627808 65.72467041 C-27.55070035 61.00466913 -25.40150069 56.27721135 -23.25 51.55078125 C-22.81195541 50.58976501 -22.37391083 49.62874878 -21.92259216 48.63861084 C-17.17888731 38.22126432 -12.53558906 27.75993496 -7.90548706 17.29171753 C-7.25049243 15.8108627 -6.59520189 14.3301387 -5.9395752 12.8495636 C-5.35237506 11.52322638 -4.76604236 10.19650461 -4.18078613 8.86930847 C-2.85563325 5.87524555 -1.49826724 2.91171839 0 0 Z " fill="#020202" transform="translate(426,2)"/>
<path d="M0 0 C5.61 0 11.22 0 17 0 C21.29214589 8.27999785 24.93355403 16.76761911 28.5 25.375 C29.06087464 26.72148887 29.62207109 28.06784374 30.18359375 29.4140625 C31.27526633 32.03224128 32.36343259 34.65183611 33.44921875 37.27246094 C34.46160926 39.71305651 35.48690287 42.14685026 36.51953125 44.57910156 C37.20595703 46.19896973 37.20595703 46.19896973 37.90625 47.8515625 C38.51436523 49.275896 38.51436523 49.275896 39.13476562 50.72900391 C40 53 40 53 40 55 C40.66 55 41.32 55 42 55 C42.17713531 54.44779282 42.35427063 53.89558563 42.53677368 53.3266449 C44.27989793 47.9834515 46.22947566 42.78113298 48.3984375 37.59765625 C48.71527496 36.8350499 49.03211243 36.07244354 49.35855103 35.28672791 C50.02423808 33.68699428 50.69152294 32.08792467 51.36035156 30.48950195 C52.37026077 28.07383608 53.37294449 25.65526067 54.375 23.23632812 C57.65978538 15.34242402 61.03584699 7.58392979 65 0 C70.61 0 76.22 0 82 0 C76.24153562 13.07651286 70.32342128 26.07611766 64.375 39.06689453 C59.3998318 49.93281068 54.44270281 60.80677745 49.5 71.6875 C49.168862 72.41639435 48.837724 73.1452887 48.49655151 73.89627075 C46.66383663 77.93060614 44.83165474 81.96518315 43 86 C40.75732422 85.99414062 40.75732422 85.99414062 38 85 C36.3594989 82.34707757 35.11665385 79.93118024 33.8828125 77.09375 C33.50849594 76.27390625 33.13417938 75.4540625 32.7485199 74.609375 C31.52288671 71.91390773 30.32403971 69.2073884 29.125 66.5 C28.28420931 64.63788587 27.44166541 62.77656242 26.59741211 60.91601562 C24.88071567 57.12546143 23.17444542 53.33048586 21.47705078 49.53125 C19.19497192 44.4263868 16.88363745 39.33541588 14.55859375 34.25 C11.50273886 27.56184241 8.45407449 20.87064711 5.43017578 14.16796875 C4.52740867 12.16825792 3.62013195 10.17057122 2.70654297 8.17578125 C2.33803223 7.36496094 1.96952148 6.55414062 1.58984375 5.71875 C1.27781006 5.03748047 0.96577637 4.35621094 0.64428711 3.65429688 C0 2 0 2 0 0 Z " fill="#818181" transform="translate(451,3)"/>
<path d="M0 0 C23.1 0 46.2 0 70 0 C70 4.62 70 9.24 70 14 C61.09 14 52.18 14 43 14 C43 37.76 43 61.52 43 86 C37.72 86 32.44 86 27 86 C27 62.24 27 38.48 27 14 C18.09 14 9.18 14 0 14 C0 9.38 0 4.76 0 0 Z " fill="#818181" transform="translate(0,3)"/>
<path d="M0 0 C8.91 0 17.82 0 27 0 C27 24.09 27 48.18 27 73 C18.09 73 9.18 73 0 73 C0 48.91 0 24.82 0 0 Z " fill="#FFFFFF" transform="translate(0,17)"/>
<path d="M0 0 C5.28 0 10.56 0 16 0 C16 23.76 16 47.52 16 72 C28.54 72 41.08 72 54 72 C54 76.62 54 81.24 54 86 C36.18 86 18.36 86 0 86 C0 57.62 0 29.24 0 0 Z " fill="#838383" transform="translate(162,3)"/>
<path d="M0 0 C0.33 0 0.66 0 1 0 C0.35782303 8.24406667 -1.01876059 16.30761172 -2.5 24.4375 C-2.72558594 25.70271484 -2.95117188 26.96792969 -3.18359375 28.27148438 C-4.86350356 37.59051067 -4.86350356 37.59051067 -6 41 C6.87 40.67 19.74 40.34 33 40 C33 40.66 33 41.32 33 42 C6.6 42 -19.8 42 -47 42 C-46.67 41.34 -46.34 40.68 -46 40 C-44.82566406 40.1340625 -43.65132813 40.268125 -42.44140625 40.40625 C-38.78631752 40.39981357 -37.08793373 39.68777231 -34.40234375 37.21875 C-33.22579938 35.99964588 -32.07141061 34.75885593 -30.9375 33.5 C-30.02254761 32.53477417 -30.02254761 32.53477417 -29.08911133 31.55004883 C-25.50466889 27.74292848 -22.015171 23.84663779 -18.63671875 19.85546875 C-15.97797351 16.84137809 -13.07910201 14.07116911 -10.21875 11.25 C-7.45558748 8.4479197 -4.87276299 5.51822348 -2.3125 2.53125 C-1.56874537 1.66353626 -0.8081145 0.8081145 0 0 Z " fill="#F5F5F5" transform="translate(434,48)"/>
<path d="M0 0 C2.875 1.4375 2.875 1.4375 5 4 C5.90705593 8.29865635 5.72920717 11.75427109 3.5 15.5625 C-0.04087907 17.59850547 -3.011929 17.79433858 -7 17 C-10.33219018 14.86398066 -10.89315459 13.3672811 -12 9.5625 C-12 6 -12 6 -10.1875 3.125 C-6.80120612 -0.16454263 -4.68230115 -0.45904913 0 0 Z " fill="#B7B7B7" transform="translate(554,3)"/>
<path d="M0 0 C1.98 0 3.96 0 6 0 C6.97001682 3.39505887 7 6.47064557 7 10 C6.34 10 5.68 10 5 10 C4.34 8.35 3.68 6.7 3 5 C2.34 5 1.68 5 1 5 C0.67 6.32 0.34 7.64 0 9 C0 6.03 0 3.06 0 0 Z " fill="#A6A6A6" transform="translate(548,7)"/>
<path d="M0 0 C0.33 0 0.66 0 1 0 C1.33 1.65 1.66 3.3 2 5 C2.66 5 3.32 5 4 5 C4.28875 5.804375 4.5775 6.60875 4.875 7.4375 C5.73262568 10.1326468 5.73262568 10.1326468 8 11 C5.6739143 11.38063221 3.33944736 11.71269945 1 12 C0 11 0 11 -0.09765625 8.49609375 C-0.08605469 7.48675781 -0.07445312 6.47742188 -0.0625 5.4375 C-0.05347656 4.42558594 -0.04445313 3.41367188 -0.03515625 2.37109375 C-0.02355469 1.58863281 -0.01195312 0.80617188 0 0 Z " fill="#E7E7E7" transform="translate(547,7)"/>
<path d="M0 0 C1.31157516 2.62315032 0.89649988 4.23033436 0.5625 7.125 C0.46066406 8.03507813 0.35882812 8.94515625 0.25390625 9.8828125 C0.12822266 10.93082031 0.12822266 10.93082031 0 12 C-0.99 11.34 -1.98 10.68 -3 10 C-3.66932271 3.86454183 -3.66932271 3.86454183 -1.5 1.0625 C-1.005 0.711875 -0.51 0.36125 0 0 Z " fill="#FBFBFB" transform="translate(547,5)"/>
</svg>
