<svg width="21" height="18" viewBox="0 0 21 18" fill="none" xmlns="http://www.w3.org/2000/svg">
<path d="M20.6137 2.71297C19.8594 3.05007 19.0488 3.2771 18.1981 3.37944C19.0668 2.85572 19.7339 2.02586 20.0473 1.03691C19.235 1.52193 18.3347 1.87451 17.3764 2.06456C16.6102 1.24158 15.516 0.727325 14.3065 0.727325C11.5911 0.727325 9.59582 3.27796 10.2091 5.92578C6.71473 5.74948 3.61583 4.06396 1.54107 1.50215C0.439205 3.40524 0.96964 5.89482 2.84196 7.15551C2.15351 7.13316 1.50434 6.94311 0.938036 6.62578C0.891911 8.58735 2.28847 10.4225 4.31112 10.831C3.71919 10.9927 3.07088 11.0305 2.41146 10.9032C2.94617 12.5853 4.49904 13.809 6.34061 13.8434C4.57249 15.2391 2.34484 15.8626 0.11377 15.5977C1.97499 16.7991 4.18641 17.5 6.56098 17.5C14.3697 17.5 18.7815 10.8602 18.515 4.905C19.3367 4.30733 20.0499 3.56175 20.6137 2.71297Z" fill="white"/>
</svg>
