<svg width="79" height="57" viewBox="0 0 79 57" fill="none" xmlns="http://www.w3.org/2000/svg">
<g clip-path="url(#clip0_189:3114)">
<path d="M46.6351 40.4655C43.4397 40.4655 40.8496 42.9904 40.8496 46.1054C40.8496 49.2203 43.4397 51.7452 46.6351 51.7452C49.8305 51.7452 52.4205 49.2203 52.4205 46.1054C52.4205 42.9904 49.8305 40.4655 46.6351 40.4655ZM46.6351 49.4193C44.7559 49.4193 43.2356 47.9373 43.2356 46.1054C43.2356 44.2735 44.7559 42.7914 46.6351 42.7914C48.5142 42.7914 50.0345 44.2735 50.0345 46.1054C50.0345 47.9304 48.5142 49.4193 46.6351 49.4193Z" fill="white"/>
<path d="M59.4512 43.1687C57.7972 43.1687 56.4599 44.4724 56.4599 46.0847V51.4227H53.9824V40.7811H56.4599V42.4209C56.4599 42.4209 57.5157 40.7811 59.6834 40.7811H60.4436V43.1687H59.4512Z" fill="white"/>
<path d="M34.3465 40.7811L36.2187 48.1499L38.2809 40.7811H40.7443L37.57 51.4227H35.1136L33.1711 44.0195L31.2285 51.4227H28.7722L25.5979 40.7811H28.0543L30.1165 48.1499L31.9887 40.7811H34.3465Z" fill="white"/>
<path d="M67.7504 45.6868C69.5102 44.7194 70.6995 42.8806 70.6995 40.7811H68.2219C68.2219 42.5513 66.744 43.9989 64.9209 43.9989H64.5904V35.6489H62.1128V51.4228H64.5904V46.4141H64.8857C65.1251 46.4141 65.4417 46.5719 65.5827 46.7571L69.0946 51.4228H72.065L67.7504 45.6868Z" fill="white"/>
<path d="M19.7141 40.4655C17.0185 40.4655 14.9211 42.1739 14.0765 44.987C12.7815 43.0864 11.7961 40.8085 11.219 38.8874H8.3122V46.2494C8.3122 47.704 7.10161 48.8841 5.60949 48.8841C4.11738 48.8841 2.9068 47.704 2.9068 46.2494V38.8874H0V46.2494C0 49.2615 2.5197 51.7384 5.60949 51.7384C8.6993 51.7384 11.219 49.2615 11.219 46.2494V45.0145C11.7821 46.1602 12.4718 47.3198 13.3164 48.349L11.5428 56.5H14.5129L15.8009 50.5857C16.927 51.2856 18.2291 51.7384 19.7141 51.7384C22.8955 51.7384 25.4926 49.1997 25.4926 46.0916C25.4855 42.9904 22.8955 40.4655 19.7141 40.4655ZM19.7141 48.891C18.5387 48.891 17.4478 48.4038 16.4484 47.6217L16.6948 46.5102L16.7018 46.469C16.92 45.2889 17.6027 43.2991 19.7212 43.2991C21.3048 43.2991 22.5928 44.5547 22.5928 46.0985C22.5858 47.6354 21.2978 48.891 19.7141 48.891Z" fill="white"/>
<path d="M72.5785 41.0418H71.7478V40.7948H73.6833V41.0418H72.8532V43.1962H72.5712V41.0418H72.5785Z" fill="white"/>
<path d="M74.2035 40.7948H74.4854L75.386 42.1053L76.2872 40.7948H76.5686V43.1962H76.2872V41.2476L75.386 42.5375H75.3721L74.4708 41.2545V43.1962H74.1968V40.7948H74.2035Z" fill="white"/>
<path d="M2.02967 7.64892H2.74857V2.03403H2.25877C1.94277 2.64586 1.52407 2.74654 0.702466 2.77752V3.25769H2.02967V7.64892ZM6.12314 7.7496C7.64784 7.7496 8.35094 6.61888 8.35094 4.8376C8.35094 3.06407 7.64784 1.93335 6.12314 1.93335C4.59846 1.93335 3.89536 3.06407 3.89536 4.8376C3.89536 6.61888 4.59846 7.7496 6.12314 7.7496ZM6.12314 2.52195C7.02374 2.52195 7.58464 3.28092 7.58464 4.8376C7.58464 6.40203 7.02374 7.16101 6.12314 7.16101C5.22256 7.16101 4.66166 6.40203 4.66166 4.8376C4.66166 3.28092 5.22256 2.52195 6.12314 2.52195ZM11.3461 7.7496C12.8708 7.7496 13.5739 6.61888 13.5739 4.8376C13.5739 3.06407 12.8708 1.93335 11.3461 1.93335C9.82144 1.93335 9.11834 3.06407 9.11834 4.8376C9.11834 6.61888 9.82144 7.7496 11.3461 7.7496ZM11.3461 2.52195C12.2467 2.52195 12.8076 3.28092 12.8076 4.8376C12.8076 6.40203 12.2467 7.16101 11.3461 7.16101C10.4455 7.16101 9.88464 6.40203 9.88464 4.8376C9.88464 3.28092 10.4455 2.52195 11.3461 2.52195ZM14.2544 3.61395C14.2544 4.57429 14.6889 5.24807 15.5421 5.24807C16.4111 5.24807 16.8456 4.57429 16.8456 3.61395C16.8456 2.65361 16.4111 1.97982 15.5421 1.97982C14.6889 1.97982 14.2544 2.65361 14.2544 3.61395ZM15.5342 7.64892H16.3321L20.2821 2.03403H19.4842L15.5342 7.64892ZM16.2452 3.61395C16.2452 4.38067 16.0003 4.82212 15.5421 4.82212C15.0997 4.82212 14.8548 4.38067 14.8548 3.61395C14.8548 2.83948 15.0997 2.39803 15.5421 2.39803C16.0003 2.39803 16.2452 2.83948 16.2452 3.61395ZM18.9944 6.06901C18.9944 7.02935 19.4289 7.70314 20.2821 7.70314C21.1511 7.70314 21.5856 7.02935 21.5856 6.06901C21.5856 5.10867 21.1511 4.43488 20.2821 4.43488C19.4289 4.43488 18.9944 5.10867 18.9944 6.06901ZM20.9852 6.06901C20.9852 6.83573 20.7403 7.27718 20.2821 7.27718C19.8397 7.27718 19.5948 6.83573 19.5948 6.06901C19.5948 5.29454 19.8397 4.85309 20.2821 4.85309C20.7403 4.85309 20.9852 5.29454 20.9852 6.06901ZM26.597 2.03403V5.8599C26.597 6.87446 26.0677 7.1068 25.6016 7.1068C25.0328 7.1068 24.5588 6.69633 24.5588 5.91412H23.8083C23.8083 7.13003 24.4877 7.7496 25.6016 7.7496C26.7234 7.7496 27.4028 7.09131 27.4028 5.86765V2.03403H26.597ZM32.4489 5.58109C32.4489 4.07088 31.3982 3.41258 30.4107 3.41258C29.4232 3.41258 28.3725 4.07088 28.3725 5.58109C28.3725 7.09131 29.4232 7.7496 30.4107 7.7496C31.3982 7.7496 32.4489 7.09131 32.4489 5.58109ZM30.4107 7.13003C29.7629 7.13003 29.1388 6.68858 29.1388 5.58109C29.1388 4.44263 29.7629 4.03216 30.4107 4.03216C31.0585 4.03216 31.6826 4.4736 31.6826 5.58109C31.6826 6.64986 31.0585 7.13003 30.4107 7.13003ZM34.0277 2.03403H33.3088V7.64892H34.0277V7.0216C34.2884 7.46305 34.7387 7.7496 35.4181 7.7496C36.3898 7.7496 37.2351 6.95965 37.2351 5.58109C37.2351 4.21029 36.3898 3.41258 35.4181 3.41258C34.7387 3.41258 34.2884 3.69914 34.0277 4.14058V2.03403ZM35.2364 7.14552C34.5965 7.14552 33.9961 6.68084 33.9961 5.58109C33.9961 4.48135 34.5965 4.01667 35.2364 4.01667C35.9711 4.01667 36.453 4.58978 36.453 5.58109C36.453 6.57241 35.9711 7.14552 35.2364 7.14552ZM41.8716 1.93335C40.9473 1.93335 39.8018 2.39803 39.8018 3.4668C39.8018 4.4039 40.5918 4.82986 41.3739 5.00024L42.0849 5.14739C42.8038 5.30229 43.3173 5.55012 43.3173 6.13871C43.3173 6.68858 42.8275 7.08356 41.9822 7.08356C41.1053 7.08356 40.5522 6.68084 40.4021 5.90637H39.6122C39.7623 7.02935 40.6155 7.7496 41.9664 7.7496C43.104 7.7496 44.1468 7.16875 44.1468 6.06901C44.1468 4.93829 43.0961 4.61301 42.2192 4.42714L41.5556 4.27999C41.0263 4.16382 40.6234 3.91599 40.6234 3.42033C40.6234 2.79301 41.3976 2.59939 41.84 2.59939C42.4167 2.59939 43.0645 2.81624 43.262 3.4668H44.0441C43.8229 2.38254 42.8986 1.93335 41.8716 1.93335ZM47.6584 7.05258V7.64892H48.3773V3.48229H47.6584V5.77471C47.6584 6.66535 47.2555 7.13777 46.5761 7.13777C45.794 7.13777 45.6834 6.58016 45.6834 5.93735V3.48229H44.9645V6.14646C44.9645 7.09905 45.3358 7.7496 46.3233 7.7496C47.0264 7.7496 47.4135 7.44756 47.6584 7.05258ZM53.0569 4.87633C52.9621 4.17156 52.3064 3.41258 51.2794 3.41258C50.0233 3.41258 49.2254 4.3342 49.2254 5.57335C49.2254 6.84348 49.9917 7.7496 51.2083 7.7496C52.1958 7.7496 52.9621 7.07582 53.1043 6.2936H52.3617C52.259 6.73505 51.8324 7.13003 51.232 7.13003C50.6 7.13003 50.0075 6.62663 50.0075 5.5656C50.0075 4.52007 50.5921 4.03216 51.232 4.03216C51.785 4.03216 52.2274 4.38067 52.3301 4.87633H53.0569ZM57.4929 4.87633C57.3981 4.17156 56.7424 3.41258 55.7154 3.41258C54.4593 3.41258 53.6614 4.3342 53.6614 5.57335C53.6614 6.84348 54.4277 7.7496 55.6443 7.7496C56.6318 7.7496 57.3981 7.07582 57.5403 6.2936H56.7977C56.695 6.73505 56.2684 7.13003 55.668 7.13003C55.036 7.13003 54.4435 6.62663 54.4435 5.5656C54.4435 4.52007 55.0281 4.03216 55.668 4.03216C56.221 4.03216 56.6634 4.38067 56.7661 4.87633H57.4929ZM58.8716 5.79795H62.142C62.2368 4.48135 61.4547 3.41258 60.1593 3.41258C58.998 3.41258 58.0974 4.25675 58.0974 5.57335C58.0974 6.80475 58.84 7.7496 60.183 7.7496C61.2177 7.7496 61.8892 7.16101 62.0867 6.44075H61.3441C61.1624 6.85122 60.8148 7.13003 60.183 7.13003C59.551 7.13003 58.9032 6.69633 58.8716 5.79795ZM58.8795 5.19386C58.9427 4.35743 59.5194 4.01667 60.1593 4.01667C60.9175 4.01667 61.3678 4.60526 61.3836 5.19386H58.8795ZM65.429 4.6982H66.1795C66.0452 3.90824 65.4211 3.40484 64.5047 3.40484C63.5646 3.40484 62.8062 3.8308 62.8062 4.56654C62.8062 5.34101 63.4382 5.60433 64.0149 5.7205L64.6469 5.84441C65.1051 5.93735 65.508 6.11548 65.508 6.53369C65.508 6.92092 65.0656 7.15326 64.5205 7.15326C63.8885 7.15326 63.5488 6.83573 63.4382 6.30135H62.6798C62.7588 7.02935 63.3908 7.7496 64.5047 7.7496C65.4764 7.7496 66.2348 7.27718 66.2348 6.45624C66.2348 5.6508 65.5554 5.36424 64.7812 5.21709L64.1808 5.10092C63.77 5.02348 63.533 4.86858 63.533 4.53556C63.533 4.15607 64.007 4.00892 64.4257 4.00892C64.9234 4.00892 65.3184 4.20254 65.429 4.6982ZM69.5795 4.6982H70.33C70.1957 3.90824 69.5716 3.40484 68.6552 3.40484C67.7151 3.40484 66.9567 3.8308 66.9567 4.56654C66.9567 5.34101 67.5887 5.60433 68.1654 5.7205L68.7974 5.84441C69.2556 5.93735 69.6585 6.11548 69.6585 6.53369C69.6585 6.92092 69.2161 7.15326 68.671 7.15326C68.039 7.15326 67.6993 6.83573 67.5887 6.30135H66.8303C66.9093 7.02935 67.5413 7.7496 68.6552 7.7496C69.6269 7.7496 70.3853 7.27718 70.3853 6.45624C70.3853 5.6508 69.7059 5.36424 68.9317 5.21709L68.3313 5.10092C67.9205 5.02348 67.6835 4.86858 67.6835 4.53556C67.6835 4.15607 68.1575 4.00892 68.5762 4.00892C69.0739 4.00892 69.4689 4.20254 69.5795 4.6982ZM2.73277 10.9702L0.607666 16.5851H1.42927L1.87167 15.3692H4.50237L4.95267 16.5851H5.82167L3.66497 10.9702H2.73277ZM2.11657 14.6954L3.17517 11.7679L4.24957 14.6954H2.11657ZM7.11058 16.5851V14.3236C7.11058 13.433 7.52138 12.9606 8.13758 12.9606C8.91968 12.9606 9.04608 13.5182 9.04608 14.161V16.5851H9.76498V14.3236C9.76498 13.433 10.1758 12.9606 10.792 12.9606C11.5741 12.9606 11.7005 13.5182 11.7005 14.161V16.5851H12.4194V13.9519C12.4194 12.9993 12.0323 12.3488 11.0448 12.3488C10.4523 12.3488 9.95458 12.5733 9.61488 13.0845C9.42528 12.6276 9.03818 12.3488 8.39038 12.3488C7.75048 12.3488 7.35548 12.6508 7.11058 13.0458V12.4185H6.39168V16.5851H7.11058ZM17.297 14.5173C17.297 13.0071 16.2463 12.3488 15.2588 12.3488C14.2713 12.3488 13.2206 13.0071 13.2206 14.5173C13.2206 16.0275 14.2713 16.6858 15.2588 16.6858C16.2463 16.6858 17.297 16.0275 17.297 14.5173ZM15.2588 16.0662C14.611 16.0662 13.9869 15.6248 13.9869 14.5173C13.9869 13.3788 14.611 12.9683 15.2588 12.9683C15.9066 12.9683 16.5307 13.4098 16.5307 14.5173C16.5307 15.586 15.9066 16.0662 15.2588 16.0662ZM18.8757 13.0458V12.4185H18.1568V16.5851H18.8757V14.3236C18.8757 13.433 19.3023 12.9606 19.9975 12.9606C20.8191 12.9606 20.9297 13.5182 20.9297 14.161V16.5851H21.6486V13.9519C21.6486 12.9993 21.2773 12.3488 20.2503 12.3488C19.5314 12.3488 19.1206 12.6508 18.8757 13.0458ZM25.5838 12.4185V13.0768C25.3231 12.6353 24.9123 12.3488 24.2329 12.3488C23.2928 12.3488 22.4317 13.1 22.4317 14.4321C22.4317 15.7719 23.2928 16.5154 24.2329 16.5154C24.9123 16.5154 25.3231 16.2366 25.5838 15.7951V16.1901C25.5838 16.7555 25.4653 16.9491 25.3073 17.1117C25.1177 17.3131 24.8254 17.4215 24.4383 17.4215C23.7747 17.4215 23.5456 17.135 23.4508 16.7632H22.6845C22.8188 17.6074 23.4666 18.0411 24.4304 18.0411C25.0624 18.0411 25.5917 17.8397 25.8998 17.4912C26.1447 17.2279 26.3027 16.8794 26.3027 16.0275V12.4185H25.5838ZM24.4146 12.9528C25.0545 12.9528 25.6154 13.3788 25.6154 14.4321C25.6154 15.4931 25.0545 15.9191 24.4146 15.9191C23.7115 15.9191 23.2138 15.3847 23.2138 14.4321C23.2138 13.4872 23.7115 12.9528 24.4146 12.9528ZM29.5179 11.3729V12.4185H28.8464V12.9838H29.5179V15.5396C29.5179 16.407 29.7075 16.5851 30.5212 16.5851H31.0426V15.9965H30.6792C30.2684 15.9965 30.2368 15.8881 30.2368 15.4544V12.9838H31.0426V12.4185H30.2368V11.3729H29.5179ZM35.6429 14.5173C35.6429 13.0071 34.5922 12.3488 33.6047 12.3488C32.6172 12.3488 31.5665 13.0071 31.5665 14.5173C31.5665 16.0275 32.6172 16.6858 33.6047 16.6858C34.5922 16.6858 35.6429 16.0275 35.6429 14.5173ZM33.6047 16.0662C32.9569 16.0662 32.3328 15.6248 32.3328 14.5173C32.3328 13.3788 32.9569 12.9683 33.6047 12.9683C34.2525 12.9683 34.8766 13.4098 34.8766 14.5173C34.8766 15.586 34.2525 16.0662 33.6047 16.0662ZM37.2216 12.4185H36.5027V17.9404H37.2216V15.9578C37.4823 16.3992 37.9326 16.6858 38.612 16.6858C39.5837 16.6858 40.429 15.8958 40.429 14.5173C40.429 13.1465 39.5837 12.3488 38.612 12.3488C37.9326 12.3488 37.4823 12.6353 37.2216 13.0768V12.4185ZM38.4303 16.0817C37.7904 16.0817 37.19 15.617 37.19 14.5173C37.19 13.4175 37.7904 12.9528 38.4303 12.9528C39.165 12.9528 39.6469 13.5259 39.6469 14.5173C39.6469 15.5086 39.165 16.0817 38.4303 16.0817ZM43.8641 12.4185H43.1452V17.9404H43.8641V15.9578C44.1248 16.3992 44.5751 16.6858 45.2545 16.6858C46.2262 16.6858 47.0715 15.8958 47.0715 14.5173C47.0715 13.1465 46.2262 12.3488 45.2545 12.3488C44.5751 12.3488 44.1248 12.6353 43.8641 13.0768V12.4185ZM45.0728 16.0817C44.4329 16.0817 43.8325 15.617 43.8325 14.5173C43.8325 13.4175 44.4329 12.9528 45.0728 12.9528C45.8075 12.9528 46.2894 13.5259 46.2894 14.5173C46.2894 15.5086 45.8075 16.0817 45.0728 16.0817ZM50.0302 13.1542V12.403C49.9512 12.3952 49.888 12.3952 49.8169 12.3952C49.2639 12.4107 48.8294 12.674 48.6161 13.1465V12.4185H47.913V16.5851H48.6319V14.4011C48.6319 13.4872 48.9637 13.1232 49.6273 13.1232C49.7458 13.1232 49.8801 13.1387 50.0302 13.1542ZM54.4439 14.5173C54.4439 13.0071 53.3932 12.3488 52.4057 12.3488C51.4182 12.3488 50.3675 13.0071 50.3675 14.5173C50.3675 16.0275 51.4182 16.6858 52.4057 16.6858C53.3932 16.6858 54.4439 16.0275 54.4439 14.5173ZM52.4057 16.0662C51.7579 16.0662 51.1338 15.6248 51.1338 14.5173C51.1338 13.3788 51.7579 12.9683 52.4057 12.9683C53.0535 12.9683 53.6776 13.4098 53.6776 14.5173C53.6776 15.586 53.0535 16.0662 52.4057 16.0662ZM56.6092 15.6093L55.4558 12.4185H54.6579L56.2616 16.5851H56.9015L58.5052 12.4185H57.7626L56.6092 15.6093ZM59.7953 10.9702H59.0764V11.8221H59.7953V10.9702ZM59.7953 12.4185H59.0764V16.5851H59.7953V12.4185ZM63.8508 10.9702V13.0768C63.5901 12.6353 63.1398 12.3488 62.4604 12.3488C61.4887 12.3488 60.6434 13.1465 60.6434 14.5173C60.6434 15.8958 61.4887 16.6858 62.4604 16.6858C63.1398 16.6858 63.5901 16.3992 63.8508 15.9578V16.5851H64.5697V10.9702H63.8508ZM62.6421 12.9528C63.282 12.9528 63.8824 13.4175 63.8824 14.5173C63.8824 15.617 63.282 16.0817 62.6421 16.0817C61.9074 16.0817 61.4255 15.5086 61.4255 14.5173C61.4255 13.5259 61.9074 12.9528 62.6421 12.9528ZM66.1856 14.7341H69.4562C69.551 13.4175 68.7689 12.3488 67.4733 12.3488C66.312 12.3488 65.4114 13.1929 65.4114 14.5095C65.4114 15.7409 66.154 16.6858 67.497 16.6858C68.5319 16.6858 69.2034 16.0972 69.4009 15.3769H68.6583C68.4766 15.7874 68.129 16.0662 67.497 16.0662C66.865 16.0662 66.2172 15.6325 66.1856 14.7341ZM66.1935 14.13C66.2567 13.2936 66.8334 12.9528 67.4733 12.9528C68.2317 12.9528 68.682 13.5414 68.6978 14.13H66.1935ZM72.4108 13.1542V12.403C72.3318 12.3952 72.2686 12.3952 72.1975 12.3952C71.6445 12.4107 71.21 12.674 70.9967 13.1465V12.4185H70.2936V16.5851H71.0125V14.4011C71.0125 13.4872 71.3443 13.1232 72.0079 13.1232C72.1264 13.1232 72.2607 13.1387 72.4108 13.1542ZM75.4966 13.6344H76.2471C76.1128 12.8444 75.4887 12.341 74.5723 12.341C73.6322 12.341 72.8738 12.767 72.8738 13.5027C72.8738 14.2772 73.5058 14.5405 74.0825 14.6567L74.7145 14.7806C75.1727 14.8735 75.5756 15.0516 75.5756 15.4699C75.5756 15.8571 75.1332 16.0894 74.5881 16.0894C73.9561 16.0894 73.6164 15.7719 73.5058 15.2375H72.7474C72.8264 15.9655 73.4584 16.6858 74.5723 16.6858C75.544 16.6858 76.3024 16.2133 76.3024 15.3924C76.3024 14.587 75.623 14.3004 74.8488 14.1533L74.2484 14.0371C73.8376 13.9596 73.6006 13.8048 73.6006 13.4717C73.6006 13.0922 74.0746 12.9451 74.4933 12.9451C74.991 12.9451 75.386 13.1387 75.4966 13.6344ZM1.35817 21.0526V21.3546H0.765666V21.92H1.35817V25.5213H2.07707V21.92H2.87497V21.3546H2.07707V21.0139C2.07707 20.5802 2.14027 20.495 2.51947 20.495H2.87497V19.9064H2.50367C1.53987 19.9064 1.35817 20.1852 1.35817 21.0526ZM7.29854 23.4534C7.29854 21.9432 6.24784 21.2849 5.26033 21.2849C4.27283 21.2849 3.22213 21.9432 3.22213 23.4534C3.22213 24.9636 4.27283 25.6219 5.26033 25.6219C6.24784 25.6219 7.29854 24.9636 7.29854 23.4534ZM5.26033 25.0024C4.61253 25.0024 3.98843 24.5609 3.98843 23.4534C3.98843 22.315 4.61253 21.9045 5.26033 21.9045C5.90813 21.9045 6.53224 22.3459 6.53224 23.4534C6.53224 24.5222 5.90813 25.0024 5.26033 25.0024ZM10.2756 22.0904V21.3391C10.1966 21.3314 10.1334 21.3314 10.0623 21.3314C9.50933 21.3469 9.07483 21.6102 8.86153 22.0826V21.3546H8.15842V25.5213H8.87733V23.3373C8.87733 22.4234 9.20912 22.0594 9.87272 22.0594C9.99123 22.0594 10.1255 22.0749 10.2756 22.0904ZM13.3232 23.6703H16.5938C16.6886 22.3537 15.9065 21.2849 14.6109 21.2849C13.4496 21.2849 12.549 22.1291 12.549 23.4457C12.549 24.6771 13.2916 25.6219 14.6346 25.6219C15.6695 25.6219 16.341 25.0333 16.5385 24.3131H15.7959C15.6142 24.7236 15.2666 25.0024 14.6346 25.0024C14.0026 25.0024 13.3548 24.5687 13.3232 23.6703ZM13.3311 23.0662C13.3943 22.2298 13.971 21.889 14.6109 21.889C15.3693 21.889 15.8196 22.4776 15.8354 23.0662H13.3311ZM18.1505 21.9819V21.3546H17.4316V25.5213H18.1505V23.2598C18.1505 22.3692 18.5771 21.8968 19.2723 21.8968C20.0939 21.8968 20.2045 22.4544 20.2045 23.0972V25.5213H20.9234V22.8881C20.9234 21.9355 20.5521 21.2849 19.5251 21.2849C18.8062 21.2849 18.3954 21.587 18.1505 21.9819ZM22.2042 20.3091V21.3546H21.5327V21.92H22.2042V24.4757C22.2042 25.3431 22.3938 25.5213 23.2075 25.5213H23.7289V24.9327H23.3655C22.9547 24.9327 22.9231 24.8242 22.9231 24.3905V21.92H23.7289V21.3546H22.9231V20.3091H22.2042ZM25.0112 23.6703H28.2818C28.3766 22.3537 27.5945 21.2849 26.2989 21.2849C25.1376 21.2849 24.237 22.1291 24.237 23.4457C24.237 24.6771 24.9796 25.6219 26.3226 25.6219C27.3575 25.6219 28.029 25.0333 28.2265 24.3131H27.4839C27.3022 24.7236 26.9546 25.0024 26.3226 25.0024C25.6906 25.0024 25.0428 24.5687 25.0112 23.6703ZM25.0191 23.0662C25.0823 22.2298 25.659 21.889 26.2989 21.889C27.0573 21.889 27.5076 22.4776 27.5234 23.0662H25.0191ZM31.2368 22.0904V21.3391C31.1578 21.3314 31.0946 21.3314 31.0235 21.3314C30.4705 21.3469 30.036 21.6102 29.8227 22.0826V21.3546H29.1196V25.5213H29.8385V23.3373C29.8385 22.4234 30.1703 22.0594 30.8339 22.0594C30.9524 22.0594 31.0867 22.0749 31.2368 22.0904ZM32.6467 21.3546H31.9278V26.8766H32.6467V24.8939C32.9074 25.3354 33.3577 25.6219 34.0371 25.6219C35.0088 25.6219 35.8541 24.832 35.8541 23.4534C35.8541 22.0826 35.0088 21.2849 34.0371 21.2849C33.3577 21.2849 32.9074 21.5715 32.6467 22.0129V21.3546ZM33.8554 25.0179C33.2155 25.0179 32.6151 24.5532 32.6151 23.4534C32.6151 22.3537 33.2155 21.889 33.8554 21.889C34.5901 21.889 35.072 22.4621 35.072 23.4534C35.072 24.4448 34.5901 25.0179 33.8554 25.0179ZM38.8128 22.0904V21.3391C38.7338 21.3314 38.6706 21.3314 38.5995 21.3314C38.0465 21.3469 37.612 21.6102 37.3987 22.0826V21.3546H36.6956V25.5213H37.4145V23.3373C37.4145 22.4234 37.7463 22.0594 38.4099 22.0594C38.5284 22.0594 38.6627 22.0749 38.8128 22.0904ZM40.2227 19.9064H39.5038V20.7583H40.2227V19.9064ZM40.2227 21.3546H39.5038V25.5213H40.2227V21.3546ZM43.7963 22.5705H44.5468C44.4125 21.7806 43.7884 21.2772 42.872 21.2772C41.9319 21.2772 41.1735 21.7031 41.1735 22.4389C41.1735 23.2134 41.8055 23.4767 42.3822 23.5928L43.0142 23.7168C43.4724 23.8097 43.8753 23.9878 43.8753 24.406C43.8753 24.7933 43.4329 25.0256 42.8878 25.0256C42.2558 25.0256 41.9161 24.7081 41.8055 24.1737H41.0471C41.1261 24.9017 41.7581 25.6219 42.872 25.6219C43.8437 25.6219 44.6021 25.1495 44.6021 24.3286C44.6021 23.5231 43.9227 23.2366 43.1485 23.0894L42.5481 22.9733C42.1373 22.8958 41.9003 22.7409 41.9003 22.4079C41.9003 22.0284 42.3743 21.8813 42.793 21.8813C43.2907 21.8813 43.6857 22.0749 43.7963 22.5705ZM45.9956 23.6703H49.2662C49.361 22.3537 48.5789 21.2849 47.2833 21.2849C46.122 21.2849 45.2214 22.1291 45.2214 23.4457C45.2214 24.6771 45.964 25.6219 47.307 25.6219C48.3419 25.6219 49.0134 25.0333 49.2109 24.3131H48.4683C48.2866 24.7236 47.939 25.0024 47.307 25.0024C46.675 25.0024 46.0272 24.5687 45.9956 23.6703ZM46.0035 23.0662C46.0667 22.2298 46.6434 21.889 47.2833 21.889C48.0417 21.889 48.492 22.4776 48.5078 23.0662H46.0035ZM52.5527 22.5705H53.3032C53.1689 21.7806 52.5448 21.2772 51.6284 21.2772C50.6883 21.2772 49.9299 21.7031 49.9299 22.4389C49.9299 23.2134 50.5619 23.4767 51.1386 23.5928L51.7706 23.7168C52.2288 23.8097 52.6317 23.9878 52.6317 24.406C52.6317 24.7933 52.1893 25.0256 51.6442 25.0256C51.0122 25.0256 50.6725 24.7081 50.5619 24.1737H49.8035C49.8825 24.9017 50.5145 25.6219 51.6284 25.6219C52.6001 25.6219 53.3585 25.1495 53.3585 24.3286C53.3585 23.5231 52.6791 23.2366 51.9049 23.0894L51.3045 22.9733C50.8937 22.8958 50.6567 22.7409 50.6567 22.4079C50.6567 22.0284 51.1307 21.8813 51.5494 21.8813C52.0471 21.8813 52.4421 22.0749 52.5527 22.5705Z" fill="#979797"/>
</g>
<defs>
<clipPath id="clip0_189:3114">
<rect width="79" height="56" fill="white" transform="translate(0 0.5)"/>
</clipPath>
</defs>
</svg>
