<?xml version="1.0" standalone="no"?>
<!DOCTYPE svg PUBLIC "-//W3C//DTD SVG 20010904//EN"
 "http://www.w3.org/TR/2001/REC-SVG-20010904/DTD/svg10.dtd">
<svg version="1.0"
    xmlns="http://www.w3.org/2000/svg" width="512.000000pt" height="512.000000pt" viewBox="0 0 512.000000 512.000000" preserveAspectRatio="xMidYMid meet">

    <g transform="translate(0.000000,512.000000) scale(0.100000,-0.100000)" fill="blue" stroke="none">
        <path d="M2375 5109 c-229 -31 -439 -115 -609 -244 -143 -107 -292 -287 -361
-437 l-25 -53 590 -3 c325 -1 855 -1 1180 0 l590 3 -25 53 c-71 153 -220 332
-370 444 -81 61 -257 152 -352 183 -163 52 -450 77 -618 54z"/>
        <path d="M1165 4036 c-102 -32 -189 -98 -244 -185 -61 -94 -64 -113 -68 -491
-3 -204 -1 -375 5 -418 26 -188 165 -339 341 -372 74 -14 2648 -14 2722 0 176
33 315 184 341 372 6 43 8 214 5 418 -4 378 -7 397 -68 491 -43 68 -110 126
-187 162 l-67 32 -1370 2 c-1087 1 -1378 -1 -1410 -11z m543 -623 l2 -213
-215 0 -215 0 0 215 0 215 213 -2 212 -3 3 -212z"/>
        <path d="M1550 2234 c0 -17 83 -179 118 -230 165 -244 389 -402 676 -476 115
-30 317 -30 432 0 287 74 511 232 676 476 35 51 118 213 118 230 0 3 -454 6
-1010 6 -555 0 -1010 -3 -1010 -6z"/>
        <path d="M935 1381 c-291 -98 -555 -190 -585 -204 -118 -57 -231 -174 -292
-303 -52 -110 -58 -166 -58 -536 l0 -338 2560 0 2560 0 0 338 c0 379 -6 430
-64 547 -65 130 -185 250 -301 300 -22 9 -281 98 -575 196 l-535 179 -60 -58
c-401 -388 -963 -521 -1477 -349 -219 74 -445 213 -593 366 -21 23 -42 41 -45
40 -3 0 -243 -81 -535 -178z"/>
    </g>
</svg>
