<svg width="23" height="16" viewBox="0 0 23 16" fill="none" xmlns="http://www.w3.org/2000/svg">
<path d="M21.8974 2.582C21.6458 1.64496 20.9082 0.906303 19.9728 0.653987C18.264 0.185669 11.4286 0.185669 11.4286 0.185669C11.4286 0.185669 4.59339 0.185669 2.88456 0.636232C1.96717 0.88828 1.21159 1.64509 0.959952 2.582C0.510254 4.29347 0.510254 7.84284 0.510254 7.84284C0.510254 7.84284 0.510254 11.4101 0.959952 13.1037C1.21186 14.0406 1.94918 14.7792 2.8847 15.0316C4.61138 15.5 11.4288 15.5 11.4288 15.5C11.4288 15.5 18.264 15.5 19.9728 15.0494C20.9083 14.7973 21.6458 14.0586 21.8977 13.1217C22.3473 11.4101 22.3473 7.86086 22.3473 7.86086C22.3473 7.86086 22.3653 4.29347 21.8974 2.582ZM9.25231 11.1219V4.56381L14.9363 7.84284L9.25231 11.1219Z" fill="white"/>
</svg>
