<?xml version="1.0" standalone="no"?>
<!DOCTYPE svg PUBLIC "-//W3C//DTD SVG 20010904//EN"
 "http://www.w3.org/TR/2001/REC-SVG-20010904/DTD/svg10.dtd">
<svg version="1.0" xmlns="http://www.w3.org/2000/svg"
 width="450.000000pt" height="450.000000pt" viewBox="0 0 450.000000 450.000000"
 preserveAspectRatio="xMidYMid meet">
<metadata>
Created by potrace 1.14, written by Peter Selinger 2001-2017
</metadata>
<g transform="translate(0.000000,450.000000) scale(0.100000,-0.100000)"
fill="#000000" stroke="none">
<path d="M1194 3829 c-197 -93 -405 -190 -461 -216 l-102 -48 -1 -876 0 -876
22 -11 c399 -190 894 -422 902 -422 11 0 905 418 918 429 4 4 -202 105 -457
225 l-465 218 0 437 0 437 323 152 c177 83 385 181 462 218 l140 67 -110 53
c-125 59 -608 287 -731 344 l-80 37 -360 -168z"/>
<path d="M2630 2974 c-168 -79 -369 -174 -448 -211 -78 -36 -145 -69 -147 -73
-2 -4 53 -33 123 -66 70 -32 276 -129 457 -215 l330 -156 3 -436 2 -437 -52
-26 c-47 -24 -308 -147 -735 -347 -73 -34 -133 -65 -133 -68 0 -3 206 -104
458 -223 l459 -216 144 69 c160 77 544 258 686 324 l92 42 1 876 0 876 -117
56 c-347 165 -803 377 -810 377 -4 -1 -145 -66 -313 -146z"/>
</g>
</svg>
