<svg width="43" height="50" viewBox="0 0 43 50" fill="none" xmlns="http://www.w3.org/2000/svg">
<g clip-path="url(#clip0)">
<path d="M41.2332 38.9657C40.4771 40.7125 39.5821 42.3205 38.5451 43.7988C37.1315 45.8142 35.9742 47.2092 35.0822 47.9839C33.6995 49.2555 32.2181 49.9067 30.6317 49.9437C29.4929 49.9437 28.1195 49.6196 26.5208 48.9623C24.9168 48.308 23.4428 47.9839 22.095 47.9839C20.6814 47.9839 19.1654 48.308 17.5439 48.9623C15.9199 49.6196 14.6116 49.9622 13.6113 49.9962C12.09 50.061 10.5737 49.3913 9.0602 47.9839C8.09418 47.1413 6.88589 45.6969 5.43841 43.6507C3.88537 41.4656 2.60856 38.9317 1.60828 36.0429C0.53702 32.9226 0 29.9011 0 26.9759C0 23.6251 0.724051 20.735 2.17431 18.3132C3.31409 16.3679 4.8304 14.8334 6.72818 13.7069C8.62596 12.5804 10.6765 12.0063 12.8848 11.9696C14.0931 11.9696 15.6776 12.3433 17.6467 13.0779C19.6102 13.8149 20.8709 14.1886 21.4237 14.1886C21.837 14.1886 23.2375 13.7516 25.6118 12.8803C27.8571 12.0723 29.7521 11.7378 31.3045 11.8696C35.5112 12.2091 38.6716 13.8674 40.7734 16.8549C37.0112 19.1345 35.1501 22.3273 35.1871 26.4231C35.2211 29.6135 36.3785 32.2683 38.6531 34.3763C39.6839 35.3546 40.8351 36.1108 42.1159 36.6478C41.8382 37.4534 41.545 38.2249 41.2332 38.9657V38.9657ZM31.5854 1.00077C31.5854 3.50134 30.6719 5.83612 28.8509 7.99716C26.6535 10.5662 23.9955 12.0507 21.1132 11.8165C21.0765 11.5165 21.0552 11.2008 21.0552 10.869C21.0552 8.46844 22.1002 5.89939 23.956 3.79883C24.8825 2.73529 26.0609 1.85096 27.4899 1.14552C28.9157 0.450603 30.2645 0.0662987 31.5329 0.000488281C31.57 0.334775 31.5854 0.669084 31.5854 1.00074V1.00077Z" fill="black"/>
</g>
<defs>
<clipPath id="clip0">
<rect width="42.116" height="50" fill="white"/>
</clipPath>
</defs>
</svg>
